<svg width="17" height="16" viewBox="0 0 17 16" fill="none" xmlns="http://www.w3.org/2000/svg">
<path d="M5.83333 10.6667L11.6467 10.1822C13.4657 10.0307 13.8741 9.63333 14.0757 7.81927L14.5 4" stroke="#1E1E1E" stroke-linecap="round"/>
<path d="M4.5 4H4.83333M15.1667 4H13.5" stroke="#1E1E1E" stroke-linecap="round"/>
<path d="M6.83333 4.00008H11.5M9.16666 6.33341V1.66675" stroke="#1E1E1E" stroke-linecap="round"/>
<path d="M4.50001 14.6667C5.23638 14.6667 5.83334 14.0697 5.83334 13.3333C5.83334 12.597 5.23638 12 4.50001 12C3.76363 12 3.16667 12.597 3.16667 13.3333C3.16667 14.0697 3.76363 14.6667 4.50001 14.6667Z" stroke="#1E1E1E"/>
<path d="M11.8333 14.6667C12.5697 14.6667 13.1667 14.0697 13.1667 13.3333C13.1667 12.597 12.5697 12 11.8333 12C11.097 12 10.5 12.597 10.5 13.3333C10.5 14.0697 11.097 14.6667 11.8333 14.6667Z" stroke="#1E1E1E"/>
<path d="M5.83333 13.3333H10.5" stroke="#1E1E1E" stroke-linecap="round"/>
<path d="M1.83333 1.33325H2.47733C3.10711 1.33325 3.65609 1.74965 3.80883 2.34321L5.79234 10.0509C5.89257 10.4405 5.80679 10.8531 5.55882 11.1743L4.92141 11.9999" stroke="#1E1E1E" stroke-linecap="round"/>
</svg>
