<svg width="20" height="20" viewBox="0 0 20 20" fill="none" xmlns="http://www.w3.org/2000/svg">
<path d="M15.4204 15.8334H15.7881C16.6504 15.8334 17.3363 15.4405 17.9522 14.8911C19.5168 13.4953 15.8389 12.0833 14.5833 12.0833" stroke="#1E1E1E" stroke-width="1.5" stroke-linecap="round" stroke-linejoin="round"/>
<path d="M12.5 4.22406C12.6893 4.18652 12.8857 4.16675 13.0873 4.16675C14.6039 4.16675 15.8333 5.28604 15.8333 6.66675C15.8333 8.04746 14.6039 9.16675 13.0873 9.16675C12.8857 9.16675 12.6893 9.147 12.5 9.10941" stroke="#1E1E1E" stroke-width="1.5" stroke-linecap="round"/>
<path d="M3.98547 12.5927C3.06849 13.1192 0.664224 14.1943 2.12858 15.5396C2.84391 16.1967 3.64061 16.6667 4.64224 16.6667H10.3578C11.3594 16.6667 12.1561 16.1967 12.8714 15.5396C14.3358 14.1943 11.9315 13.1192 11.0145 12.5927C8.86426 11.3581 6.13577 11.3581 3.98547 12.5927Z" stroke="#1E1E1E" stroke-width="1.5" stroke-linecap="round" stroke-linejoin="round"/>
<path d="M10.8333 5.83333C10.8333 7.67428 9.34092 9.16667 7.50001 9.16667C5.65906 9.16667 4.16667 7.67428 4.16667 5.83333C4.16667 3.99238 5.65906 2.5 7.50001 2.5C9.34092 2.5 10.8333 3.99238 10.8333 5.83333Z" stroke="#1E1E1E" stroke-width="1.5"/>
</svg>
