<svg width="272" height="312" viewBox="0 0 272 312" fill="none" xmlns="http://www.w3.org/2000/svg">
<g style="mix-blend-mode:luminosity" clip-path="url(#clip0_123_4525)">
<path d="M130.531 292.694L130.184 284.866C130.148 284.847 130.112 284.828 130.076 284.809C126.361 282.852 122.104 286.395 123.291 290.436C124.407 294.238 125.157 298.336 127.2 301.664C128.408 303.597 130.033 305.232 131.955 306.448C133.877 307.665 136.047 308.431 138.304 308.691L143.023 311.593C143.671 307.967 143.528 304.244 142.605 300.679C141.681 297.115 140 293.793 137.675 290.944C136.355 289.359 134.842 287.947 133.171 286.741C132.041 289.734 130.531 292.694 130.531 292.694Z" fill="#F2F2F2"/>
<path d="M88.2792 213.257C79.1936 203.847 66.0272 198.45 52.1561 198.45L51.6211 198.451C42.4846 198.455 33.5111 196.021 25.6184 191.399L24.797 190.919L25.4585 190.234C29.0398 186.513 32.0301 182.261 34.3248 177.628C32.6951 179.154 30.7513 180.301 28.631 180.989C26.5108 181.677 24.2659 181.888 22.0552 181.608C19.7213 181.329 17.4807 180.522 15.5015 179.249C13.5223 177.976 11.8558 176.269 10.6271 174.257C5.77902 166.357 1.52588e-05 155.148 1.52588e-05 146.609C0.00756206 139.392 1.5124 132.255 4.41862 125.653C7.32484 119.052 11.5687 113.131 16.8796 108.268C20.2419 105.223 22.9275 101.501 24.7614 97.3443C26.5952 93.1874 27.5361 88.689 27.5227 84.1424L27.52 83.4954C27.5191 77.5095 28.2475 71.546 29.6889 65.7378L29.8353 65.1513L30.4362 65.1724C34.3111 65.3048 38.188 64.9786 41.987 64.2006C38.4236 63.7616 34.9376 62.8305 31.6279 61.4335L30.9814 61.1709L31.2008 60.5057C46.3235 51.1023 80.4596 55.9719 100.273 10.446C116.339 -26.4694 173.026 43.2157 173.026 83.4954C173.026 87.6055 168.976 93.0368 172.008 95.7534C204.784 125.119 182.169 143.977 175.039 162.951C173.347 167.453 177.016 172.396 177.016 177.266C177.016 178.093 176.995 178.946 176.953 179.802L176.89 181.118L175.797 180.387C173.635 178.965 171.631 177.314 169.819 175.463C171.699 179.807 172.585 184.519 172.412 189.253C172.238 193.986 171.011 198.62 168.819 202.814C165.384 209.324 162.061 213.985 158.942 216.666C148.951 225.253 136.071 229.682 122.937 229.048C109.802 228.414 97.4045 222.766 88.2792 213.257Z" fill="#E6E6E6"/>
<path d="M143.154 311.207C143.377 311.206 143.593 311.125 143.761 310.978C143.93 310.831 144.04 310.628 144.072 310.406C144.111 310.127 147.974 282.146 144.505 244.958C141.3 210.613 131.01 161.146 100.185 120.518C100.111 120.421 100.019 120.339 99.9137 120.277C99.8083 120.215 99.6919 120.175 99.5709 120.159C99.45 120.142 99.3271 120.15 99.2091 120.181C99.0911 120.212 98.9804 120.267 98.8834 120.341C98.7863 120.415 98.7048 120.508 98.6435 120.614C98.5821 120.72 98.5422 120.837 98.526 120.958C98.5097 121.08 98.5175 121.203 98.5488 121.322C98.5801 121.44 98.6343 121.551 98.7084 121.649C129.267 161.925 139.474 211.03 142.656 245.132C146.106 282.104 142.273 309.867 142.233 310.143C142.215 310.275 142.225 310.41 142.262 310.538C142.3 310.666 142.365 310.785 142.452 310.885C142.539 310.986 142.647 311.067 142.768 311.123C142.889 311.178 143.021 311.207 143.154 311.207Z" fill="#3F3D56"/>
<path d="M117.999 177.825C118.195 177.825 118.386 177.763 118.545 177.647C118.703 177.531 118.821 177.368 118.882 177.181C118.943 176.994 118.943 176.792 118.882 176.605C118.822 176.417 118.704 176.254 118.545 176.138C118.433 176.057 107.157 167.897 90.298 161.698C74.7135 155.968 51.015 150.773 26.6179 158.571C26.5015 158.608 26.3936 158.668 26.3002 158.747C26.2069 158.825 26.1299 158.922 26.0737 159.031C26.0176 159.14 25.9834 159.259 25.973 159.381C25.9627 159.503 25.9764 159.626 26.0134 159.743C26.0504 159.859 26.1099 159.968 26.1887 160.061C26.2674 160.155 26.3637 160.232 26.4722 160.288C26.5806 160.344 26.699 160.379 26.8206 160.389C26.9422 160.399 27.0646 160.385 27.1809 160.348C51.0782 152.71 74.3471 157.819 89.6596 163.449C106.277 169.559 117.344 177.567 117.454 177.647C117.612 177.763 117.803 177.825 117.999 177.825Z" fill="#3F3D56"/>
<path d="M160.488 71.5482C160.502 71.3518 160.454 71.1559 160.351 70.9885C160.247 70.8212 160.094 70.6911 159.912 70.6168C159.731 70.5425 159.53 70.5279 159.34 70.5751C159.149 70.6222 158.979 70.7287 158.852 70.8793C158.763 70.9855 149.847 81.6933 142.476 98.1334C135.663 113.331 128.797 136.695 134.785 161.694C134.843 161.935 134.993 162.142 135.203 162.271C135.413 162.4 135.665 162.44 135.905 162.383C136.144 162.325 136.351 162.174 136.479 161.963C136.608 161.752 136.648 161.499 136.59 161.258C130.725 136.771 137.475 113.831 144.169 98.899C151.435 82.6935 160.184 72.1855 160.272 72.0813C160.398 71.931 160.474 71.7444 160.488 71.5482Z" fill="#3F3D56"/>
<path d="M159.232 119.622C160.015 125.968 164.394 131.201 170.762 131.201C173.82 131.201 176.752 129.981 178.915 127.81C181.077 125.638 182.292 122.693 182.292 119.622C182.292 113.227 177.102 108.634 170.762 108.043C164.034 107.415 158.226 111.474 159.232 119.622Z" fill="#2F2E41"/>
<path d="M176.102 306.107L180.493 306.106L182.581 289.098L176.101 289.098L176.102 306.107Z" fill="#FFB6B6"/>
<path d="M175.947 310.706L189.45 310.706V310.534C189.45 309.135 188.896 307.792 187.91 306.803C186.925 305.813 185.588 305.257 184.194 305.257L181.728 303.378L177.126 305.257L175.947 305.257L175.947 310.706Z" fill="#2F2E41"/>
<path d="M158.807 306.107L163.197 306.106L165.286 289.098L158.806 289.098L158.807 306.107Z" fill="#FFB6B6"/>
<path d="M158.652 310.706L172.155 310.706V310.534C172.154 309.135 171.601 307.792 170.615 306.803C169.63 305.813 168.293 305.257 166.899 305.257L164.432 303.378L159.831 305.257L158.652 305.257L158.652 310.706Z" fill="#2F2E41"/>
<path d="M191.212 199.581L194.316 210.27L190.659 255.538C190.659 255.538 192.542 258.368 191.212 258.368C189.881 258.368 188.175 258.996 189.25 260.686C190.325 262.376 186.651 268.445 186.651 268.445L181.455 300.677L174.835 300.579C174.835 300.579 171.469 298.696 173.358 296.792C175.247 294.887 176.577 294.887 174.803 293.106C173.03 291.325 173.03 291.861 173.03 290.479C173.03 289.098 171.252 272.213 175.467 265.736L174.197 239.328L171.206 265.231L165.047 299.786L158.669 299.734C158.669 299.734 155.724 296.882 155.729 294.771C155.734 292.661 157.549 292.485 156.198 291.237C154.848 289.989 154.848 270.81 158.839 260.15C158.839 260.15 161.096 254.193 158.834 252.152C156.571 250.111 158.831 247.776 158.831 247.776C158.831 247.776 162.415 246.475 158.828 242.726C155.24 238.978 158.808 212.465 158.808 212.465C158.808 212.465 154.887 201.762 158.858 197.554C162.83 193.346 191.212 199.581 191.212 199.581Z" fill="#2F2E41"/>
<path d="M135.923 217.996L141.461 204.554L145.825 206.989L143.19 220.663C143.454 221.529 143.472 222.452 143.242 223.328C143.012 224.204 142.544 224.998 141.889 225.622C141.234 226.245 140.42 226.673 139.536 226.856C138.653 227.04 137.736 226.973 136.889 226.662C136.041 226.351 135.297 225.809 134.74 225.096C134.183 224.384 133.834 223.53 133.734 222.629C133.634 221.729 133.785 220.818 134.172 220C134.559 219.181 135.165 218.488 135.923 217.996Z" fill="#FFB6B6"/>
<path d="M228.861 111.703L220.434 123.535L216.733 120.17L222.385 107.452C222.324 106.548 222.514 105.645 222.936 104.844C223.357 104.043 223.993 103.376 224.771 102.918C225.549 102.46 226.439 102.229 227.341 102.251C228.243 102.273 229.121 102.547 229.876 103.043C230.631 103.538 231.233 104.236 231.616 105.056C231.998 105.877 232.144 106.788 232.039 107.688C231.934 108.588 231.58 109.44 231.019 110.149C230.458 110.859 229.71 111.396 228.861 111.703Z" fill="#FFB6B6"/>
<path d="M192.048 200.677C197.514 209.191 170.038 219.997 159.496 215.659C157.65 214.899 151.299 212.39 155.64 208.912C159.98 205.433 155.137 204.944 155.022 202.679C154.946 201.166 156.113 197.845 154.895 197.987C153.677 198.129 152.252 196.036 154.904 195.135C157.556 194.234 154.933 193.412 154.956 192.557C155.209 183.225 162.339 168.38 162.339 168.38L149.492 201.362C149.492 201.362 149.587 207.068 147.948 205.324C146.31 203.581 146.429 209.224 146.429 209.224C146.429 209.224 143.993 210.932 145.394 211.882C146.795 212.832 143.886 215.754 143.886 215.754L137.098 215.267C137.098 215.267 137.204 210.203 138.363 209.083C139.522 207.963 138.953 206.201 138.953 206.201C138.953 206.201 141.97 203.518 139.947 201.34C137.345 198.539 146.832 151.224 150.105 151.693C150.568 149.43 151.645 147.341 153.216 145.655C154.788 143.969 156.793 142.752 159.01 142.139L166.342 140.112L167.644 134.924H177.967L179.765 138.333L187.613 141.89C189.092 139.795 190.196 137.588 196.25 136.872C196.25 136.872 212.562 121.967 211.765 120.804C210.969 119.64 213.497 116.915 213.497 116.915C213.497 116.915 215.657 116.205 214.438 115.826C213.22 115.447 215.523 114.571 215.523 114.571C215.523 114.571 217.656 114.008 216.65 113.267C215.644 112.526 220.008 112.039 220.008 112.039L225.669 116.678L224.525 118.627C224.525 118.627 225.223 121.28 224.312 120.311C223.402 119.343 223.23 122.154 223.23 122.154C223.23 122.154 222.765 125.232 220.008 126.16C217.25 127.087 215.159 135.898 215.159 135.898C208.656 144.39 200.981 151.014 191.886 155.375C195.431 159.461 192.048 200.677 192.048 200.677Z" fill="#FFC107"/>
<path d="M172.036 131.889C177.683 131.889 182.261 127.292 182.261 121.621C182.261 115.95 177.683 111.353 172.036 111.353C166.389 111.353 161.812 115.95 161.812 121.621C161.812 127.292 166.389 131.889 172.036 131.889Z" fill="#FFB6B6"/>
<path d="M161.449 122.739C161.773 124.97 163.666 128.084 163.223 128.084C162.779 128.084 159.626 118.885 162.779 118.286C165.066 117.851 165.578 118.232 167.715 117.301L167.413 117.586C168.828 118.62 170.797 117.983 172.411 117.31C174.03 116.642 175.994 116.005 177.414 117.034C178.305 117.68 178.682 118.802 179.236 119.755C179.791 120.713 180.815 121.617 181.87 121.323C182.717 121.087 183.205 120.134 183.201 119.252C183.196 118.37 182.053 117.531 182.438 116.74C183.579 114.396 182.553 112.798 180.065 111.694C179.161 111.556 178.256 111.415 177.351 111.271C177.826 110.612 178.4 110.032 179.054 109.552C178.778 108.841 178.3 108.226 177.68 107.784C176.957 107.352 176.061 107.383 175.223 107.428C173.351 107.526 171.482 107.624 169.613 107.722C168.229 107.793 166.797 107.878 165.56 108.515C164.017 109.312 163.005 110.866 162.269 112.447C160.62 116.001 160.881 118.86 161.449 122.739Z" fill="#2F2E41"/>
<path d="M118.916 311.863L219.471 312C219.612 312 219.746 311.944 219.845 311.845C219.944 311.745 220 311.61 220 311.47C220 311.329 219.944 311.194 219.845 311.095C219.746 310.995 219.612 310.939 219.471 310.939L118.916 310.802C118.776 310.802 118.642 310.858 118.543 310.958C118.444 311.057 118.388 311.192 118.388 311.333C118.388 311.473 118.444 311.608 118.543 311.708C118.642 311.807 118.776 311.863 118.916 311.863Z" fill="#CACACA"/>
<path d="M82.5476 265.639C82.7329 264.36 81.3985 263.105 79.567 262.838C77.7356 262.57 76.1006 263.39 75.9152 264.67C75.7298 265.949 77.0643 267.204 78.8957 267.471C80.7272 267.739 82.3622 266.919 82.5476 265.639Z" fill="#E6E6E6"/>
<path d="M104.353 263.502C104.539 262.223 103.204 260.969 101.373 260.701C99.5413 260.433 97.9064 261.254 97.721 262.533C97.5356 263.813 98.87 265.067 100.702 265.334C102.533 265.602 104.168 264.782 104.353 263.502Z" fill="#3F3D56"/>
<path d="M76.5765 247.91C76.7618 246.631 75.4274 245.376 73.5959 245.109C71.7645 244.841 70.1295 245.662 69.9441 246.941C69.7587 248.221 71.0932 249.475 72.9246 249.742C74.7561 250.01 76.3911 249.19 76.5765 247.91Z" fill="#FF6584"/>
<path d="M67.1013 240.648C67.1102 239.474 66.4577 238.516 65.6441 238.51C64.8304 238.504 64.1636 239.451 64.1547 240.626C64.1459 241.8 64.7984 242.758 65.612 242.764C66.4257 242.77 67.0925 241.823 67.1013 240.648Z" fill="#E6E6E6"/>
<path d="M63.8881 227.122C63.8969 225.947 63.2445 224.99 62.4308 224.984C61.6172 224.978 60.9504 225.925 60.9415 227.1C60.9327 228.274 61.5851 229.231 62.3988 229.238C63.2125 229.244 63.8792 228.297 63.8881 227.122Z" fill="#3F3D56"/>
<path d="M88.8751 250.927C88.884 249.753 88.2316 248.795 87.4179 248.789C86.6042 248.783 85.9374 249.73 85.9286 250.905C85.9197 252.079 86.5722 253.037 87.3859 253.043C88.1995 253.049 88.8663 252.102 88.8751 250.927Z" fill="#E6E6E6"/>
<path d="M78.3376 256.211C78.3465 255.036 77.694 254.079 76.8804 254.073C76.0667 254.067 75.3999 255.014 75.3911 256.189C75.3822 257.363 76.0347 258.32 76.8483 258.327C77.662 258.333 78.3288 257.386 78.3376 256.211Z" fill="#FF6584"/>
<path d="M93.0062 265.977C93.0151 264.802 92.3626 263.845 91.549 263.838C90.7353 263.832 90.0685 264.78 90.0597 265.954C90.0508 267.129 90.7033 268.086 91.5169 268.092C92.3306 268.098 92.9974 267.151 93.0062 265.977Z" fill="#3F3D56"/>
<path d="M250.177 197.054C250.362 195.775 249.028 194.52 247.196 194.253C245.365 193.985 243.73 194.805 243.545 196.085C243.359 197.364 244.694 198.619 246.525 198.886C248.357 199.154 249.992 198.334 250.177 197.054Z" fill="#E6E6E6"/>
<path d="M271.983 194.917C272.168 193.638 270.834 192.383 269.002 192.116C267.171 191.848 265.536 192.669 265.35 193.948C265.165 195.228 266.499 196.482 268.331 196.749C270.162 197.017 271.797 196.197 271.983 194.917Z" fill="#3F3D56"/>
<path d="M244.206 179.325C244.391 178.046 243.057 176.791 241.225 176.524C239.394 176.256 237.759 177.077 237.573 178.356C237.388 179.636 238.722 180.89 240.554 181.157C242.385 181.425 244.02 180.605 244.206 179.325Z" fill="#FF6584"/>
<path d="M234.731 172.063C234.74 170.889 234.087 169.931 233.273 169.925C232.46 169.919 231.793 170.866 231.784 172.041C231.775 173.215 232.428 174.173 233.241 174.179C234.055 174.185 234.722 173.238 234.731 172.063Z" fill="#E6E6E6"/>
<path d="M231.518 158.537C231.526 157.362 230.874 156.405 230.06 156.399C229.247 156.393 228.58 157.34 228.571 158.515C228.562 159.689 229.215 160.646 230.028 160.653C230.842 160.659 231.509 159.712 231.518 158.537Z" fill="#3F3D56"/>
<path d="M256.505 182.342C256.513 181.168 255.861 180.21 255.047 180.204C254.234 180.198 253.567 181.145 253.558 182.32C253.549 183.494 254.202 184.452 255.015 184.458C255.829 184.464 256.496 183.517 256.505 182.342Z" fill="#E6E6E6"/>
<path d="M245.967 187.626C245.976 186.451 245.323 185.494 244.51 185.488C243.696 185.482 243.029 186.429 243.021 187.603C243.012 188.778 243.664 189.735 244.478 189.742C245.291 189.748 245.958 188.8 245.967 187.626Z" fill="#FF6584"/>
<path d="M260.636 197.392C260.645 196.217 259.992 195.26 259.178 195.254C258.365 195.247 257.698 196.195 257.689 197.369C257.68 198.544 258.333 199.501 259.146 199.507C259.96 199.513 260.627 198.566 260.636 197.392Z" fill="#3F3D56"/>
<path d="M169.023 70.1272C169.208 68.8477 167.874 67.5935 166.043 67.3259C164.211 67.0583 162.576 67.8786 162.391 69.1581C162.205 70.4376 163.54 71.6918 165.371 71.9594C167.203 72.227 168.838 71.4067 169.023 70.1272Z" fill="white"/>
<path d="M190.829 67.9904C191.014 66.7109 189.68 65.4567 187.848 65.1891C186.017 64.9215 184.382 65.7418 184.196 67.0213C184.011 68.3008 185.346 69.555 187.177 69.8226C189.009 70.0902 190.643 69.2699 190.829 67.9904Z" fill="#3F3D56"/>
<path d="M163.052 52.3983C163.237 51.1188 161.903 49.8646 160.071 49.597C158.24 49.3294 156.605 50.1497 156.42 51.4292C156.234 52.7087 157.569 53.9629 159.4 54.2305C161.232 54.4981 162.867 53.6778 163.052 52.3983Z" fill="#FF6584"/>
<path d="M153.577 45.1363C153.586 43.9617 152.933 43.0044 152.12 42.9983C151.306 42.9921 150.639 43.9393 150.63 45.114C150.621 46.2886 151.274 47.2459 152.088 47.252C152.901 47.2582 153.568 46.311 153.577 45.1363Z" fill="#E6E6E6"/>
<path d="M150.364 31.6101C150.372 30.4354 149.72 29.4782 148.906 29.472C148.093 29.4658 147.426 30.4131 147.417 31.5877C147.408 32.7624 148.061 33.7196 148.874 33.7258C149.688 33.732 150.355 32.7847 150.364 31.6101Z" fill="#3F3D56"/>
<path d="M175.351 55.4154C175.36 54.2407 174.707 53.2835 173.893 53.2773C173.08 53.2711 172.413 54.2184 172.404 55.393C172.395 56.5677 173.048 57.5249 173.861 57.5311C174.675 57.5373 175.342 56.59 175.351 55.4154Z" fill="#E6E6E6"/>
<path d="M164.813 60.6991C164.822 59.5244 164.17 58.5672 163.356 58.561C162.542 58.5549 161.875 59.5021 161.867 60.6767C161.858 61.8513 162.51 62.8086 163.324 62.8148C164.138 62.821 164.804 61.8737 164.813 60.6991Z" fill="#FF6584"/>
<path d="M179.482 70.4647C179.491 69.2901 178.838 68.3328 178.024 68.3267C177.211 68.3205 176.544 69.2677 176.535 70.4423C176.526 71.617 177.179 72.5742 177.992 72.5804C178.806 72.5866 179.473 71.6393 179.482 70.4647Z" fill="#3F3D56"/>
</g>
<defs>
<clipPath id="clip0_123_4525">
<rect width="272" height="312" fill="white"/>
</clipPath>
</defs>
</svg>
