<svg width="272" height="148" viewBox="0 0 272 148" fill="none" xmlns="http://www.w3.org/2000/svg">
<g style="mix-blend-mode:luminosity" clip-path="url(#clip0_123_4570)">
<path d="M36.5767 77.14H27.8718C27.5657 77.14 27.2722 77.261 27.0557 77.4764C26.8393 77.6918 26.7177 77.984 26.7177 78.2886V82.0912C26.7177 82.3959 26.8393 82.688 27.0557 82.9034C27.2722 83.1188 27.5657 83.2398 27.8718 83.2398H29.3143V88.9375H35.1341V83.2398H36.5767C36.8828 83.2398 37.1763 83.1188 37.3927 82.9034C37.6092 82.688 37.7308 82.3959 37.7308 82.0912V78.2886C37.7308 77.984 37.6092 77.6918 37.3927 77.4764C37.1763 77.261 36.8828 77.14 36.5767 77.14Z" fill="#FFC107"/>
<path d="M45.2955 111.942C39.9644 104.178 37.239 94.9341 37.5098 85.5345C37.5147 85.3176 37.4439 85.1057 37.3096 84.9349C37.1753 84.764 36.9858 84.6446 36.7731 84.5971V82.954H27.5796V84.5742H27.4529C27.3232 84.5744 27.195 84.6012 27.0762 84.6529C26.9574 84.7046 26.8506 84.7801 26.7624 84.8747C26.6743 84.9694 26.6066 85.0811 26.5638 85.2029C26.5209 85.3247 26.5038 85.4539 26.5134 85.5826C27.2377 95.6308 24.792 104.642 19.1763 112.616C18.8531 113.074 18.688 113.624 18.7058 114.184L19.711 145.131C19.7352 145.821 20.0263 146.476 20.5236 146.957C21.0209 147.439 21.6859 147.711 22.3799 147.717H43.1742C43.8761 147.711 44.548 147.433 45.0468 146.941C45.5456 146.45 45.8319 145.784 45.8446 145.085L46.232 115.038C46.2435 113.935 45.9168 112.855 45.2955 111.942Z" fill="#3F3D56"/>
<path opacity="0.2" d="M34.762 78.3792C34.762 79.0364 34.4997 79.6667 34.0328 80.1314C33.5658 80.5961 32.9325 80.8572 32.2721 80.8572C31.6118 80.8572 30.9785 80.5961 30.5115 80.1314C30.0446 79.6667 29.7822 79.0364 29.7822 78.3792" fill="black"/>
<path d="M42.0038 122.221H39.4857C39.2453 120.669 38.4546 119.253 37.2565 118.231C36.0585 117.208 34.5323 116.646 32.9539 116.646C31.3756 116.646 29.8493 117.208 28.6513 118.231C27.4533 119.253 26.6625 120.669 26.4221 122.221H23.9039C23.636 122.221 23.3712 122.279 23.1278 122.391C22.8844 122.502 22.668 122.664 22.4936 122.867C22.3191 123.069 22.1907 123.307 22.1171 123.563C22.0435 123.819 22.0265 124.089 22.0673 124.352L24.8024 142.046H40.508L43.8302 124.412C43.8805 124.145 43.8711 123.87 43.8025 123.607C43.734 123.344 43.6081 123.099 43.4337 122.89C43.2593 122.681 43.0408 122.512 42.7936 122.397C42.5465 122.281 42.2768 122.221 42.0038 122.221Z" fill="#FFC107"/>
<path d="M253.607 93.7814L253.003 117.808L252.255 147.601H226.793L225.917 112.694L225.441 93.7814H253.607Z" fill="#E6E6E6"/>
<path d="M241.214 80.9991H237.609V128.54H241.214V80.9991Z" fill="#FFC107"/>
<path d="M251.804 111.885L251.122 146.034H227.915L227.116 106.025C229.206 105.44 231.396 105.291 233.547 105.585C235.699 105.88 237.766 106.612 239.621 107.736C243.499 110.019 247.855 111.247 251.804 111.885Z" fill="#3F3D56"/>
<path d="M233.66 115.729H230.352V119.022H233.66V115.729Z" fill="#E6E6E6"/>
<path d="M235.913 109.002H232.605V112.294H235.913V109.002Z" fill="#E6E6E6"/>
<path d="M243.017 113.659L240.36 111.698L238.389 114.342L241.046 116.304L243.017 113.659Z" fill="#E6E6E6"/>
<path d="M248.994 119.493L246.336 117.531L244.366 120.176L247.023 122.137L248.994 119.493Z" fill="#E6E6E6"/>
<path d="M238.854 122.856L236.197 120.895L234.226 123.54L236.883 125.501L238.854 122.856Z" fill="#E6E6E6"/>
<path d="M246.622 107.685C246.995 107.685 247.298 107.384 247.298 107.012C247.298 106.641 246.995 106.339 246.622 106.339C246.248 106.339 245.946 106.641 245.946 107.012C245.946 107.384 246.248 107.685 246.622 107.685Z" fill="#3F3D56"/>
<path d="M232.877 103.2C233.25 103.2 233.553 102.899 233.553 102.527C233.553 102.156 233.25 101.854 232.877 101.854C232.504 101.854 232.201 102.156 232.201 102.527C232.201 102.899 232.504 103.2 232.877 103.2Z" fill="#3F3D56"/>
<path d="M244.369 98.4906C244.742 98.4906 245.045 98.1894 245.045 97.8179C245.045 97.4463 244.742 97.1451 244.369 97.1451C243.995 97.1451 243.693 97.4463 243.693 97.8179C243.693 98.1894 243.995 98.4906 244.369 98.4906Z" fill="#3F3D56"/>
<path d="M136.156 147.396C177.053 147.396 210.206 114.4 210.206 73.6981C210.206 32.9957 177.053 0 136.156 0C95.2585 0 62.1049 32.9957 62.1049 73.6981C62.1049 114.4 95.2585 147.396 136.156 147.396Z" fill="#FFC107"/>
<path opacity="0.2" d="M136.156 127.491C123.651 127.49 111.533 123.175 101.867 115.28C92.2009 107.385 85.5844 96.3984 83.1449 84.1924C80.7054 71.9865 82.5939 59.3163 88.4886 48.3408C94.3833 37.3652 103.919 28.7634 115.472 24.0009C127.025 19.2384 139.88 18.6099 151.846 22.2226C163.812 25.8352 174.149 33.4654 181.097 43.8132C188.044 54.1609 191.171 66.5858 189.945 78.971C188.72 91.3561 183.217 102.935 174.375 111.735C169.367 116.746 163.411 120.718 156.851 123.423C150.291 126.127 143.256 127.51 136.156 127.491ZM136.156 23.2232C108.19 23.2232 85.4392 45.8661 85.4392 73.698C85.4392 101.53 108.19 124.173 136.156 124.173C164.121 124.173 186.872 101.53 186.872 73.698C186.872 45.8661 164.121 23.2232 136.156 23.2232Z" fill="black"/>
<path d="M136.156 125.832C165.086 125.832 188.539 102.491 188.539 73.698C188.539 44.9054 165.086 21.5643 136.156 21.5643C107.225 21.5643 83.7725 44.9054 83.7725 73.698C83.7725 102.491 107.225 125.832 136.156 125.832Z" fill="#3F3D56"/>
<path d="M97.1994 52.852C96.8021 52.0776 96.5621 51.2329 96.4931 50.3662C96.424 49.4994 96.5273 48.6276 96.797 47.8007C97.0668 46.9737 97.4976 46.2077 98.065 45.5465C98.6323 44.8853 99.325 44.342 100.104 43.9474C100.882 43.5528 101.731 43.3149 102.602 43.2471C103.473 43.1793 104.349 43.283 105.179 43.5523C106.01 43.8216 106.779 44.2512 107.443 44.8165C108.107 45.3819 108.652 46.0719 109.048 46.8471L123.847 75.7705C124.245 76.5448 124.485 77.3896 124.554 78.2563C124.623 79.123 124.519 79.9948 124.25 80.8218C123.98 81.6488 123.549 82.4148 122.982 83.076C122.414 83.7371 121.722 84.2805 120.943 84.6751C120.165 85.0696 119.316 85.3076 118.445 85.3754C117.574 85.4432 116.698 85.3395 115.867 85.0702C115.037 84.8009 114.267 84.3713 113.604 83.806C112.94 83.2406 112.395 82.5506 111.999 81.7754L97.1994 52.852Z" fill="#FF6584"/>
<path opacity="0.2" d="M98.8501 56.078L98.1671 54.7431C101.576 52.107 105.579 50.1683 110.015 48.7382L110.698 50.0731C105.897 51.0682 101.812 52.9097 98.8501 56.078Z" fill="black"/>
<path opacity="0.2" d="M102.038 62.3076L101.355 60.9727C104.764 58.3366 108.767 56.3979 113.203 54.9678L113.886 56.3027C109.085 57.2978 105 59.1394 102.038 62.3076Z" fill="black"/>
<path opacity="0.2" d="M105.225 68.5374L104.542 67.2025C107.951 64.5663 111.954 62.6276 116.391 61.1975L117.074 62.5324C112.272 63.5275 108.187 65.3691 105.225 68.5374Z" fill="black"/>
<path opacity="0.2" d="M108.413 74.767L107.73 73.4321C111.139 70.7959 115.142 68.8572 119.578 67.4271L120.261 68.762C115.46 69.7572 111.375 71.5987 108.413 74.767Z" fill="black"/>
<path opacity="0.2" d="M111.601 80.9966L110.917 79.6617C114.326 77.0256 118.329 75.0868 122.766 73.6567L123.449 74.9917C118.647 75.9868 114.562 77.8283 111.601 80.9966Z" fill="black"/>
<path d="M86.0963 63.6799C85.6991 62.9055 85.4592 62.0609 85.3903 61.1942C85.3213 60.3275 85.4246 59.4557 85.6944 58.6288C85.9641 57.8019 86.395 57.036 86.9623 56.3749C87.5296 55.7138 88.2223 55.1704 89.0007 54.7759C89.7792 54.3814 90.6281 54.1434 91.499 54.0756C92.3699 54.0078 93.2457 54.1114 94.0764 54.3807C94.907 54.6499 95.6761 55.0794 96.3399 55.6447C97.0036 56.2099 97.5489 56.8998 97.9446 57.6749L112.744 86.5984C113.542 88.1618 113.684 89.9766 113.138 91.6439C112.592 93.3113 111.404 94.6948 109.834 95.4905C108.264 96.2863 106.44 96.4292 104.764 95.8878C103.089 95.3464 101.697 94.1651 100.896 92.6033L86.0963 63.6799Z" fill="#FF6584"/>
<path opacity="0.2" d="M87.747 66.9059L87.064 65.571C90.4729 62.9349 94.4759 60.9961 98.9123 59.566L99.5953 60.901C94.7939 61.8961 90.7089 63.7376 87.747 66.9059Z" fill="black"/>
<path opacity="0.2" d="M90.9347 73.1355L90.2516 71.8006C93.6605 69.1645 97.6636 67.2258 102.1 65.7957L102.783 67.1306C97.9815 68.1257 93.8965 69.9672 90.9347 73.1355Z" fill="black"/>
<path opacity="0.2" d="M94.1222 79.3653L93.4391 78.0303C96.8481 75.3942 100.851 73.4555 105.287 72.0254L105.971 73.3603C101.169 74.3554 97.0841 76.197 94.1222 79.3653Z" fill="black"/>
<path opacity="0.2" d="M97.3098 85.5949L96.6268 84.2599C100.036 81.6238 104.039 79.6851 108.475 78.255L109.158 79.5899C104.357 80.585 100.272 82.4266 97.3098 85.5949Z" fill="black"/>
<path opacity="0.2" d="M100.497 91.8245L99.8143 90.4896C103.223 87.8534 107.226 85.9147 111.663 84.4846L112.346 85.8195C107.544 86.8146 103.459 88.6562 100.497 91.8245Z" fill="black"/>
<path d="M171.157 75.3569L171.204 75.3569C172.798 75.3702 174.359 74.9051 175.683 74.0222C177.008 73.1392 178.034 71.8795 178.629 70.4074C179.851 67.3325 180.467 64.0522 180.443 60.7456C180.36 46.7498 168.919 35.2679 154.857 35.0743C148.869 34.9909 143.035 36.971 138.346 40.679C133.657 44.387 130.4 49.5947 129.128 55.4193C127.856 61.244 128.647 67.3272 131.367 72.6377C134.087 77.9482 138.569 82.1594 144.052 84.5572C145.501 85.1957 147.11 85.3835 148.668 85.0959C150.226 84.8084 151.661 84.0589 152.783 82.9458C155.191 80.5367 158.054 78.6259 161.208 77.3234C164.361 76.0209 167.743 75.3525 171.157 75.3569Z" fill="#E6E6E6"/>
<path d="M157.823 67.5368C162.557 67.5368 166.395 63.7173 166.395 59.0058C166.395 54.2943 162.557 50.4749 157.823 50.4749C153.089 50.4749 149.251 54.2943 149.251 59.0058C149.251 63.7173 153.089 67.5368 157.823 67.5368Z" fill="#F9A825"/>
<path d="M139.194 58.0465C139.751 58.0465 140.203 57.5965 140.203 57.0415C140.203 56.4864 139.751 56.0365 139.194 56.0365C138.636 56.0365 138.184 56.4864 138.184 57.0415C138.184 57.5965 138.636 58.0465 139.194 58.0465Z" fill="#3F3D56"/>
<path d="M105.859 58.9943C106.417 58.9943 106.869 58.5444 106.869 57.9894C106.869 57.4343 106.417 56.9844 105.859 56.9844C105.301 56.9844 104.849 57.4343 104.849 57.9894C104.849 58.5444 105.301 58.9943 105.859 58.9943Z" fill="#3F3D56"/>
<path d="M144.575 47.6312C145.133 47.6312 145.585 47.1812 145.585 46.6262C145.585 46.0712 145.133 45.6212 144.575 45.6212C144.018 45.6212 143.566 46.0712 143.566 46.6262C143.566 47.1812 144.018 47.6312 144.575 47.6312Z" fill="#3F3D56"/>
<path d="M144.547 76.5988C145.104 76.5988 145.556 76.1489 145.556 75.5939C145.556 75.0388 145.104 74.5889 144.547 74.5889C143.989 74.5889 143.537 75.0388 143.537 75.5939C143.537 76.1489 143.989 76.5988 144.547 76.5988Z" fill="#3F3D56"/>
<path d="M164.548 45.5556C165.105 45.5556 165.557 45.1057 165.557 44.5506C165.557 43.9956 165.105 43.5457 164.548 43.5457C163.99 43.5457 163.538 43.9956 163.538 44.5506C163.538 45.1057 163.99 45.5556 164.548 45.5556Z" fill="#3F3D56"/>
<path d="M99.3067 73.0443C99.8644 73.0443 100.316 72.5943 100.316 72.0393C100.316 71.4843 99.8644 71.0343 99.3067 71.0343C98.749 71.0343 98.2969 71.4843 98.2969 72.0393C98.2969 72.5943 98.749 73.0443 99.3067 73.0443Z" fill="#3F3D56"/>
<path d="M106.688 87.4995C107.246 87.4995 107.698 87.0495 107.698 86.4945C107.698 85.9395 107.246 85.4895 106.688 85.4895C106.13 85.4895 105.678 85.9395 105.678 86.4945C105.678 87.0495 106.13 87.4995 106.688 87.4995Z" fill="#3F3D56"/>
<path d="M153.061 92.1818C155.165 92.1818 156.871 90.4843 156.871 88.3903C156.871 86.2963 155.165 84.5988 153.061 84.5988C150.957 84.5988 149.251 86.2963 149.251 88.3903C149.251 90.4843 150.957 92.1818 153.061 92.1818Z" fill="#FF6584"/>
<path opacity="0.2" d="M155.918 88.6272C155.918 89.3814 155.617 90.1047 155.082 90.638C154.546 91.1713 153.819 91.4709 153.061 91.4709C152.303 91.4709 151.577 91.1713 151.041 90.638C150.505 90.1047 150.204 89.3814 150.204 88.6272" fill="black"/>
<path opacity="0.2" d="M150.204 88.1534C150.204 87.3992 150.505 86.6759 151.041 86.1426C151.577 85.6093 152.303 85.3097 153.061 85.3097C153.819 85.3097 154.546 85.6093 155.082 86.1426C155.617 86.6759 155.918 87.3992 155.918 88.1534" fill="black"/>
<path d="M151.632 87.4424C151.764 87.4424 151.871 87.2832 151.871 87.0869C151.871 86.8906 151.764 86.7314 151.632 86.7314C151.501 86.7314 151.394 86.8906 151.394 87.0869C151.394 87.2832 151.501 87.4424 151.632 87.4424Z" fill="#FF6584"/>
<path d="M153.061 86.9685C153.193 86.9685 153.299 86.8093 153.299 86.613C153.299 86.4167 153.193 86.2576 153.061 86.2576C152.93 86.2576 152.823 86.4167 152.823 86.613C152.823 86.8093 152.93 86.9685 153.061 86.9685Z" fill="#FF6584"/>
<path d="M153.061 90.0491C153.193 90.0491 153.299 89.8899 153.299 89.6936C153.299 89.4973 153.193 89.3381 153.061 89.3381C152.93 89.3381 152.823 89.4973 152.823 89.6936C152.823 89.8899 152.93 90.0491 153.061 90.0491Z" fill="#FF6584"/>
<path d="M154.49 88.1533C154.621 88.1533 154.728 87.9942 154.728 87.7978C154.728 87.6015 154.621 87.4424 154.49 87.4424C154.358 87.4424 154.252 87.6015 154.252 87.7978C154.252 87.9942 154.358 88.1533 154.49 88.1533Z" fill="#FF6584"/>
<path d="M154.252 90.76C154.383 90.76 154.49 90.6009 154.49 90.4045C154.49 90.2082 154.383 90.0491 154.252 90.0491C154.12 90.0491 154.014 90.2082 154.014 90.4045C154.014 90.6009 154.12 90.76 154.252 90.76Z" fill="#FF6584"/>
<path d="M151.394 89.5752C151.526 89.5752 151.632 89.416 151.632 89.2197C151.632 89.0234 151.526 88.8643 151.394 88.8643C151.263 88.8643 151.156 89.0234 151.156 89.2197C151.156 89.416 151.263 89.5752 151.394 89.5752Z" fill="#FF6584"/>
<path d="M160.68 81.992C162.785 81.992 164.49 80.2945 164.49 78.2005C164.49 76.1065 162.785 74.4089 160.68 74.4089C158.576 74.4089 156.871 76.1065 156.871 78.2005C156.871 80.2945 158.576 81.992 160.68 81.992Z" fill="#FF6584"/>
<path opacity="0.2" d="M163.538 78.4375C163.538 79.1917 163.237 79.915 162.701 80.4483C162.165 80.9816 161.438 81.2812 160.681 81.2812C159.923 81.2812 159.196 80.9816 158.66 80.4483C158.124 79.915 157.823 79.1917 157.823 78.4375" fill="black"/>
<path opacity="0.2" d="M157.823 77.9635C157.823 77.2093 158.124 76.486 158.66 75.9528C159.196 75.4195 159.923 75.1199 160.681 75.1199C161.438 75.1199 162.165 75.4195 162.701 75.9528C163.237 76.486 163.538 77.2093 163.538 77.9635" fill="black"/>
<path d="M159.252 77.2527C159.383 77.2527 159.49 77.0935 159.49 76.8972C159.49 76.7009 159.383 76.5417 159.252 76.5417C159.12 76.5417 159.014 76.7009 159.014 76.8972C159.014 77.0935 159.12 77.2527 159.252 77.2527Z" fill="#FF6584"/>
<path d="M160.68 76.7787C160.812 76.7787 160.919 76.6195 160.919 76.4232C160.919 76.2269 160.812 76.0677 160.68 76.0677C160.549 76.0677 160.442 76.2269 160.442 76.4232C160.442 76.6195 160.549 76.7787 160.68 76.7787Z" fill="#FF6584"/>
<path d="M160.68 79.8594C160.812 79.8594 160.919 79.7002 160.919 79.5039C160.919 79.3076 160.812 79.1484 160.68 79.1484C160.549 79.1484 160.442 79.3076 160.442 79.5039C160.442 79.7002 160.549 79.8594 160.68 79.8594Z" fill="#FF6584"/>
<path d="M162.109 77.9636C162.241 77.9636 162.347 77.8045 162.347 77.6081C162.347 77.4118 162.241 77.2527 162.109 77.2527C161.978 77.2527 161.871 77.4118 161.871 77.6081C161.871 77.8045 161.978 77.9636 162.109 77.9636Z" fill="#FF6584"/>
<path d="M161.871 80.5702C162.003 80.5702 162.109 80.411 162.109 80.2147C162.109 80.0184 162.003 79.8593 161.871 79.8593C161.74 79.8593 161.633 80.0184 161.633 80.2147C161.633 80.411 161.74 80.5702 161.871 80.5702Z" fill="#FF6584"/>
<path d="M159.014 79.3854C159.145 79.3854 159.252 79.2262 159.252 79.0299C159.252 78.8336 159.145 78.6744 159.014 78.6744C158.882 78.6744 158.776 78.8336 158.776 79.0299C158.776 79.2262 158.882 79.3854 159.014 79.3854Z" fill="#FF6584"/>
<path d="M168.3 87.2054C170.404 87.2054 172.11 85.5079 172.11 83.4139C172.11 81.3198 170.404 79.6223 168.3 79.6223C166.196 79.6223 164.49 81.3198 164.49 83.4139C164.49 85.5079 166.196 87.2054 168.3 87.2054Z" fill="#FFC107"/>
<path opacity="0.2" d="M171.157 83.6509C171.157 84.4051 170.856 85.1284 170.32 85.6617C169.784 86.1949 169.058 86.4945 168.3 86.4945C167.542 86.4945 166.815 86.1949 166.279 85.6617C165.744 85.1284 165.443 84.4051 165.443 83.6509" fill="black"/>
<path opacity="0.2" d="M165.443 83.1769C165.443 82.4227 165.744 81.6994 166.279 81.1661C166.815 80.6329 167.542 80.3333 168.3 80.3333C169.058 80.3333 169.784 80.6329 170.32 81.1661C170.856 81.6994 171.157 82.4227 171.157 83.1769" fill="black"/>
<path d="M166.871 82.466C167.003 82.466 167.109 82.3069 167.109 82.1106C167.109 81.9143 167.003 81.7551 166.871 81.7551C166.74 81.7551 166.633 81.9143 166.633 82.1106C166.633 82.3069 166.74 82.466 166.871 82.466Z" fill="#FFC107"/>
<path d="M168.3 81.992C168.431 81.992 168.538 81.8329 168.538 81.6366C168.538 81.4403 168.431 81.2811 168.3 81.2811C168.168 81.2811 168.062 81.4403 168.062 81.6366C168.062 81.8329 168.168 81.992 168.3 81.992Z" fill="#FFC107"/>
<path d="M168.3 85.0726C168.431 85.0726 168.538 84.9135 168.538 84.7172C168.538 84.5208 168.431 84.3617 168.3 84.3617C168.168 84.3617 168.062 84.5208 168.062 84.7172C168.062 84.9135 168.168 85.0726 168.3 85.0726Z" fill="#FFC107"/>
<path d="M169.728 83.1769C169.86 83.1769 169.967 83.0177 169.967 82.8214C169.967 82.6251 169.86 82.4659 169.728 82.4659C169.597 82.4659 169.49 82.6251 169.49 82.8214C169.49 83.0177 169.597 83.1769 169.728 83.1769Z" fill="#FFC107"/>
<path d="M169.49 85.7835C169.622 85.7835 169.729 85.6244 169.729 85.4281C169.729 85.2318 169.622 85.0726 169.49 85.0726C169.359 85.0726 169.252 85.2318 169.252 85.4281C169.252 85.6244 169.359 85.7835 169.49 85.7835Z" fill="#FFC107"/>
<path d="M166.633 84.5987C166.765 84.5987 166.871 84.4396 166.871 84.2433C166.871 84.047 166.765 83.8878 166.633 83.8878C166.502 83.8878 166.395 84.047 166.395 84.2433C166.395 84.4396 166.502 84.5987 166.633 84.5987Z" fill="#FFC107"/>
<path d="M149.251 87.6794C151.355 87.6794 153.061 85.9819 153.061 83.8879C153.061 81.7938 151.355 80.0963 149.251 80.0963C147.147 80.0963 145.442 81.7938 145.442 83.8879C145.442 85.9819 147.147 87.6794 149.251 87.6794Z" fill="#FFC107"/>
<path opacity="0.2" d="M152.109 84.1248C152.109 84.8789 151.808 85.6022 151.272 86.1355C150.736 86.6688 150.009 86.9684 149.251 86.9684C148.494 86.9684 147.767 86.6688 147.231 86.1355C146.695 85.6022 146.394 84.8789 146.394 84.1248" fill="black"/>
<path opacity="0.2" d="M146.394 83.6509C146.394 82.8967 146.695 82.1734 147.231 81.6401C147.767 81.1068 148.494 80.8073 149.251 80.8073C150.009 80.8073 150.736 81.1068 151.272 81.6401C151.808 82.1734 152.109 82.8967 152.109 83.6509" fill="black"/>
<path d="M147.823 82.9399C147.954 82.9399 148.061 82.7808 148.061 82.5845C148.061 82.3881 147.954 82.229 147.823 82.229C147.691 82.229 147.585 82.3881 147.585 82.5845C147.585 82.7808 147.691 82.9399 147.823 82.9399Z" fill="#FFC107"/>
<path d="M149.251 82.466C149.383 82.466 149.49 82.3069 149.49 82.1106C149.49 81.9143 149.383 81.7551 149.251 81.7551C149.12 81.7551 149.013 81.9143 149.013 82.1106C149.013 82.3069 149.12 82.466 149.251 82.466Z" fill="#FFC107"/>
<path d="M149.251 85.5466C149.383 85.5466 149.49 85.3875 149.49 85.1912C149.49 84.9948 149.383 84.8357 149.251 84.8357C149.12 84.8357 149.013 84.9948 149.013 85.1912C149.013 85.3875 149.12 85.5466 149.251 85.5466Z" fill="#FFC107"/>
<path d="M150.68 83.6509C150.812 83.6509 150.918 83.4917 150.918 83.2954C150.918 83.0991 150.812 82.9399 150.68 82.9399C150.549 82.9399 150.442 83.0991 150.442 83.2954C150.442 83.4917 150.549 83.6509 150.68 83.6509Z" fill="#FFC107"/>
<path d="M150.442 86.2575C150.573 86.2575 150.68 86.0984 150.68 85.9021C150.68 85.7058 150.573 85.5466 150.442 85.5466C150.31 85.5466 150.204 85.7058 150.204 85.9021C150.204 86.0984 150.31 86.2575 150.442 86.2575Z" fill="#FFC107"/>
<path d="M147.585 85.0726C147.716 85.0726 147.823 84.9135 147.823 84.7172C147.823 84.5208 147.716 84.3617 147.585 84.3617C147.453 84.3617 147.347 84.5208 147.347 84.7172C147.347 84.9135 147.453 85.0726 147.585 85.0726Z" fill="#FFC107"/>
<path d="M157.823 89.3382C159.927 89.3382 161.633 87.6407 161.633 85.5467C161.633 83.4527 159.927 81.7551 157.823 81.7551C155.719 81.7551 154.014 83.4527 154.014 85.5467C154.014 87.6407 155.719 89.3382 157.823 89.3382Z" fill="#FFC107"/>
<path opacity="0.2" d="M160.68 85.7836C160.68 86.157 160.607 86.5268 160.463 86.8718C160.319 87.2168 160.109 87.5303 159.844 87.7943C159.578 88.0584 159.263 88.2678 158.917 88.4108C158.57 88.5537 158.198 88.6272 157.823 88.6272C157.448 88.6272 157.076 88.5537 156.73 88.4108C156.383 88.2678 156.068 88.0584 155.803 87.7943C155.537 87.5303 155.327 87.2168 155.183 86.8718C155.04 86.5268 154.966 86.157 154.966 85.7836" fill="black"/>
<path opacity="0.2" d="M154.966 85.3096C154.966 84.9362 155.04 84.5664 155.183 84.2214C155.327 83.8764 155.537 83.5629 155.803 83.2988C156.068 83.0348 156.383 82.8253 156.73 82.6824C157.076 82.5395 157.448 82.4659 157.823 82.4659C158.198 82.4659 158.57 82.5395 158.917 82.6824C159.263 82.8253 159.578 83.0348 159.844 83.2988C160.109 83.5629 160.319 83.8764 160.463 84.2214C160.607 84.5664 160.68 84.9362 160.68 85.3096" fill="black"/>
<path d="M156.395 84.5987C156.526 84.5987 156.633 84.4396 156.633 84.2433C156.633 84.047 156.526 83.8878 156.395 83.8878C156.263 83.8878 156.156 84.047 156.156 84.2433C156.156 84.4396 156.263 84.5987 156.395 84.5987Z" fill="#FFC107"/>
<path d="M157.823 84.1247C157.955 84.1247 158.061 83.9656 158.061 83.7693C158.061 83.573 157.955 83.4138 157.823 83.4138C157.692 83.4138 157.585 83.573 157.585 83.7693C157.585 83.9656 157.692 84.1247 157.823 84.1247Z" fill="#FFC107"/>
<path d="M157.823 87.2054C157.955 87.2054 158.061 87.0463 158.061 86.85C158.061 86.6536 157.955 86.4945 157.823 86.4945C157.692 86.4945 157.585 86.6536 157.585 86.85C157.585 87.0463 157.692 87.2054 157.823 87.2054Z" fill="#FFC107"/>
<path d="M159.252 85.3097C159.383 85.3097 159.49 85.1505 159.49 84.9542C159.49 84.7579 159.383 84.5988 159.252 84.5988C159.12 84.5988 159.014 84.7579 159.014 84.9542C159.014 85.1505 159.12 85.3097 159.252 85.3097Z" fill="#FFC107"/>
<path d="M159.014 87.9164C159.145 87.9164 159.252 87.7572 159.252 87.5609C159.252 87.3646 159.145 87.2054 159.014 87.2054C158.882 87.2054 158.776 87.3646 158.776 87.5609C158.776 87.7572 158.882 87.9164 159.014 87.9164Z" fill="#FFC107"/>
<path d="M156.156 86.7314C156.288 86.7314 156.395 86.5723 156.395 86.376C156.395 86.1797 156.288 86.0205 156.156 86.0205C156.025 86.0205 155.918 86.1797 155.918 86.376C155.918 86.5723 156.025 86.7314 156.156 86.7314Z" fill="#FFC107"/>
<path d="M163.776 93.3667C165.88 93.3667 167.586 91.6691 167.586 89.5751C167.586 87.4811 165.88 85.7836 163.776 85.7836C161.672 85.7836 159.966 87.4811 159.966 89.5751C159.966 91.6691 161.672 93.3667 163.776 93.3667Z" fill="#FF6584"/>
<path opacity="0.2" d="M166.633 89.8121C166.633 90.5663 166.332 91.2896 165.796 91.8229C165.26 92.3562 164.534 92.6558 163.776 92.6558C163.018 92.6558 162.291 92.3562 161.755 91.8229C161.22 91.2896 160.919 90.5663 160.919 89.8121" fill="black"/>
<path opacity="0.2" d="M160.919 89.3382C160.919 88.584 161.22 87.8607 161.755 87.3274C162.291 86.7941 163.018 86.4945 163.776 86.4945C164.534 86.4945 165.26 86.7941 165.796 87.3274C166.332 87.8607 166.633 88.584 166.633 89.3382" fill="black"/>
<path d="M162.347 88.6272C162.479 88.6272 162.585 88.468 162.585 88.2717C162.585 88.0754 162.479 87.9163 162.347 87.9163C162.216 87.9163 162.109 88.0754 162.109 88.2717C162.109 88.468 162.216 88.6272 162.347 88.6272Z" fill="#FF6584"/>
<path d="M163.776 88.1533C163.907 88.1533 164.014 87.9942 164.014 87.7978C164.014 87.6015 163.907 87.4424 163.776 87.4424C163.644 87.4424 163.538 87.6015 163.538 87.7978C163.538 87.9942 163.644 88.1533 163.776 88.1533Z" fill="#FF6584"/>
<path d="M163.776 91.2339C163.907 91.2339 164.014 91.0747 164.014 90.8784C164.014 90.6821 163.907 90.5229 163.776 90.5229C163.644 90.5229 163.538 90.6821 163.538 90.8784C163.538 91.0747 163.644 91.2339 163.776 91.2339Z" fill="#FF6584"/>
<path d="M165.204 89.3381C165.336 89.3381 165.443 89.179 165.443 88.9827C165.443 88.7863 165.336 88.6272 165.204 88.6272C165.073 88.6272 164.966 88.7863 164.966 88.9827C164.966 89.179 165.073 89.3381 165.204 89.3381Z" fill="#FF6584"/>
<path d="M164.966 91.9448C165.098 91.9448 165.204 91.7857 165.204 91.5894C165.204 91.393 165.098 91.2339 164.966 91.2339C164.835 91.2339 164.728 91.393 164.728 91.5894C164.728 91.7857 164.835 91.9448 164.966 91.9448Z" fill="#FF6584"/>
<path d="M162.109 90.76C162.241 90.76 162.347 90.6009 162.347 90.4045C162.347 90.2082 162.241 90.0491 162.109 90.0491C161.978 90.0491 161.871 90.2082 161.871 90.4045C161.871 90.6009 161.978 90.76 162.109 90.76Z" fill="#FF6584"/>
<path d="M114.784 76.1248C115.341 76.1248 115.793 75.6749 115.793 75.1199C115.793 74.5648 115.341 74.1149 114.784 74.1149C114.226 74.1149 113.774 74.5648 113.774 75.1199C113.774 75.6749 114.226 76.1248 114.784 76.1248Z" fill="#3F3D56"/>
<path d="M142.232 111.599L117.98 104.905L118.909 101.471L143.161 108.164L142.232 111.599Z" fill="#F9A825"/>
<path d="M138.676 110.451C130.372 112.033 121.84 112.033 113.536 110.451V106.891C121.859 108.264 130.353 108.264 138.676 106.891V110.451Z" fill="#F9A825"/>
<path d="M141.261 99.7704C132.956 101.353 124.425 101.353 116.12 99.7704V96.2103C124.444 97.5833 132.938 97.5833 141.261 96.2103V99.7704Z" fill="#F9A825"/>
<path d="M149.955 104.043C141.65 105.625 133.119 105.625 124.814 104.043V100.482C133.137 101.855 141.631 101.855 149.955 100.482V104.043Z" fill="#F9A825"/>
<path d="M152.069 108.077C143.764 109.66 135.233 109.66 126.928 108.077V104.517C135.252 105.89 143.746 105.89 152.069 104.517V108.077Z" fill="#F9A825"/>
<path d="M159.442 113.349L134.638 117.496L134.063 113.984L158.866 109.837L159.442 113.349Z" fill="#F9A825"/>
<path d="M155.737 113.806C148.86 118.739 141.11 122.337 132.892 124.41L131.421 121.175C139.566 118.905 147.283 115.323 154.265 110.571L155.737 113.806Z" fill="#F9A825"/>
<path d="M153.67 103.011C146.794 107.945 139.043 111.542 130.826 113.615L129.354 110.38C137.5 108.11 145.217 104.528 152.199 99.7762L153.67 103.011Z" fill="#F9A825"/>
<path d="M163.336 103.226C156.459 108.16 148.709 111.757 140.491 113.83L139.02 110.595C147.165 108.325 154.882 104.743 161.864 99.9913L163.336 103.226Z" fill="#F9A825"/>
<path d="M166.925 106.001C160.048 110.934 152.298 114.532 144.081 116.604L142.609 113.37C150.755 111.1 158.471 107.518 165.454 102.766L166.925 106.001Z" fill="#F9A825"/>
<path d="M136.87 99.054H135.679V100.239H136.87V99.054Z" fill="#00BF71"/>
<path d="M140.442 119.67H139.251V120.855H140.442V119.67Z" fill="#00BF71"/>
<path d="M121.393 99.054H120.203V100.239H121.393V99.054Z" fill="#00BF71"/>
<path d="M149.013 113.746H147.823V114.931H149.013V113.746Z" fill="#00BF71"/>
<path d="M149.728 106.874H148.537V108.059H149.728V106.874Z" fill="#00BF71"/>
<path d="M130.088 103.63L128.709 102.699L128.174 103.483L129.554 104.414L130.088 103.63Z" fill="#00BF71"/>
<path d="M144.137 106.237L142.757 105.305L142.223 106.09L143.602 107.021L144.137 106.237Z" fill="#00BF71"/>
<path d="M126.993 110.739L125.614 109.808L125.079 110.592L126.458 111.523L126.993 110.739Z" fill="#00BF71"/>
<path d="M135.725 110.67L136.66 109.297L135.872 108.765L134.936 110.138L135.725 110.67Z" fill="#00BF71"/>
<path d="M142.153 112.329L143.089 110.956L142.301 110.424L141.365 111.797L142.153 112.329Z" fill="#00BF71"/>
<path d="M159.299 106.641L160.234 105.269L159.446 104.736L158.511 106.109L159.299 106.641Z" fill="#00BF71"/>
<path d="M272 147.317H0V148H272V147.317Z" fill="#3F3D56"/>
</g>
<defs>
<clipPath id="clip0_123_4570">
<rect width="272" height="148" fill="white"/>
</clipPath>
</defs>
</svg>
