<svg width="32" height="32" viewBox="0 0 32 32" fill="none" xmlns="http://www.w3.org/2000/svg">
<path d="M3.33325 16C3.33325 10.0289 3.33325 7.04336 5.18824 5.18836C7.04324 3.33337 10.0288 3.33337 15.9999 3.33337C21.971 3.33337 24.9566 3.33337 26.8117 5.18836C28.6666 7.04336 28.6666 10.0289 28.6666 16C28.6666 21.9711 28.6666 24.9567 26.8117 26.8118C24.9566 28.6667 21.971 28.6667 15.9999 28.6667C10.0288 28.6667 7.04324 28.6667 5.18824 26.8118C3.33325 24.9567 3.33325 21.9711 3.33325 16Z" stroke="#FF8A65" stroke-width="1.5" stroke-linejoin="round"/>
<path d="M22.6666 11.6666C23.2189 11.6666 23.6666 11.2189 23.6666 10.6666C23.6666 10.1143 23.2189 9.66663 22.6666 9.66663V11.6666ZM14.9999 28.6666C14.9999 29.2189 15.4477 29.6666 15.9999 29.6666C16.5522 29.6666 16.9999 29.2189 16.9999 28.6666H14.9999ZM13.3333 17.6666C12.781 17.6666 12.3333 18.1144 12.3333 18.6666C12.3333 19.2189 12.781 19.6666 13.3333 19.6666V17.6666ZM19.9999 19.6666C20.5522 19.6666 20.9999 19.2189 20.9999 18.6666C20.9999 18.1144 20.5522 17.6666 19.9999 17.6666V19.6666ZM22.6666 9.66663H21.3333V11.6666H22.6666V9.66663ZM14.9999 16V28.6666H16.9999V16H14.9999ZM21.3333 9.66663C20.1045 9.66663 19.0822 9.66451 18.2739 9.77318C17.4369 9.88572 16.6811 10.1333 16.0739 10.7406L17.4881 12.1548C17.6618 11.981 17.9251 11.8381 18.5405 11.7553C19.1845 11.6687 20.0479 11.6666 21.3333 11.6666V9.66663ZM16.9999 16C16.9999 14.7146 17.0021 13.8512 17.0886 13.2071C17.1714 12.5919 17.3143 12.3285 17.4881 12.1548L16.0739 10.7406C15.4666 11.3479 15.219 12.1036 15.1065 12.9407C14.9978 13.7489 14.9999 14.7712 14.9999 16H16.9999ZM13.3333 19.6666H19.9999V17.6666H13.3333V19.6666Z" fill="#FF8A65"/>
</svg>
