<svg width="20" height="20" viewBox="0 0 20 20" fill="none" xmlns="http://www.w3.org/2000/svg">
<path d="M1.66675 5L7.4276 8.26414C9.55141 9.4675 10.4487 9.4675 12.5726 8.26414L18.3334 5" stroke="#1E1E1E" stroke-width="1.5" stroke-linejoin="round"/>
<path d="M1.67989 11.2297C1.73436 13.7844 1.76161 15.0617 2.70421 16.0079C3.64681 16.9541 4.95869 16.987 7.58244 17.0529C9.1995 17.0936 10.8007 17.0936 12.4177 17.0529C15.0415 16.987 16.3533 16.9541 17.296 16.0079C18.2386 15.0617 18.2658 13.7844 18.3202 11.2297C18.3378 10.4083 18.3378 9.59183 18.3202 8.77042C18.2658 6.2158 18.2386 4.93849 17.296 3.9923C16.3533 3.04611 15.0415 3.01315 12.4177 2.94722C10.8007 2.90659 9.1995 2.90659 7.58243 2.94722C4.95869 3.01313 3.64681 3.04609 2.70421 3.99229C1.7616 4.93848 1.73436 6.21579 1.67988 8.77042C1.66236 9.59183 1.66237 10.4083 1.67989 11.2297Z" stroke="#1E1E1E" stroke-width="1.5" stroke-linejoin="round"/>
</svg>
