<svg width="272" height="113" viewBox="0 0 272 113" fill="none" xmlns="http://www.w3.org/2000/svg">
<g style="mix-blend-mode:luminosity" clip-path="url(#clip0_123_4469)">
<path d="M204.963 48.5994V27.5571C204.963 25.459 206.683 23.7522 208.798 23.7522H222.673C224.788 23.7522 226.508 25.459 226.508 27.5571V48.5994C226.508 50.6975 224.788 52.4043 222.673 52.4043H208.798C206.683 52.4043 204.963 50.6975 204.963 48.5994Z" fill="#FFC107"/>
<path d="M212.068 32.8481H219.403V31.029H212.068V32.8481Z" fill="#3F3D56"/>
<path d="M213.902 29.6646H217.569V23.7522H213.902V29.6646Z" fill="#3F3D56"/>
<path d="M213.902 52.4043H217.569V46.492H213.902V52.4043Z" fill="#3F3D56"/>
<path d="M195.107 49.4498H173.898C171.783 49.4498 170.063 47.743 170.063 45.6449V31.8794C170.063 29.7813 171.783 28.0745 173.898 28.0745H195.107C197.222 28.0745 198.942 29.7813 198.942 31.8794V45.6449C198.942 47.743 197.222 49.4498 195.107 49.4498Z" fill="#FFC107"/>
<path d="M188.628 31.0306H181.293V32.8498H188.628V31.0306Z" fill="#3F3D56"/>
<path d="M176.022 40.5814V36.943H170.062V40.5814H176.022Z" fill="#3F3D56"/>
<path d="M198.942 40.5814V36.943H192.983V40.5814H198.942Z" fill="#3F3D56"/>
<path d="M23.0606 88.7982L19.5199 68.3068C17.9466 59.2015 24.7394 50.7756 34.0385 50.2978L84.5144 47.7041L96.5611 28.0058C98.1581 25.3944 101.014 23.7997 104.092 23.7997H140.361C143.212 23.7997 145.62 25.8971 145.99 28.7016L146.911 44.4633L237.332 44.7318L248.707 81.9227L238.149 81.412L238.69 92.6927L224.884 93.2299L220.281 80.3183C219.414 77.887 215.617 75.1457 211.669 72.8521C202.82 67.7104 191.451 69.3607 184.755 77.0661C183.175 78.8838 182.07 80.7778 181.762 82.5537L179.673 94.5728L78.4232 92.9613L65.1534 74.5452C61.233 70.3124 42.7259 68.7577 41.0592 74.5452L31.0469 89.201L23.0606 88.7982Z" fill="#E6E6E6"/>
<path d="M133.108 35.7857L136.087 49.7184L98.1859 50.5242L106.191 33.4728C106.917 31.9259 108.511 30.9655 110.229 31.0396L128.391 31.8231C130.69 31.9222 132.631 33.5522 133.108 35.7857Z" fill="white"/>
<path d="M93.0422 49.4499L100.622 30.1115L98.6378 28.1426L86.2741 46.764L88.7863 50.5243L93.0422 49.4499Z" fill="white"/>
<path d="M201.602 112.3C211.47 112.3 219.469 104.363 219.469 94.5728C219.469 84.7825 211.47 76.8459 201.602 76.8459C191.734 76.8459 183.734 84.7825 183.734 94.5728C183.734 104.363 191.734 112.3 201.602 112.3Z" fill="#3F3D56"/>
<path d="M189.284 94.5728C189.284 87.8342 194.809 82.3521 201.602 82.3521C208.394 82.3521 213.919 87.8342 213.919 94.5728C213.919 101.311 208.394 106.794 201.602 106.794C194.809 106.794 189.284 101.311 189.284 94.5728ZM189.554 94.5728C189.554 101.163 194.959 106.525 201.602 106.525C208.244 106.525 213.649 101.163 213.649 94.5728C213.649 87.9824 208.244 82.6206 201.602 82.6206C194.959 82.6206 189.554 87.9824 189.554 94.5728Z" fill="white"/>
<path d="M191.043 94.5727C191.043 100.358 195.77 105.048 201.602 105.048C207.433 105.048 212.16 100.358 212.16 94.5727C212.16 88.7876 207.433 84.0978 201.602 84.0978C195.77 84.0978 191.043 88.7876 191.043 94.5727ZM208.465 92.0644L206.594 93.274L205.875 92.1799L208.465 92.0644ZM205.617 98.2163L206.115 97.0075L207.684 99.0547L205.617 98.2163ZM200.827 102.362L202.143 100.146V102.362H200.827ZM200.827 89.5362L202.143 87.3208V89.5362H200.827ZM194.978 99.0547L196.547 97.0075L197.045 98.2163L194.978 99.0547ZM194.197 92.0644L196.786 92.1799L196.068 93.274L194.197 92.0644Z" fill="#E6E6E6"/>
<path d="M51.6218 112.3C61.4898 112.3 69.4894 104.363 69.4894 94.5728C69.4894 84.7825 61.4898 76.8459 51.6218 76.8459C41.7537 76.8459 33.7541 84.7825 33.7541 94.5728C33.7541 104.363 41.7537 112.3 51.6218 112.3Z" fill="#3F3D56"/>
<path d="M39.3039 94.5728C39.3039 87.8342 44.8297 82.3521 51.6218 82.3521C58.4139 82.3521 63.9396 87.8342 63.9396 94.5728C63.9396 101.311 58.4139 106.794 51.6218 106.794C44.8297 106.794 39.3039 101.311 39.3039 94.5728ZM39.5746 94.5728C39.5746 101.163 44.9789 106.525 51.6218 106.525C58.2646 106.525 63.6689 101.163 63.6689 94.5728C63.6689 87.9824 58.2646 82.6206 51.6218 82.6206C44.9789 82.6206 39.5746 87.9824 39.5746 94.5728Z" fill="white"/>
<path d="M41.0636 94.5727C41.0636 100.358 45.7907 105.048 51.6218 105.048C57.4529 105.048 62.1799 100.358 62.1799 94.5727C62.1799 88.7876 57.4529 84.0978 51.6218 84.0978C45.7907 84.0978 41.0636 88.7876 41.0636 94.5727ZM58.4849 92.0644L56.6142 93.274L55.8955 92.1799L58.4849 92.0644ZM55.637 98.2163L56.1352 97.0075L57.7038 99.0547L55.637 98.2163ZM50.8469 102.362L52.1632 100.146V102.362H50.8469ZM50.8469 89.5362L52.1632 87.3208V89.5362H50.8469ZM44.9983 99.0547L46.5669 97.0075L47.0651 98.2163L44.9983 99.0547ZM44.2172 92.0644L46.8066 92.1799L46.0879 93.274L44.2172 92.0644Z" fill="#E6E6E6"/>
<path d="M126.206 56.8361H136.493V54.6873H126.206V56.8361Z" fill="#3F3D56"/>
<path d="M271.206 99.0164C271.11 98.7253 270.383 98.8535 270.313 98.5931C270.244 98.3337 270.941 98.1161 271.476 97.385C271.572 97.2531 272.18 96.4223 271.947 96.0728C271.505 95.4104 268.431 97.0602 267.693 96.1344C267.531 95.9312 267.464 95.5824 266.982 94.9333C266.79 94.675 266.667 94.5503 266.52 94.554C266.311 94.5593 266.236 94.8184 265.908 95.2877C265.416 95.9916 265.239 95.9032 264.914 96.48C264.674 96.9081 264.645 97.1817 264.472 97.1978C264.226 97.2206 264.125 96.6876 263.825 96.6669C263.518 96.6458 263.212 97.1725 263.06 97.584C262.775 98.3562 262.952 98.9465 262.991 99.5347C263.033 100.174 262.933 101.11 262.233 102.311L255.63 112.749C257.048 110.621 261.074 104.818 262.696 102.69C263.164 102.076 263.667 101.459 264.441 101.343C265.187 101.231 266.094 101.597 267.36 101.575C267.508 101.573 267.92 101.561 268.02 101.344C268.103 101.166 267.897 101.01 267.972 100.842C268.072 100.616 268.523 100.713 269.138 100.563C269.572 100.458 269.866 100.283 270.12 100.133C270.196 100.088 271.333 99.404 271.206 99.0164Z" fill="#F2F2F2"/>
<path d="M253.91 101.454C253.739 101.416 253.592 101.807 253.443 101.766C253.295 101.725 253.389 101.323 253.181 100.851C253.144 100.766 252.908 100.23 252.668 100.243C252.213 100.267 252.142 102.24 251.471 102.332C251.324 102.353 251.132 102.284 250.672 102.332C250.489 102.351 250.391 102.375 250.351 102.448C250.293 102.551 250.4 102.662 250.537 102.957C250.743 103.4 250.649 103.461 250.84 103.785C250.983 104.026 251.11 104.119 251.068 104.208C251.008 104.334 250.715 104.23 250.618 104.37C250.52 104.513 250.692 104.814 250.851 105.007C251.151 105.368 251.494 105.453 251.796 105.603C252.125 105.767 252.559 106.086 252.951 106.773L256.21 113C255.566 111.696 253.857 108.061 253.272 106.657C253.103 106.252 252.943 105.829 253.109 105.418C253.269 105.023 253.712 104.687 254.067 104.064C254.108 103.992 254.221 103.788 254.143 103.676C254.078 103.585 253.942 103.64 253.88 103.555C253.798 103.441 253.976 103.249 254.079 102.907C254.152 102.665 254.15 102.471 254.149 102.305C254.149 102.254 254.139 101.503 253.91 101.454Z" fill="#F2F2F2"/>
<path d="M257.161 102.973L257.263 102.035L257.326 101.976C257.617 101.703 257.799 101.414 257.867 101.117C257.878 101.07 257.886 101.022 257.895 100.974C257.929 100.781 257.971 100.541 258.158 100.292C258.263 100.153 258.539 99.8395 258.825 99.9491C258.902 99.9777 258.954 100.027 258.99 100.08C258.999 100.071 259.008 100.062 259.018 100.052C259.141 99.9328 259.228 99.8893 259.311 99.8474C259.375 99.8151 259.441 99.7819 259.552 99.6934C259.601 99.6546 259.64 99.6196 259.673 99.5903C259.773 99.5016 259.901 99.3977 260.077 99.4388C260.263 99.4893 260.327 99.6653 260.369 99.7818C260.445 99.9897 260.468 100.133 260.483 100.227C260.489 100.262 260.495 100.301 260.5 100.314C260.541 100.416 261.052 100.442 261.244 100.453C261.676 100.476 262.05 100.496 262.14 100.79C262.205 101 262.07 101.229 261.729 101.489C261.623 101.57 261.516 101.626 261.424 101.667C261.481 101.721 261.526 101.793 261.529 101.892C261.535 102.127 261.293 102.306 260.809 102.428C260.689 102.458 260.527 102.498 260.315 102.488C260.216 102.483 260.128 102.468 260.054 102.454C260.043 102.496 260.023 102.54 259.986 102.581C259.878 102.704 259.704 102.735 259.468 102.666C259.207 102.594 259.002 102.496 258.82 102.41C258.661 102.335 258.524 102.27 258.409 102.253C258.196 102.223 257.997 102.354 257.758 102.528L257.161 102.973Z" fill="#F2F2F2"/>
<path d="M258.866 97.6293L257.925 97.7689L257.852 97.7236C257.512 97.5138 257.185 97.4126 256.878 97.4225C256.829 97.424 256.78 97.4281 256.73 97.4322C256.534 97.4485 256.289 97.4688 255.999 97.3526C255.837 97.2874 255.461 97.1014 255.496 96.7997C255.504 96.7185 255.539 96.656 255.581 96.608C255.57 96.6017 255.559 96.595 255.547 96.588C255.399 96.4998 255.335 96.4281 255.273 96.359C255.226 96.306 255.176 96.2511 255.062 96.1665C255.012 96.1294 254.968 96.1006 254.931 96.0764C254.819 96.0028 254.685 95.9062 254.681 95.7274C254.683 95.5361 254.838 95.4303 254.941 95.3601C255.124 95.2349 255.258 95.1763 255.346 95.1374C255.379 95.1233 255.415 95.1073 255.426 95.0994C255.515 95.0345 255.411 94.5374 255.373 94.3501C255.286 93.9294 255.211 93.5653 255.474 93.4045C255.663 93.2893 255.92 93.3603 256.26 93.6219C256.366 93.7035 256.448 93.7913 256.512 93.8696C256.549 93.8014 256.609 93.7394 256.704 93.7117C256.931 93.6463 257.168 93.8331 257.409 94.2667C257.469 94.3744 257.549 94.5194 257.593 94.7251C257.614 94.8219 257.621 94.9096 257.626 94.9846C257.67 94.9846 257.718 94.993 257.768 95.0177C257.914 95.09 257.989 95.2491 257.981 95.4931C257.977 95.7615 257.934 95.984 257.896 96.1802C257.863 96.3516 257.835 96.4992 257.847 96.6138C257.872 96.8263 258.051 96.9843 258.281 97.1688L258.866 97.6293Z" fill="#F2F2F2"/>
<path d="M258.992 94.8268L259.095 93.8886L259.158 93.8297C259.448 93.5572 259.63 93.2685 259.698 92.9713C259.709 92.9241 259.718 92.8763 259.726 92.8276C259.76 92.6347 259.802 92.395 259.989 92.1459C260.094 92.0071 260.371 91.6935 260.656 91.8031C260.733 91.8317 260.785 91.8812 260.821 91.9338C260.83 91.9247 260.84 91.9156 260.849 91.9057C260.973 91.7868 261.059 91.7433 261.142 91.7014C261.206 91.6691 261.272 91.6359 261.383 91.5474C261.432 91.5086 261.472 91.4736 261.505 91.4443C261.605 91.3556 261.733 91.2517 261.908 91.2928C262.094 91.3433 262.158 91.5193 262.2 91.6358C262.276 91.8437 262.299 91.9866 262.315 92.0814C262.32 92.1161 262.327 92.1551 262.331 92.1677C262.372 92.2695 262.883 92.2959 263.075 92.3069C263.508 92.3301 263.882 92.3503 263.972 92.6439C264.036 92.854 263.902 93.0831 263.56 93.343C263.454 93.4238 263.348 93.4796 263.255 93.5213C263.312 93.5747 263.357 93.6474 263.36 93.7464C263.366 93.9807 263.124 94.1604 262.64 94.2816C262.52 94.3121 262.358 94.3524 262.147 94.3422C262.047 94.3373 261.96 94.3222 261.885 94.308C261.874 94.3501 261.854 94.3938 261.817 94.4354C261.709 94.5577 261.536 94.5888 261.299 94.5198C261.039 94.4478 260.833 94.3498 260.651 94.2636C260.492 94.1886 260.356 94.1245 260.241 94.1069C260.027 94.0773 259.828 94.2081 259.59 94.3823L258.992 94.8268Z" fill="#F2F2F2"/>
<path d="M255.942 112.802L255.776 112.639L255.545 112.615C255.546 112.593 255.544 112.543 255.543 112.464C255.534 112.032 255.506 110.719 255.69 108.701C255.819 107.292 256.034 105.862 256.33 104.45C256.626 103.035 256.933 101.983 257.18 101.137C257.366 100.499 257.554 99.8939 257.737 99.3044C258.227 97.7296 258.689 96.242 258.976 94.5452C259.04 94.1664 259.173 93.378 258.9 92.4473C258.742 91.9076 258.472 91.3996 258.096 90.9378L258.46 90.6462C258.875 91.1565 259.174 91.7191 259.349 92.3184C259.651 93.3503 259.506 94.2094 259.437 94.6222C259.145 96.349 258.678 97.8509 258.184 99.4408C258.001 100.028 257.814 100.631 257.629 101.266C257.384 102.104 257.08 103.147 256.788 104.544C256.495 105.939 256.283 107.352 256.156 108.743C255.974 110.735 256.001 112.029 256.01 112.454C256.015 112.681 256.016 112.729 255.942 112.802Z" fill="#F2F2F2"/>
<path d="M257.098 91.4717C257.079 91.4676 257.06 91.4629 257.041 91.4574C256.657 91.3506 256.35 91.0403 256.126 90.5353C256.021 90.2978 255.997 90.0478 255.947 89.5493C255.94 89.4724 255.905 89.0835 255.947 88.5681C255.975 88.2313 256.011 88.096 256.104 87.9898C256.206 87.8715 256.344 87.8037 256.49 87.7697C256.494 87.7251 256.509 87.6815 256.538 87.6402C256.658 87.4687 256.86 87.5391 256.969 87.5758C257.024 87.5954 257.092 87.6203 257.169 87.6332C257.29 87.654 257.363 87.6328 257.472 87.6014C257.577 87.5712 257.707 87.5337 257.887 87.5369C258.242 87.5417 258.505 87.7001 258.592 87.7523C259.049 88.0245 259.207 88.4588 259.389 88.9618C259.425 89.0626 259.546 89.4269 259.574 89.8962C259.594 90.2347 259.549 90.3732 259.498 90.4723C259.393 90.676 259.233 90.7704 258.835 90.9691C258.419 91.1772 258.211 91.2814 258.039 91.335C257.641 91.4589 257.392 91.5368 257.098 91.4717Z" fill="#F2F2F2"/>
<path d="M0 112.399C0 112.576 0.250493 112.719 0.562427 112.719H269.056C269.368 112.719 269.619 112.576 269.619 112.399C269.619 112.222 269.368 112.079 269.056 112.079H0.562427C0.250493 112.079 0 112.222 0 112.399Z" fill="#CCCCCC"/>
<path d="M136.428 110.381L140.186 110.381L141.975 95.9962L136.427 95.9966L136.428 110.381Z" fill="#FFB6B6"/>
<path d="M149.306 110.296C149.423 110.492 149.485 111.123 149.485 111.351C149.485 112.05 148.914 112.616 148.209 112.616L136.568 112.616C136.088 112.616 135.698 112.23 135.698 111.753V111.272C135.698 111.272 135.122 109.827 136.308 108.046C136.308 108.046 137.781 109.44 139.983 107.256L140.632 106.089L145.332 109.499L147.937 109.817C148.507 109.887 149.013 109.807 149.306 110.296Z" fill="#2F2E41"/>
<path d="M119.539 110.381L123.298 110.381L125.086 95.9962L119.539 95.9966L119.539 110.381Z" fill="#FFB6B6"/>
<path d="M132.418 110.296C132.535 110.492 132.596 111.123 132.596 111.351C132.596 112.05 132.025 112.616 131.321 112.616L119.68 112.616C119.199 112.616 118.81 112.23 118.81 111.753V111.272C118.81 111.272 118.234 109.827 119.419 108.046C119.419 108.046 120.893 109.44 123.095 107.256L123.744 106.089L128.444 109.499L131.049 109.817C131.619 109.887 132.124 109.807 132.418 110.296Z" fill="#2F2E41"/>
<path d="M135.832 12.1606L136.546 18.7683L128.221 18.0603L129.648 11.9246L135.832 12.1606Z" fill="#FFB6B6"/>
<path opacity="0.1" d="M135.832 12.1606L136.546 18.7683L128.221 18.0603L129.648 11.9246L135.832 12.1606Z" fill="black"/>
<path d="M132.859 12.9865C135.88 12.9865 138.33 10.5564 138.33 7.55874C138.33 4.56107 135.88 2.13098 132.859 2.13098C129.838 2.13098 127.388 4.56107 127.388 7.55874C127.388 10.5564 129.838 12.9865 132.859 12.9865Z" fill="#FFB6B6"/>
<path d="M136.427 16.0544L145.585 21.3641L142.584 35.7595L144.633 55.1106L143.206 102.545L134.405 101.601L133.216 61.2464L126.318 103.017H117.771L119.182 57.9425L123.463 38.8274L120.847 18.0603L128.815 15.5824L136.427 16.0544Z" fill="#2F2E41"/>
<path d="M136.784 9.09263C136.784 9.09263 137.259 7.44071 138.33 7.5587C139.4 7.6767 139.638 6.73274 139.4 6.26076C139.162 5.78878 138.687 3.42889 138.687 3.42889C138.687 3.42889 138.925 1.77696 137.497 1.54097C136.07 1.30498 135.594 1.06899 135.357 0.597012C135.119 0.125032 131.551 -0.346946 130.361 0.361022C129.172 1.06899 128.221 2.42732 127.388 2.81011C126.556 3.1929 125.842 3.90087 126.318 5.08081C126.793 6.26076 127.483 8.56849 127.483 8.56849C127.483 8.56849 128.696 8.14868 128.934 8.85665C129.172 9.56462 128.221 8.62066 129.41 6.73274C130.599 4.84483 130.599 2.95691 132.502 3.66488C134.405 4.37285 136.546 4.13686 136.308 5.55279C136.07 6.96873 136.784 9.09263 136.784 9.09263Z" fill="#2F2E41"/>
<path d="M140.862 50.8772C139.717 52.0799 139.415 53.6409 140.186 54.3637C140.958 55.0865 142.511 54.6973 143.657 53.494C144.121 53.0195 144.463 52.4417 144.656 51.8089L149.443 46.6521L146.956 44.4753L142.501 49.7901C141.875 50.0174 141.313 50.3902 140.862 50.8772Z" fill="#FFB6B6"/>
<path d="M145.488 21.2461L153.548 34.8698L154.742 41.0893L146.981 50.8628L143.697 46.7165L147.578 41.0893L141.309 30.1311L145.488 21.2461Z" fill="#2F2E41"/>
<path d="M122.827 49.6087V33.5457C122.827 31.0974 124.834 29.1057 127.302 29.1057H152.051C154.519 29.1057 156.526 31.0974 156.526 33.5457V49.6087C156.526 52.057 154.519 54.0487 152.051 54.0487H127.302C124.834 54.0487 122.827 52.057 122.827 49.6087Z" fill="#FFC107"/>
<path d="M134.862 39.244H143.421V37.1212H134.862V39.244Z" fill="#3F3D56"/>
<path d="M142.72 53.9064V49.6608H135.766V53.9064H142.72Z" fill="#3F3D56"/>
<path d="M143.046 33.4936V29.248H136.092V33.4936H143.046Z" fill="#3F3D56"/>
<path d="M125.331 47.8093C126.476 49.0121 126.779 50.5731 126.007 51.2958C125.236 52.0186 123.682 51.6294 122.537 50.4261C122.073 49.9517 121.73 49.3738 121.537 48.741L116.751 43.5842L119.238 41.4075L123.692 46.7222C124.318 46.9495 124.88 47.3223 125.331 47.8093Z" fill="#FFB6B6"/>
<path d="M120.705 18.1782L112.645 31.8019L111.451 38.0214L119.213 47.7949L122.496 43.6486L118.616 38.0214L124.885 27.0632L120.705 18.1782Z" fill="#2F2E41"/>
<path d="M20.4844 83.14C24.5213 83.14 27.7938 80.3141 27.7938 76.8282C27.7938 73.3423 24.5213 70.5164 20.4844 70.5164C16.4474 70.5164 13.1749 73.3423 13.1749 76.8282C13.1749 80.3141 16.4474 83.14 20.4844 83.14Z" fill="#E6E6E6"/>
</g>
<defs>
<clipPath id="clip0_123_4469">
<rect width="272" height="113" fill="white"/>
</clipPath>
</defs>
</svg>
