<svg width="1172" height="409" viewBox="0 0 1172 409" fill="none" xmlns="http://www.w3.org/2000/svg">
<g style="mix-blend-mode:luminosity" clip-path="url(#clip0_123_4911)">
<path d="M204.963 248.599V227.557C204.963 225.459 206.683 223.752 208.798 223.752H222.673C224.788 223.752 226.508 225.459 226.508 227.557V248.599C226.508 250.697 224.788 252.404 222.673 252.404H208.798C206.683 252.404 204.963 250.697 204.963 248.599Z" fill="#FFC107"/>
<path d="M212.068 232.848H219.403V231.029H212.068V232.848Z" fill="#3F3D56"/>
<path d="M213.902 229.665H217.569V223.752H213.902V229.665Z" fill="#3F3D56"/>
<path d="M213.902 252.404H217.569V246.492H213.902V252.404Z" fill="#3F3D56"/>
<path d="M195.107 249.45H173.898C171.783 249.45 170.063 247.743 170.063 245.645V231.879C170.063 229.781 171.783 228.074 173.898 228.074H195.107C197.222 228.074 198.942 229.781 198.942 231.879V245.645C198.942 247.743 197.222 249.45 195.107 249.45Z" fill="#FFC107"/>
<path d="M188.628 231.031H181.293V232.85H188.628V231.031Z" fill="#3F3D56"/>
<path d="M176.022 240.581V236.943H170.062V240.581H176.022Z" fill="#3F3D56"/>
<path d="M198.942 240.581V236.943H192.983V240.581H198.942Z" fill="#3F3D56"/>
<path d="M23.0606 288.798L19.5199 268.307C17.9466 259.201 24.7394 250.775 34.0385 250.298L84.5144 247.704L96.5611 228.006C98.1581 225.394 101.014 223.8 104.092 223.8H140.361C143.212 223.8 145.62 225.897 145.99 228.702L146.911 244.463L237.332 244.732L248.707 281.923L238.149 281.412L238.69 292.693L224.884 293.23L220.281 280.318C219.414 277.887 215.617 275.146 211.669 272.852C202.82 267.71 191.451 269.361 184.755 277.066C183.175 278.884 182.07 280.778 181.762 282.554L179.673 294.573L78.4232 292.961L65.1534 274.545C61.233 270.312 42.7259 268.758 41.0592 274.545L31.0469 289.201L23.0606 288.798Z" fill="#E6E6E6"/>
<path d="M133.108 235.786L136.087 249.718L98.1859 250.524L106.191 233.473C106.917 231.926 108.511 230.966 110.229 231.04L128.391 231.823C130.69 231.922 132.631 233.552 133.108 235.786Z" fill="white"/>
<path d="M93.0422 249.45L100.622 230.112L98.6378 228.143L86.2741 246.764L88.7863 250.524L93.0422 249.45Z" fill="white"/>
<path d="M201.602 312.3C211.47 312.3 219.469 304.363 219.469 294.573C219.469 284.783 211.47 276.846 201.602 276.846C191.734 276.846 183.734 284.783 183.734 294.573C183.734 304.363 191.734 312.3 201.602 312.3Z" fill="#3F3D56"/>
<path d="M189.284 294.573C189.284 287.834 194.809 282.352 201.602 282.352C208.394 282.352 213.919 287.834 213.919 294.573C213.919 301.311 208.394 306.794 201.602 306.794C194.809 306.794 189.284 301.311 189.284 294.573ZM189.554 294.573C189.554 301.163 194.959 306.525 201.602 306.525C208.244 306.525 213.649 301.163 213.649 294.573C213.649 287.982 208.244 282.621 201.602 282.621C194.959 282.621 189.554 287.982 189.554 294.573Z" fill="white"/>
<path d="M191.043 294.573C191.043 300.358 195.77 305.048 201.602 305.048C207.433 305.048 212.16 300.358 212.16 294.573C212.16 288.788 207.433 284.098 201.602 284.098C195.77 284.098 191.043 288.788 191.043 294.573ZM208.465 292.064L206.594 293.274L205.875 292.18L208.465 292.064ZM205.617 298.216L206.115 297.008L207.684 299.055L205.617 298.216ZM200.827 302.362L202.143 300.147V302.362H200.827ZM200.827 289.536L202.143 287.321V289.536H200.827ZM194.978 299.055L196.547 297.008L197.045 298.216L194.978 299.055ZM194.197 292.064L196.786 292.18L196.068 293.274L194.197 292.064Z" fill="#E6E6E6"/>
<path d="M51.6218 312.3C61.4898 312.3 69.4894 304.363 69.4894 294.573C69.4894 284.783 61.4898 276.846 51.6218 276.846C41.7537 276.846 33.7541 284.783 33.7541 294.573C33.7541 304.363 41.7537 312.3 51.6218 312.3Z" fill="#3F3D56"/>
<path d="M39.3039 294.573C39.3039 287.834 44.8297 282.352 51.6218 282.352C58.4139 282.352 63.9396 287.834 63.9396 294.573C63.9396 301.311 58.4139 306.794 51.6218 306.794C44.8297 306.794 39.3039 301.311 39.3039 294.573ZM39.5746 294.573C39.5746 301.163 44.9789 306.525 51.6218 306.525C58.2646 306.525 63.6689 301.163 63.6689 294.573C63.6689 287.982 58.2646 282.621 51.6218 282.621C44.9789 282.621 39.5746 287.982 39.5746 294.573Z" fill="white"/>
<path d="M41.0636 294.573C41.0636 300.358 45.7907 305.048 51.6218 305.048C57.4529 305.048 62.1799 300.358 62.1799 294.573C62.1799 288.788 57.4529 284.098 51.6218 284.098C45.7907 284.098 41.0636 288.788 41.0636 294.573ZM58.4849 292.064L56.6142 293.274L55.8955 292.18L58.4849 292.064ZM55.637 298.216L56.1352 297.008L57.7038 299.055L55.637 298.216ZM50.8469 302.362L52.1632 300.147V302.362H50.8469ZM50.8469 289.536L52.1632 287.321V289.536H50.8469ZM44.9983 299.055L46.5669 297.008L47.0651 298.216L44.9983 299.055ZM44.2172 292.064L46.8066 292.18L46.0879 293.274L44.2172 292.064Z" fill="#E6E6E6"/>
<path d="M126.206 256.836H136.493V254.687H126.206V256.836Z" fill="#3F3D56"/>
<path d="M271.206 299.016C271.11 298.725 270.383 298.853 270.313 298.593C270.244 298.334 270.941 298.116 271.476 297.385C271.572 297.253 272.18 296.422 271.947 296.073C271.505 295.41 268.431 297.06 267.693 296.134C267.531 295.931 267.464 295.582 266.982 294.933C266.79 294.675 266.667 294.55 266.52 294.554C266.311 294.559 266.236 294.818 265.908 295.288C265.416 295.992 265.239 295.903 264.914 296.48C264.674 296.908 264.645 297.182 264.472 297.198C264.226 297.221 264.125 296.688 263.825 296.667C263.518 296.646 263.212 297.172 263.06 297.584C262.775 298.356 262.952 298.946 262.991 299.535C263.033 300.174 262.933 301.11 262.233 302.311L255.63 312.749C257.048 310.621 261.074 304.818 262.696 302.69C263.164 302.076 263.667 301.459 264.441 301.343C265.187 301.231 266.094 301.597 267.36 301.575C267.508 301.573 267.92 301.561 268.02 301.344C268.103 301.166 267.897 301.01 267.972 300.842C268.072 300.616 268.523 300.713 269.138 300.563C269.572 300.458 269.866 300.283 270.12 300.133C270.196 300.088 271.333 299.404 271.206 299.016Z" fill="#F2F2F2"/>
<path d="M253.91 301.453C253.739 301.416 253.592 301.807 253.443 301.766C253.295 301.725 253.389 301.322 253.181 300.851C253.144 300.766 252.908 300.23 252.668 300.243C252.213 300.267 252.142 302.24 251.471 302.332C251.324 302.352 251.132 302.284 250.672 302.332C250.489 302.351 250.391 302.375 250.351 302.447C250.293 302.551 250.4 302.662 250.537 302.957C250.743 303.4 250.649 303.461 250.84 303.785C250.983 304.026 251.11 304.118 251.068 304.208C251.008 304.334 250.715 304.229 250.618 304.369C250.52 304.512 250.692 304.814 250.851 305.006C251.151 305.368 251.494 305.452 251.796 305.603C252.125 305.767 252.559 306.085 252.951 306.773L256.21 313C255.566 311.695 253.857 308.061 253.272 306.657C253.103 306.252 252.943 305.829 253.109 305.418C253.269 305.023 253.712 304.687 254.067 304.064C254.108 303.991 254.221 303.787 254.143 303.676C254.078 303.584 253.942 303.639 253.88 303.555C253.798 303.441 253.976 303.249 254.079 302.906C254.152 302.665 254.15 302.471 254.149 302.304C254.149 302.254 254.139 301.503 253.91 301.453Z" fill="#F2F2F2"/>
<path d="M257.161 302.973L257.263 302.034L257.326 301.976C257.617 301.703 257.799 301.414 257.867 301.117C257.878 301.07 257.886 301.022 257.895 300.974C257.929 300.781 257.971 300.541 258.158 300.292C258.263 300.153 258.539 299.839 258.825 299.949C258.902 299.978 258.954 300.027 258.99 300.08C258.999 300.071 259.008 300.061 259.018 300.052C259.141 299.933 259.228 299.889 259.311 299.847C259.375 299.815 259.441 299.782 259.552 299.693C259.601 299.654 259.64 299.62 259.673 299.59C259.773 299.501 259.901 299.398 260.077 299.439C260.263 299.489 260.327 299.665 260.369 299.782C260.445 299.99 260.468 300.133 260.483 300.227C260.489 300.262 260.495 300.301 260.5 300.314C260.541 300.415 261.052 300.442 261.244 300.453C261.676 300.476 262.05 300.496 262.14 300.79C262.205 301 262.07 301.229 261.729 301.489C261.623 301.57 261.516 301.626 261.424 301.667C261.481 301.721 261.526 301.793 261.529 301.892C261.535 302.127 261.293 302.306 260.809 302.427C260.689 302.458 260.527 302.498 260.315 302.488C260.216 302.483 260.128 302.468 260.054 302.454C260.043 302.496 260.023 302.54 259.986 302.581C259.878 302.704 259.704 302.735 259.468 302.666C259.207 302.594 259.002 302.496 258.82 302.41C258.661 302.334 258.524 302.27 258.409 302.253C258.196 302.223 257.997 302.354 257.758 302.528L257.161 302.973Z" fill="#F2F2F2"/>
<path d="M258.866 297.629L257.925 297.769L257.852 297.723C257.512 297.514 257.185 297.412 256.878 297.422C256.829 297.424 256.78 297.428 256.73 297.432C256.534 297.448 256.289 297.469 255.999 297.352C255.837 297.287 255.461 297.101 255.496 296.8C255.504 296.718 255.539 296.656 255.581 296.608C255.57 296.602 255.559 296.595 255.547 296.588C255.399 296.5 255.335 296.428 255.273 296.359C255.226 296.306 255.176 296.251 255.062 296.166C255.012 296.129 254.968 296.101 254.931 296.076C254.819 296.003 254.685 295.906 254.681 295.727C254.683 295.536 254.838 295.43 254.941 295.36C255.124 295.235 255.258 295.176 255.346 295.137C255.379 295.123 255.415 295.107 255.426 295.099C255.515 295.034 255.411 294.537 255.373 294.35C255.286 293.929 255.211 293.565 255.474 293.404C255.663 293.289 255.92 293.36 256.26 293.622C256.366 293.703 256.448 293.791 256.512 293.87C256.549 293.801 256.609 293.739 256.704 293.712C256.931 293.646 257.168 293.833 257.409 294.267C257.469 294.374 257.549 294.519 257.593 294.725C257.614 294.822 257.621 294.909 257.626 294.984C257.67 294.984 257.718 294.993 257.768 295.018C257.914 295.09 257.989 295.249 257.981 295.493C257.977 295.761 257.934 295.984 257.896 296.18C257.863 296.351 257.835 296.499 257.847 296.614C257.872 296.826 258.051 296.984 258.281 297.169L258.866 297.629Z" fill="#F2F2F2"/>
<path d="M258.992 294.827L259.095 293.888L259.158 293.83C259.448 293.557 259.63 293.268 259.698 292.971C259.709 292.924 259.718 292.876 259.726 292.828C259.76 292.635 259.802 292.395 259.989 292.146C260.094 292.007 260.371 291.693 260.656 291.803C260.733 291.832 260.785 291.881 260.821 291.934C260.83 291.925 260.84 291.915 260.849 291.906C260.973 291.787 261.059 291.743 261.142 291.701C261.206 291.669 261.272 291.636 261.383 291.547C261.432 291.508 261.472 291.474 261.505 291.444C261.605 291.355 261.733 291.252 261.908 291.293C262.094 291.343 262.158 291.519 262.2 291.636C262.276 291.844 262.299 291.987 262.315 292.081C262.32 292.116 262.327 292.155 262.331 292.168C262.372 292.269 262.883 292.296 263.075 292.307C263.508 292.33 263.882 292.35 263.972 292.644C264.036 292.854 263.902 293.083 263.56 293.343C263.454 293.424 263.348 293.48 263.255 293.521C263.312 293.575 263.357 293.647 263.36 293.746C263.366 293.981 263.124 294.16 262.64 294.281C262.52 294.312 262.358 294.352 262.147 294.342C262.047 294.337 261.96 294.322 261.885 294.308C261.874 294.35 261.854 294.394 261.817 294.435C261.709 294.558 261.536 294.589 261.299 294.52C261.039 294.448 260.833 294.35 260.651 294.264C260.492 294.188 260.356 294.124 260.241 294.107C260.027 294.077 259.828 294.208 259.59 294.382L258.992 294.827Z" fill="#F2F2F2"/>
<path d="M255.942 312.802L255.776 312.639L255.545 312.615C255.546 312.593 255.544 312.543 255.543 312.464C255.534 312.032 255.506 310.719 255.69 308.701C255.819 307.292 256.034 305.862 256.33 304.45C256.626 303.035 256.933 301.983 257.18 301.137C257.366 300.499 257.554 299.894 257.737 299.304C258.227 297.729 258.689 296.242 258.976 294.545C259.04 294.166 259.173 293.378 258.9 292.447C258.742 291.907 258.472 291.399 258.096 290.938L258.46 290.646C258.875 291.156 259.174 291.719 259.349 292.318C259.651 293.35 259.506 294.209 259.437 294.622C259.145 296.349 258.678 297.851 258.184 299.441C258.001 300.028 257.814 300.63 257.629 301.266C257.384 302.104 257.08 303.147 256.788 304.543C256.495 305.939 256.283 307.351 256.156 308.742C255.974 310.735 256.001 312.029 256.01 312.454C256.015 312.681 256.016 312.729 255.942 312.802Z" fill="#F2F2F2"/>
<path d="M257.098 291.472C257.079 291.467 257.06 291.463 257.041 291.457C256.657 291.351 256.35 291.04 256.126 290.535C256.021 290.298 255.997 290.048 255.947 289.549C255.94 289.472 255.905 289.083 255.947 288.568C255.975 288.231 256.011 288.096 256.104 287.99C256.206 287.871 256.344 287.804 256.49 287.77C256.494 287.725 256.509 287.681 256.538 287.64C256.658 287.469 256.86 287.539 256.969 287.576C257.024 287.595 257.092 287.62 257.169 287.633C257.29 287.654 257.363 287.633 257.472 287.601C257.577 287.571 257.707 287.534 257.887 287.537C258.242 287.542 258.505 287.7 258.592 287.752C259.049 288.024 259.207 288.459 259.389 288.962C259.425 289.062 259.546 289.427 259.574 289.896C259.594 290.235 259.549 290.373 259.498 290.472C259.393 290.676 259.233 290.77 258.835 290.969C258.419 291.177 258.211 291.281 258.039 291.335C257.641 291.459 257.392 291.537 257.098 291.472Z" fill="#F2F2F2"/>
<path d="M0 312.399C0 312.576 0.250493 312.719 0.562427 312.719H269.056C269.368 312.719 269.619 312.576 269.619 312.399C269.619 312.222 269.368 312.08 269.056 312.08H0.562427C0.250493 312.08 0 312.222 0 312.399Z" fill="#CCCCCC"/>
<path d="M136.428 310.381L140.186 310.381L141.975 295.996L136.427 295.996L136.428 310.381Z" fill="#FFB6B6"/>
<path d="M149.306 310.296C149.423 310.492 149.485 311.123 149.485 311.351C149.485 312.05 148.914 312.616 148.209 312.616L136.568 312.616C136.088 312.616 135.698 312.23 135.698 311.753V311.272C135.698 311.272 135.122 309.827 136.308 308.046C136.308 308.046 137.781 309.44 139.983 307.256L140.632 306.089L145.332 309.499L147.937 309.817C148.507 309.887 149.013 309.807 149.306 310.296Z" fill="#2F2E41"/>
<path d="M119.539 310.381L123.298 310.381L125.086 295.996L119.539 295.996L119.539 310.381Z" fill="#FFB6B6"/>
<path d="M132.418 310.296C132.535 310.492 132.596 311.123 132.596 311.351C132.596 312.05 132.025 312.616 131.321 312.616L119.68 312.616C119.199 312.616 118.81 312.23 118.81 311.753V311.272C118.81 311.272 118.234 309.827 119.419 308.046C119.419 308.046 120.893 309.44 123.095 307.256L123.744 306.089L128.444 309.499L131.049 309.817C131.619 309.887 132.124 309.807 132.418 310.296Z" fill="#2F2E41"/>
<path d="M135.832 212.161L136.546 218.768L128.221 218.06L129.648 211.925L135.832 212.161Z" fill="#FFB6B6"/>
<path opacity="0.1" d="M135.832 212.161L136.546 218.768L128.221 218.06L129.648 211.925L135.832 212.161Z" fill="black"/>
<path d="M132.859 212.986C135.88 212.986 138.33 210.556 138.33 207.559C138.33 204.561 135.88 202.131 132.859 202.131C129.838 202.131 127.388 204.561 127.388 207.559C127.388 210.556 129.838 212.986 132.859 212.986Z" fill="#FFB6B6"/>
<path d="M136.427 216.054L145.585 221.364L142.584 235.759L144.633 255.111L143.206 302.544L134.405 301.6L133.216 261.246L126.318 303.016H117.771L119.182 257.942L123.463 238.827L120.847 218.06L128.815 215.582L136.427 216.054Z" fill="#2F2E41"/>
<path d="M136.784 209.093C136.784 209.093 137.259 207.441 138.33 207.559C139.4 207.677 139.638 206.733 139.4 206.261C139.162 205.789 138.687 203.429 138.687 203.429C138.687 203.429 138.925 201.777 137.497 201.541C136.07 201.305 135.594 201.069 135.357 200.597C135.119 200.125 131.551 199.653 130.361 200.361C129.172 201.069 128.221 202.427 127.388 202.81C126.556 203.193 125.842 203.901 126.318 205.081C126.793 206.261 127.483 208.568 127.483 208.568C127.483 208.568 128.696 208.149 128.934 208.857C129.172 209.565 128.221 208.621 129.41 206.733C130.599 204.845 130.599 202.957 132.502 203.665C134.405 204.373 136.546 204.137 136.308 205.553C136.07 206.969 136.784 209.093 136.784 209.093Z" fill="#2F2E41"/>
<path d="M140.862 250.877C139.717 252.08 139.415 253.641 140.186 254.364C140.958 255.086 142.511 254.697 143.657 253.494C144.121 253.02 144.463 252.442 144.656 251.809L149.443 246.652L146.956 244.475L142.501 249.79C141.875 250.017 141.313 250.39 140.862 250.877Z" fill="#FFB6B6"/>
<path d="M145.488 221.246L153.548 234.87L154.742 241.089L146.981 250.863L143.697 246.716L147.578 241.089L141.309 230.131L145.488 221.246Z" fill="#2F2E41"/>
<path d="M122.827 249.609V233.546C122.827 231.097 124.834 229.106 127.302 229.106H152.051C154.519 229.106 156.526 231.097 156.526 233.546V249.609C156.526 252.057 154.519 254.049 152.051 254.049H127.302C124.834 254.049 122.827 252.057 122.827 249.609Z" fill="#FFC107"/>
<path d="M134.862 239.244H143.421V237.121H134.862V239.244Z" fill="#3F3D56"/>
<path d="M142.72 253.906V249.661H135.766V253.906H142.72Z" fill="#3F3D56"/>
<path d="M143.046 233.494V229.248H136.092V233.494H143.046Z" fill="#3F3D56"/>
<path d="M125.331 247.809C126.476 249.012 126.779 250.573 126.007 251.296C125.236 252.019 123.682 251.629 122.537 250.426C122.073 249.952 121.73 249.374 121.537 248.741L116.751 243.584L119.238 241.407L123.692 246.722C124.318 246.95 124.88 247.322 125.331 247.809Z" fill="#FFB6B6"/>
<path d="M120.705 218.178L112.645 231.802L111.451 238.021L119.213 247.795L122.496 243.649L118.616 238.021L124.885 227.063L120.705 218.178Z" fill="#2F2E41"/>
<path d="M20.4844 283.14C24.5213 283.14 27.7938 280.314 27.7938 276.828C27.7938 273.342 24.5213 270.516 20.4844 270.516C16.4474 270.516 13.1749 273.342 13.1749 276.828C13.1749 280.314 16.4474 283.14 20.4844 283.14Z" fill="#E6E6E6"/>
</g>
<path d="M116.42 392.2C114.993 392.2 113.707 391.893 112.56 391.28C111.413 390.653 110.513 389.793 109.86 388.7C109.207 387.593 108.88 386.36 108.88 385C108.88 383.64 109.207 382.413 109.86 381.32C110.513 380.213 111.413 379.353 112.56 378.74C113.707 378.113 114.993 377.8 116.42 377.8C117.847 377.8 119.133 378.113 120.28 378.74C121.427 379.353 122.327 380.207 122.98 381.3C123.633 382.393 123.96 383.627 123.96 385C123.96 386.373 123.633 387.607 122.98 388.7C122.327 389.793 121.427 390.653 120.28 391.28C119.133 391.893 117.847 392.2 116.42 392.2ZM116.42 389.92C117.353 389.92 118.193 389.713 118.94 389.3C119.687 388.873 120.273 388.287 120.7 387.54C121.127 386.78 121.34 385.933 121.34 385C121.34 384.067 121.127 383.227 120.7 382.48C120.273 381.72 119.687 381.133 118.94 380.72C118.193 380.293 117.353 380.08 116.42 380.08C115.487 380.08 114.647 380.293 113.9 380.72C113.153 381.133 112.567 381.72 112.14 382.48C111.713 383.227 111.5 384.067 111.5 385C111.5 385.933 111.713 386.78 112.14 387.54C112.567 388.287 113.153 388.873 113.9 389.3C114.647 389.713 115.487 389.92 116.42 389.92ZM127.856 382.88C128.576 381.76 129.843 381.2 131.656 381.2V383.58C131.443 383.54 131.249 383.52 131.076 383.52C130.103 383.52 129.343 383.807 128.796 384.38C128.249 384.94 127.976 385.753 127.976 386.82V392H125.476V381.32H127.856V382.88ZM143.139 377.16V392H140.739V390.62C140.326 391.127 139.812 391.507 139.199 391.76C138.599 392.013 137.932 392.14 137.199 392.14C136.172 392.14 135.246 391.913 134.419 391.46C133.606 391.007 132.966 390.367 132.499 389.54C132.032 388.7 131.799 387.74 131.799 386.66C131.799 385.58 132.032 384.627 132.499 383.8C132.966 382.973 133.606 382.333 134.419 381.88C135.246 381.427 136.172 381.2 137.199 381.2C137.906 381.2 138.552 381.32 139.139 381.56C139.726 381.8 140.226 382.16 140.639 382.64V377.16H143.139ZM137.499 390C138.099 390 138.639 389.867 139.119 389.6C139.599 389.32 139.979 388.927 140.259 388.42C140.539 387.913 140.679 387.327 140.679 386.66C140.679 385.993 140.539 385.407 140.259 384.9C139.979 384.393 139.599 384.007 139.119 383.74C138.639 383.46 138.099 383.32 137.499 383.32C136.899 383.32 136.359 383.46 135.879 383.74C135.399 384.007 135.019 384.393 134.739 384.9C134.459 385.407 134.319 385.993 134.319 386.66C134.319 387.327 134.459 387.913 134.739 388.42C135.019 388.927 135.399 389.32 135.879 389.6C136.359 389.867 136.899 390 137.499 390ZM155.45 386.72C155.45 386.893 155.436 387.14 155.41 387.46H147.03C147.176 388.247 147.556 388.873 148.17 389.34C148.796 389.793 149.57 390.02 150.49 390.02C151.663 390.02 152.63 389.633 153.39 388.86L154.73 390.4C154.25 390.973 153.643 391.407 152.91 391.7C152.176 391.993 151.35 392.14 150.43 392.14C149.256 392.14 148.223 391.907 147.33 391.44C146.436 390.973 145.743 390.327 145.25 389.5C144.77 388.66 144.53 387.713 144.53 386.66C144.53 385.62 144.763 384.687 145.23 383.86C145.71 383.02 146.37 382.367 147.21 381.9C148.05 381.433 148.996 381.2 150.05 381.2C151.09 381.2 152.016 381.433 152.83 381.9C153.656 382.353 154.296 383 154.75 383.84C155.216 384.667 155.45 385.627 155.45 386.72ZM150.05 383.2C149.25 383.2 148.57 383.44 148.01 383.92C147.463 384.387 147.13 385.013 147.01 385.8H153.07C152.963 385.027 152.636 384.4 152.09 383.92C151.543 383.44 150.863 383.2 150.05 383.2ZM159.231 382.88C159.951 381.76 161.218 381.2 163.031 381.2V383.58C162.818 383.54 162.624 383.52 162.451 383.52C161.478 383.52 160.718 383.807 160.171 384.38C159.624 384.94 159.351 385.753 159.351 386.82V392H156.851V381.32H159.231V382.88Z" fill="#BFBFBF"/>
<g clip-path="url(#clip1_123_4911)">
<path d="M580.531 293.694L580.184 285.866C580.148 285.847 580.112 285.828 580.076 285.809C576.361 283.852 572.104 287.395 573.291 291.436C574.407 295.238 575.157 299.336 577.2 302.664C578.408 304.597 580.033 306.232 581.955 307.448C583.877 308.665 586.047 309.431 588.304 309.691L593.023 312.593C593.671 308.967 593.528 305.244 592.605 301.679C591.681 298.115 590 294.793 587.675 291.944C586.355 290.359 584.842 288.947 583.171 287.741C582.041 290.734 580.531 293.694 580.531 293.694Z" fill="#F2F2F2"/>
<path d="M538.279 214.257C529.194 204.847 516.027 199.45 502.156 199.45L501.621 199.451C492.485 199.455 483.511 197.021 475.618 192.399L474.797 191.919L475.459 191.234C479.04 187.513 482.03 183.261 484.325 178.628C482.695 180.154 480.751 181.301 478.631 181.989C476.511 182.677 474.266 182.888 472.055 182.608C469.721 182.329 467.481 181.522 465.502 180.249C463.522 178.976 461.856 177.269 460.627 175.257C455.779 167.357 450 156.148 450 147.609C450.008 140.392 451.512 133.255 454.419 126.653C457.325 120.052 461.569 114.131 466.88 109.268C470.242 106.223 472.928 102.501 474.761 98.3443C476.595 94.1874 477.536 89.689 477.523 85.1424L477.52 84.4954C477.519 78.5095 478.247 72.546 479.689 66.7378L479.835 66.1513L480.436 66.1724C484.311 66.3048 488.188 65.9786 491.987 65.2006C488.424 64.7616 484.938 63.8305 481.628 62.4335L480.981 62.1709L481.201 61.5057C496.323 52.1023 530.46 56.9719 550.273 11.446C566.339 -25.4694 623.026 44.2157 623.026 84.4954C623.026 88.6055 618.976 94.0368 622.008 96.7534C654.784 126.119 632.169 144.977 625.039 163.951C623.347 168.453 627.016 173.396 627.016 178.266C627.016 179.093 626.995 179.946 626.953 180.802L626.89 182.118L625.797 181.387C623.635 179.965 621.631 178.314 619.819 176.463C621.699 180.807 622.585 185.519 622.412 190.253C622.238 194.986 621.011 199.62 618.819 203.814C615.384 210.324 612.061 214.985 608.942 217.666C598.951 226.253 586.071 230.682 572.937 230.048C559.802 229.414 547.405 223.766 538.279 214.257Z" fill="#E6E6E6"/>
<path d="M593.154 312.207C593.377 312.206 593.593 312.125 593.761 311.978C593.93 311.831 594.04 311.628 594.072 311.406C594.111 311.127 597.974 283.146 594.505 245.958C591.3 211.613 581.01 162.146 550.185 121.518C550.111 121.421 550.019 121.339 549.914 121.277C549.808 121.215 549.692 121.175 549.571 121.159C549.45 121.142 549.327 121.15 549.209 121.181C549.091 121.212 548.98 121.267 548.883 121.341C548.786 121.415 548.705 121.508 548.643 121.614C548.582 121.72 548.542 121.837 548.526 121.958C548.51 122.08 548.517 122.203 548.549 122.322C548.58 122.44 548.634 122.551 548.708 122.649C579.267 162.925 589.474 212.03 592.656 246.132C596.106 283.104 592.273 310.867 592.233 311.143C592.215 311.275 592.225 311.41 592.262 311.538C592.3 311.666 592.365 311.785 592.452 311.885C592.539 311.986 592.647 312.067 592.768 312.123C592.889 312.178 593.021 312.207 593.154 312.207Z" fill="#3F3D56"/>
<path d="M567.999 178.825C568.195 178.825 568.386 178.763 568.545 178.647C568.703 178.531 568.821 178.368 568.882 178.181C568.943 177.994 568.943 177.792 568.882 177.605C568.822 177.417 568.704 177.254 568.545 177.138C568.433 177.057 557.157 168.897 540.298 162.697C524.714 156.968 501.015 151.773 476.618 159.571C476.502 159.608 476.394 159.668 476.3 159.746C476.207 159.825 476.13 159.922 476.074 160.031C476.018 160.14 475.983 160.258 475.973 160.381C475.963 160.503 475.976 160.626 476.013 160.742C476.05 160.859 476.11 160.967 476.189 161.061C476.267 161.155 476.364 161.232 476.472 161.288C476.581 161.344 476.699 161.378 476.821 161.389C476.942 161.399 477.065 161.385 477.181 161.348C501.078 153.71 524.347 158.819 539.66 164.449C556.277 170.559 567.344 178.566 567.454 178.647C567.612 178.762 567.803 178.825 567.999 178.825Z" fill="#3F3D56"/>
<path d="M610.488 72.548C610.502 72.3516 610.454 72.1557 610.351 71.9884C610.247 71.8211 610.094 71.691 609.912 71.6167C609.731 71.5424 609.53 71.5278 609.34 71.575C609.149 71.6221 608.979 71.7286 608.852 71.8792C608.763 71.9854 599.847 82.6932 592.476 99.1333C585.663 114.331 578.797 137.695 584.785 162.694C584.843 162.934 584.993 163.142 585.203 163.271C585.413 163.4 585.665 163.44 585.905 163.382C586.144 163.325 586.351 163.174 586.479 162.963C586.608 162.752 586.648 162.498 586.59 162.258C580.725 137.771 587.475 114.831 594.169 99.8988C601.435 83.6934 610.184 73.1854 610.272 73.0811C610.398 72.9309 610.474 72.7443 610.488 72.548Z" fill="#3F3D56"/>
<path d="M609.232 120.622C610.015 126.968 614.394 132.201 620.762 132.201C623.82 132.201 626.752 130.981 628.915 128.81C631.077 126.638 632.292 123.693 632.292 120.622C632.292 114.227 627.102 109.634 620.762 109.042C614.034 108.415 608.226 112.474 609.232 120.622Z" fill="#2F2E41"/>
<path d="M626.102 307.107L630.493 307.106L632.581 290.098L626.101 290.098L626.102 307.107Z" fill="#FFB6B6"/>
<path d="M625.947 311.706L639.45 311.706V311.534C639.45 310.135 638.896 308.792 637.91 307.802C636.925 306.813 635.588 306.257 634.194 306.256L631.728 304.377L627.126 306.257L625.947 306.257L625.947 311.706Z" fill="#2F2E41"/>
<path d="M608.807 307.107L613.197 307.106L615.286 290.098L608.806 290.098L608.807 307.107Z" fill="#FFB6B6"/>
<path d="M608.652 311.706L622.155 311.706V311.534C622.154 310.135 621.601 308.792 620.615 307.802C619.63 306.813 618.293 306.257 616.899 306.256L614.432 304.377L609.831 306.257L608.652 306.257L608.652 311.706Z" fill="#2F2E41"/>
<path d="M641.212 200.581L644.316 211.27L640.659 256.538C640.659 256.538 642.542 259.368 641.212 259.368C639.881 259.368 638.175 259.996 639.25 261.686C640.325 263.376 636.651 269.445 636.651 269.445L631.455 301.677L624.835 301.579C624.835 301.579 621.469 299.696 623.358 297.792C625.247 295.887 626.577 295.887 624.803 294.106C623.03 292.325 623.03 292.861 623.03 291.479C623.03 290.098 621.252 273.213 625.467 266.736L624.197 240.328L621.206 266.231L615.047 300.786L608.669 300.734C608.669 300.734 605.724 297.882 605.729 295.771C605.734 293.661 607.549 293.485 606.198 292.237C604.848 290.989 604.848 271.81 608.839 261.15C608.839 261.15 611.096 255.193 608.834 253.152C606.571 251.111 608.831 248.776 608.831 248.776C608.831 248.776 612.415 247.475 608.828 243.726C605.24 239.978 608.808 213.465 608.808 213.465C608.808 213.465 604.887 202.762 608.858 198.554C612.83 194.346 641.212 200.581 641.212 200.581Z" fill="#2F2E41"/>
<path d="M585.923 218.996L591.461 205.554L595.825 207.989L593.19 221.663C593.454 222.529 593.472 223.452 593.242 224.328C593.012 225.204 592.544 225.999 591.889 226.622C591.234 227.245 590.42 227.673 589.536 227.856C588.653 228.04 587.736 227.973 586.889 227.662C586.041 227.351 585.297 226.809 584.74 226.096C584.183 225.384 583.834 224.53 583.734 223.629C583.634 222.729 583.785 221.819 584.172 221C584.559 220.182 585.165 219.488 585.923 218.996Z" fill="#FFB6B6"/>
<path d="M678.861 112.702L670.434 124.535L666.733 121.17L672.385 108.452C672.324 107.548 672.514 106.645 672.936 105.844C673.357 105.043 673.993 104.376 674.771 103.918C675.549 103.46 676.439 103.229 677.341 103.251C678.243 103.273 679.121 103.547 679.876 104.043C680.631 104.538 681.233 105.236 681.616 106.056C681.998 106.877 682.144 107.788 682.039 108.688C681.934 109.588 681.58 110.44 681.019 111.149C680.458 111.858 679.71 112.396 678.861 112.702Z" fill="#FFB6B6"/>
<path d="M642.048 201.677C647.514 210.191 620.038 220.997 609.496 216.659C607.65 215.899 601.299 213.39 605.64 209.912C609.98 206.433 605.137 205.944 605.022 203.679C604.946 202.165 606.113 198.844 604.895 198.987C603.677 199.129 602.252 197.036 604.904 196.135C607.556 195.234 604.933 194.412 604.956 193.557C605.209 184.225 612.339 169.38 612.339 169.38L599.492 202.362C599.492 202.362 599.587 208.068 597.948 206.324C596.31 204.58 596.429 210.224 596.429 210.224C596.429 210.224 593.993 211.931 595.394 212.882C596.795 213.832 593.886 216.754 593.886 216.754L587.098 216.267C587.098 216.267 587.204 211.203 588.363 210.083C589.522 208.963 588.953 207.201 588.953 207.201C588.953 207.201 591.97 204.518 589.947 202.34C587.345 199.538 596.832 152.224 600.105 152.692C600.568 150.43 601.645 148.341 603.216 146.655C604.788 144.969 606.793 143.752 609.01 143.139L616.342 141.112L617.644 135.924H627.967L629.765 139.333L637.613 142.89C639.092 140.795 640.196 138.587 646.25 137.872C646.25 137.872 662.562 122.967 661.765 121.803C660.969 120.64 663.497 117.915 663.497 117.915C663.497 117.915 665.657 117.205 664.438 116.826C663.22 116.447 665.523 115.571 665.523 115.571C665.523 115.571 667.656 115.008 666.65 114.267C665.644 113.526 670.008 113.039 670.008 113.039L675.669 117.678L674.525 119.627C674.525 119.627 675.223 122.28 674.312 121.311C673.402 120.343 673.23 123.154 673.23 123.154C673.23 123.154 672.765 126.232 670.008 127.16C667.25 128.087 665.159 136.898 665.159 136.898C658.656 145.39 650.981 152.014 641.886 156.375C645.431 160.461 642.048 201.677 642.048 201.677Z" fill="#FFC107"/>
<path d="M622.036 132.889C627.683 132.889 632.261 128.291 632.261 122.621C632.261 116.95 627.683 112.353 622.036 112.353C616.389 112.353 611.812 116.95 611.812 122.621C611.812 128.291 616.389 132.889 622.036 132.889Z" fill="#FFB6B6"/>
<path d="M611.449 123.739C611.773 125.971 613.666 129.084 613.223 129.084C612.779 129.084 609.626 119.886 612.779 119.286C615.066 118.851 615.578 119.232 617.715 118.302L617.413 118.587C618.828 119.62 620.797 118.983 622.411 118.31C624.03 117.642 625.994 117.006 627.414 118.034C628.305 118.68 628.682 119.802 629.236 120.755C629.791 121.713 630.815 122.617 631.87 122.323C632.717 122.087 633.205 121.134 633.201 120.252C633.196 119.37 632.053 118.532 632.438 117.74C633.579 115.396 632.553 113.798 630.065 112.695C629.161 112.556 628.256 112.415 627.351 112.271C627.826 111.612 628.4 111.032 629.054 110.552C628.778 109.841 628.3 109.226 627.68 108.784C626.957 108.352 626.061 108.383 625.223 108.428C623.351 108.526 621.482 108.624 619.613 108.722C618.229 108.793 616.797 108.878 615.56 109.515C614.017 110.312 613.005 111.866 612.269 113.447C610.62 117.001 610.881 119.86 611.449 123.739Z" fill="#2F2E41"/>
<path d="M568.916 312.863L669.471 313C669.612 313 669.746 312.944 669.845 312.845C669.944 312.745 670 312.61 670 312.47C670 312.329 669.944 312.194 669.845 312.095C669.746 311.995 669.612 311.939 669.471 311.939L568.916 311.802C568.776 311.802 568.642 311.858 568.543 311.958C568.444 312.057 568.388 312.192 568.388 312.333C568.388 312.473 568.444 312.608 568.543 312.708C568.642 312.807 568.776 312.863 568.916 312.863Z" fill="#CACACA"/>
<path d="M532.548 266.639C532.733 265.36 531.399 264.105 529.567 263.838C527.736 263.57 526.101 264.391 525.915 265.67C525.73 266.95 527.064 268.204 528.896 268.471C530.727 268.739 532.362 267.919 532.548 266.639Z" fill="#E6E6E6"/>
<path d="M554.353 264.502C554.539 263.223 553.204 261.969 551.373 261.701C549.541 261.433 547.906 262.254 547.721 263.533C547.536 264.813 548.87 266.067 550.702 266.334C552.533 266.602 554.168 265.782 554.353 264.502Z" fill="#3F3D56"/>
<path d="M526.576 248.91C526.762 247.631 525.427 246.376 523.596 246.109C521.764 245.841 520.129 246.662 519.944 247.941C519.759 249.221 521.093 250.475 522.925 250.742C524.756 251.01 526.391 250.19 526.576 248.91Z" fill="#FF6584"/>
<path d="M517.101 241.648C517.11 240.474 516.458 239.516 515.644 239.51C514.83 239.504 514.164 240.451 514.155 241.626C514.146 242.8 514.798 243.758 515.612 243.764C516.426 243.77 517.092 242.823 517.101 241.648Z" fill="#E6E6E6"/>
<path d="M513.888 228.122C513.897 226.947 513.244 225.99 512.431 225.984C511.617 225.978 510.95 226.925 510.942 228.1C510.933 229.274 511.585 230.232 512.399 230.238C513.212 230.244 513.879 229.297 513.888 228.122Z" fill="#3F3D56"/>
<path d="M538.875 251.927C538.884 250.753 538.232 249.795 537.418 249.789C536.604 249.783 535.937 250.73 535.929 251.905C535.92 253.079 536.572 254.037 537.386 254.043C538.2 254.049 538.866 253.102 538.875 251.927Z" fill="#E6E6E6"/>
<path d="M528.338 257.211C528.346 256.036 527.694 255.079 526.88 255.073C526.067 255.067 525.4 256.014 525.391 257.189C525.382 258.363 526.035 259.32 526.848 259.327C527.662 259.333 528.329 258.386 528.338 257.211Z" fill="#FF6584"/>
<path d="M543.006 266.977C543.015 265.802 542.363 264.845 541.549 264.838C540.735 264.832 540.068 265.78 540.06 266.954C540.051 268.129 540.703 269.086 541.517 269.092C542.331 269.098 542.997 268.151 543.006 266.977Z" fill="#3F3D56"/>
<path d="M700.177 198.054C700.362 196.774 699.028 195.52 697.196 195.253C695.365 194.985 693.73 195.805 693.545 197.085C693.359 198.364 694.694 199.619 696.525 199.886C698.357 200.154 699.992 199.333 700.177 198.054Z" fill="#E6E6E6"/>
<path d="M721.983 195.917C722.168 194.638 720.834 193.384 719.002 193.116C717.171 192.848 715.536 193.669 715.35 194.948C715.165 196.228 716.499 197.482 718.331 197.749C720.162 198.017 721.797 197.197 721.983 195.917Z" fill="#3F3D56"/>
<path d="M694.206 180.325C694.391 179.046 693.057 177.791 691.225 177.524C689.394 177.256 687.759 178.077 687.573 179.356C687.388 180.636 688.722 181.89 690.554 182.157C692.385 182.425 694.02 181.605 694.206 180.325Z" fill="#FF6584"/>
<path d="M684.731 173.063C684.74 171.889 684.087 170.931 683.273 170.925C682.46 170.919 681.793 171.866 681.784 173.041C681.775 174.215 682.428 175.173 683.241 175.179C684.055 175.185 684.722 174.238 684.731 173.063Z" fill="#E6E6E6"/>
<path d="M681.518 159.537C681.526 158.362 680.874 157.405 680.06 157.399C679.247 157.393 678.58 158.34 678.571 159.514C678.562 160.689 679.215 161.646 680.028 161.653C680.842 161.659 681.509 160.711 681.518 159.537Z" fill="#3F3D56"/>
<path d="M706.505 183.342C706.513 182.168 705.861 181.21 705.047 181.204C704.234 181.198 703.567 182.145 703.558 183.32C703.549 184.495 704.202 185.452 705.015 185.458C705.829 185.464 706.496 184.517 706.505 183.342Z" fill="#E6E6E6"/>
<path d="M695.967 188.626C695.976 187.451 695.323 186.494 694.51 186.488C693.696 186.482 693.029 187.429 693.021 188.604C693.012 189.778 693.664 190.735 694.478 190.742C695.291 190.748 695.958 189.801 695.967 188.626Z" fill="#FF6584"/>
<path d="M710.636 198.392C710.645 197.217 709.992 196.26 709.178 196.254C708.365 196.247 707.698 197.195 707.689 198.369C707.68 199.544 708.333 200.501 709.146 200.507C709.96 200.513 710.627 199.566 710.636 198.392Z" fill="#3F3D56"/>
<path d="M619.023 71.1272C619.208 69.8477 617.874 68.5935 616.043 68.3259C614.211 68.0583 612.576 68.8786 612.391 70.1581C612.205 71.4376 613.54 72.6918 615.371 72.9594C617.203 73.227 618.838 72.4067 619.023 71.1272Z" fill="white"/>
<path d="M640.829 68.9903C641.014 67.7107 639.68 66.4566 637.848 66.1889C636.017 65.9213 634.382 66.7416 634.196 68.0211C634.011 69.3007 635.346 70.5548 637.177 70.8224C639.009 71.0901 640.643 70.2698 640.829 68.9903Z" fill="#3F3D56"/>
<path d="M613.052 53.3984C613.237 52.1189 611.903 50.8647 610.071 50.5971C608.24 50.3295 606.605 51.1498 606.42 52.4293C606.234 53.7088 607.569 54.963 609.4 55.2306C611.232 55.4983 612.867 54.6779 613.052 53.3984Z" fill="#FF6584"/>
<path d="M603.577 46.1365C603.586 44.9618 602.933 44.0046 602.12 43.9984C601.306 43.9922 600.639 44.9394 600.63 46.1141C600.621 47.2887 601.274 48.246 602.088 48.2522C602.901 48.2583 603.568 47.3111 603.577 46.1365Z" fill="#E6E6E6"/>
<path d="M600.364 32.6101C600.372 31.4354 599.72 30.4782 598.906 30.472C598.093 30.4658 597.426 31.4131 597.417 32.5877C597.408 33.7624 598.061 34.7196 598.874 34.7258C599.688 34.732 600.355 33.7847 600.364 32.6101Z" fill="#3F3D56"/>
<path d="M625.351 56.4153C625.36 55.2406 624.707 54.2834 623.893 54.2772C623.08 54.271 622.413 55.2182 622.404 56.3929C622.395 57.5675 623.048 58.5248 623.861 58.531C624.675 58.5371 625.342 57.5899 625.351 56.4153Z" fill="#E6E6E6"/>
<path d="M614.813 61.699C614.822 60.5243 614.17 59.5671 613.356 59.5609C612.542 59.5547 611.875 60.5019 611.867 61.6766C611.858 62.8512 612.51 63.8085 613.324 63.8147C614.138 63.8208 614.804 62.8736 614.813 61.699Z" fill="#FF6584"/>
<path d="M629.482 71.4648C629.491 70.2902 628.838 69.333 628.024 69.3268C627.211 69.3206 626.544 70.2678 626.535 71.4425C626.526 72.6171 627.179 73.5743 627.992 73.5805C628.806 73.5867 629.473 72.6395 629.482 71.4648Z" fill="#3F3D56"/>
</g>
<path d="M548.88 378H555C556.493 378 557.82 378.293 558.98 378.88C560.14 379.453 561.04 380.273 561.68 381.34C562.32 382.393 562.64 383.613 562.64 385C562.64 386.387 562.32 387.613 561.68 388.68C561.04 389.733 560.14 390.553 558.98 391.14C557.82 391.713 556.493 392 555 392H548.88V378ZM554.88 389.8C555.907 389.8 556.807 389.607 557.58 389.22C558.367 388.82 558.967 388.26 559.38 387.54C559.807 386.807 560.02 385.96 560.02 385C560.02 384.04 559.807 383.2 559.38 382.48C558.967 381.747 558.367 381.187 557.58 380.8C556.807 380.4 555.907 380.2 554.88 380.2H551.48V389.8H554.88ZM574.203 386.72C574.203 386.893 574.19 387.14 574.163 387.46H565.783C565.93 388.247 566.31 388.873 566.923 389.34C567.55 389.793 568.323 390.02 569.243 390.02C570.417 390.02 571.383 389.633 572.143 388.86L573.483 390.4C573.003 390.973 572.397 391.407 571.663 391.7C570.93 391.993 570.103 392.14 569.183 392.14C568.01 392.14 566.977 391.907 566.083 391.44C565.19 390.973 564.497 390.327 564.003 389.5C563.523 388.66 563.283 387.713 563.283 386.66C563.283 385.62 563.517 384.687 563.983 383.86C564.463 383.02 565.123 382.367 565.963 381.9C566.803 381.433 567.75 381.2 568.803 381.2C569.843 381.2 570.77 381.433 571.583 381.9C572.41 382.353 573.05 383 573.503 383.84C573.97 384.667 574.203 385.627 574.203 386.72ZM568.803 383.2C568.003 383.2 567.323 383.44 566.763 383.92C566.217 384.387 565.883 385.013 565.763 385.8H571.823C571.717 385.027 571.39 384.4 570.843 383.92C570.297 383.44 569.617 383.2 568.803 383.2ZM575.605 377.16H578.105V392H575.605V377.16ZM580.386 381.32H582.886V392H580.386V381.32ZM581.646 379.56C581.193 379.56 580.813 379.42 580.506 379.14C580.199 378.847 580.046 378.487 580.046 378.06C580.046 377.633 580.199 377.28 580.506 377C580.813 376.707 581.193 376.56 581.646 376.56C582.099 376.56 582.479 376.7 582.786 376.98C583.093 377.247 583.246 377.587 583.246 378C583.246 378.44 583.093 378.813 582.786 379.12C582.493 379.413 582.113 379.56 581.646 379.56ZM595.167 381.32L590.587 392H588.007L583.427 381.32H586.027L589.347 389.24L592.767 381.32H595.167ZM605.477 386.72C605.477 386.893 605.464 387.14 605.437 387.46H597.057C597.204 388.247 597.584 388.873 598.197 389.34C598.824 389.793 599.597 390.02 600.517 390.02C601.69 390.02 602.657 389.633 603.417 388.86L604.757 390.4C604.277 390.973 603.67 391.407 602.937 391.7C602.204 391.993 601.377 392.14 600.457 392.14C599.284 392.14 598.25 391.907 597.357 391.44C596.464 390.973 595.77 390.327 595.277 389.5C594.797 388.66 594.557 387.713 594.557 386.66C594.557 385.62 594.79 384.687 595.257 383.86C595.737 383.02 596.397 382.367 597.237 381.9C598.077 381.433 599.024 381.2 600.077 381.2C601.117 381.2 602.044 381.433 602.857 381.9C603.684 382.353 604.324 383 604.777 383.84C605.244 384.667 605.477 385.627 605.477 386.72ZM600.077 383.2C599.277 383.2 598.597 383.44 598.037 383.92C597.49 384.387 597.157 385.013 597.037 385.8H603.097C602.99 385.027 602.664 384.4 602.117 383.92C601.57 383.44 600.89 383.2 600.077 383.2ZM609.258 382.88C609.978 381.76 611.245 381.2 613.058 381.2V383.58C612.845 383.54 612.652 383.52 612.478 383.52C611.505 383.52 610.745 383.807 610.198 384.38C609.652 384.94 609.378 385.753 609.378 386.82V392H606.878V381.32H609.258V382.88ZM624.57 381.32L619.57 392.86C619.103 394.02 618.536 394.833 617.87 395.3C617.203 395.78 616.396 396.02 615.45 396.02C614.916 396.02 614.39 395.933 613.87 395.76C613.35 395.587 612.923 395.347 612.59 395.04L613.59 393.2C613.83 393.427 614.11 393.607 614.43 393.74C614.763 393.873 615.096 393.94 615.43 393.94C615.87 393.94 616.23 393.827 616.51 393.6C616.803 393.373 617.07 392.993 617.31 392.46L617.49 392.04L612.83 381.32H615.43L618.79 389.22L622.17 381.32H624.57Z" fill="#FFC107"/>
<g style="mix-blend-mode:luminosity" clip-path="url(#clip2_123_4911)">
<path d="M936.577 77.1401H927.872C927.566 77.1401 927.272 77.2611 927.056 77.4765C926.839 77.692 926.718 77.9841 926.718 78.2887V82.0914C926.718 82.396 926.839 82.6881 927.056 82.9035C927.272 83.1189 927.566 83.2399 927.872 83.2399H929.314V88.9376H935.134V83.2399H936.577C936.883 83.2399 937.176 83.1189 937.393 82.9035C937.609 82.6881 937.731 82.396 937.731 82.0914V78.2887C937.731 77.9841 937.609 77.692 937.393 77.4765C937.176 77.2611 936.883 77.1401 936.577 77.1401Z" fill="#FFC107"/>
<path d="M945.296 111.942C939.964 104.178 937.239 94.934 937.51 85.5344C937.515 85.3175 937.444 85.1056 937.31 84.9347C937.175 84.7639 936.986 84.6445 936.773 84.597V82.9539H927.58V84.5741H927.453C927.323 84.5743 927.195 84.6011 927.076 84.6528C926.957 84.7045 926.851 84.78 926.762 84.8746C926.674 84.9692 926.607 85.0809 926.564 85.2027C926.521 85.3245 926.504 85.4538 926.513 85.5825C927.238 95.6307 924.792 104.642 919.176 112.615C918.853 113.074 918.688 113.624 918.706 114.183L919.711 145.131C919.735 145.821 920.026 146.476 920.524 146.957C921.021 147.439 921.686 147.711 922.38 147.717H943.174C943.876 147.711 944.548 147.433 945.047 146.941C945.546 146.45 945.832 145.784 945.845 145.085L946.232 115.038C946.243 113.935 945.917 112.855 945.296 111.942Z" fill="#3F3D56"/>
<path opacity="0.2" d="M934.762 78.3792C934.762 79.0364 934.5 79.6667 934.033 80.1314C933.566 80.5961 932.932 80.8572 932.272 80.8572C931.612 80.8572 930.978 80.5961 930.512 80.1314C930.045 79.6667 929.782 79.0364 929.782 78.3792" fill="black"/>
<path d="M942.004 122.222H939.486C939.245 120.669 938.455 119.253 937.257 118.231C936.058 117.208 934.532 116.646 932.954 116.646C931.376 116.646 929.849 117.208 928.651 118.231C927.453 119.253 926.663 120.669 926.422 122.222H923.904C923.636 122.222 923.371 122.279 923.128 122.391C922.884 122.502 922.668 122.664 922.494 122.867C922.319 123.069 922.191 123.307 922.117 123.563C922.044 123.82 922.027 124.089 922.067 124.352L924.802 142.046H940.508L943.83 124.412C943.881 124.145 943.871 123.87 943.803 123.607C943.734 123.344 943.608 123.099 943.434 122.89C943.259 122.681 943.041 122.513 942.794 122.397C942.546 122.282 942.277 122.222 942.004 122.222Z" fill="#FFC107"/>
<path d="M1153.61 93.7815L1153 117.808L1152.25 147.601H1126.79L1125.92 112.695L1125.44 93.7815H1153.61Z" fill="#E6E6E6"/>
<path d="M1141.21 80.999H1137.61V128.54H1141.21V80.999Z" fill="#FFC107"/>
<path d="M1151.8 111.885L1151.12 146.034H1127.91L1127.12 106.025C1129.21 105.44 1131.4 105.291 1133.55 105.585C1135.7 105.88 1137.77 106.612 1139.62 107.736C1143.5 110.019 1147.85 111.247 1151.8 111.885Z" fill="#3F3D56"/>
<path d="M1133.66 115.729H1130.35V119.022H1133.66V115.729Z" fill="#E6E6E6"/>
<path d="M1135.91 109.002H1132.6V112.294H1135.91V109.002Z" fill="#E6E6E6"/>
<path d="M1143.02 113.659L1140.36 111.698L1138.39 114.342L1141.05 116.303L1143.02 113.659Z" fill="#E6E6E6"/>
<path d="M1148.99 119.492L1146.34 117.531L1144.37 120.176L1147.02 122.137L1148.99 119.492Z" fill="#E6E6E6"/>
<path d="M1138.85 122.856L1136.2 120.895L1134.23 123.539L1136.88 125.501L1138.85 122.856Z" fill="#E6E6E6"/>
<path d="M1146.62 107.685C1147 107.685 1147.3 107.384 1147.3 107.012C1147.3 106.641 1147 106.339 1146.62 106.339C1146.25 106.339 1145.95 106.641 1145.95 107.012C1145.95 107.384 1146.25 107.685 1146.62 107.685Z" fill="#3F3D56"/>
<path d="M1132.88 103.2C1133.25 103.2 1133.55 102.899 1133.55 102.527C1133.55 102.155 1133.25 101.854 1132.88 101.854C1132.5 101.854 1132.2 102.155 1132.2 102.527C1132.2 102.899 1132.5 103.2 1132.88 103.2Z" fill="#3F3D56"/>
<path d="M1144.37 98.4905C1144.74 98.4905 1145.04 98.1893 1145.04 97.8178C1145.04 97.4462 1144.74 97.145 1144.37 97.145C1144 97.145 1143.69 97.4462 1143.69 97.8178C1143.69 98.1893 1144 98.4905 1144.37 98.4905Z" fill="#3F3D56"/>
<path d="M1036.16 147.396C1077.05 147.396 1110.21 114.4 1110.21 73.6981C1110.21 32.9957 1077.05 0 1036.16 0C995.259 0 962.105 32.9957 962.105 73.6981C962.105 114.4 995.259 147.396 1036.16 147.396Z" fill="#FFC107"/>
<path opacity="0.2" d="M1036.16 127.491C1023.65 127.49 1011.53 123.175 1001.87 115.28C992.201 107.385 985.584 96.3984 983.145 84.1924C980.705 71.9865 982.594 59.3163 988.489 48.3408C994.383 37.3652 1003.92 28.7634 1015.47 24.0009C1027.03 19.2384 1039.88 18.6099 1051.85 22.2226C1063.81 25.8352 1074.15 33.4654 1081.1 43.8132C1088.04 54.1609 1091.17 66.5858 1089.95 78.971C1088.72 91.3561 1083.22 102.935 1074.37 111.735C1069.37 116.746 1063.41 120.718 1056.85 123.423C1050.29 126.127 1043.26 127.51 1036.16 127.491ZM1036.16 23.2232C1008.19 23.2232 985.439 45.8661 985.439 73.698C985.439 101.53 1008.19 124.173 1036.16 124.173C1064.12 124.173 1086.87 101.53 1086.87 73.698C1086.87 45.8661 1064.12 23.2232 1036.16 23.2232Z" fill="black"/>
<path d="M1036.16 125.832C1065.09 125.832 1088.54 102.491 1088.54 73.698C1088.54 44.9054 1065.09 21.5643 1036.16 21.5643C1007.23 21.5643 983.772 44.9054 983.772 73.698C983.772 102.491 1007.23 125.832 1036.16 125.832Z" fill="#3F3D56"/>
<path d="M997.199 52.8519C996.802 52.0775 996.562 51.2328 996.493 50.3661C996.424 49.4993 996.527 48.6275 996.797 47.8005C997.067 46.9735 997.498 46.2076 998.065 45.5464C998.632 44.8852 999.325 44.3418 1000.1 43.9473C1000.88 43.5527 1001.73 43.3147 1002.6 43.247C1003.47 43.1792 1004.35 43.2829 1005.18 43.5522C1006.01 43.8215 1006.78 44.2511 1007.44 44.8164C1008.11 45.3818 1008.65 46.0717 1009.05 46.8469L1023.85 75.7704C1024.24 76.5447 1024.48 77.3894 1024.55 78.2562C1024.62 79.1229 1024.52 79.9947 1024.25 80.8217C1023.98 81.6487 1023.55 82.4147 1022.98 83.0758C1022.41 83.737 1021.72 84.2804 1020.94 84.675C1020.16 85.0695 1019.32 85.3075 1018.44 85.3753C1017.57 85.4431 1016.7 85.3394 1015.87 85.0701C1015.04 84.8008 1014.27 84.3712 1013.6 83.8058C1012.94 83.2405 1012.39 82.5505 1012 81.7753L997.199 52.8519Z" fill="#FF6584"/>
<path opacity="0.2" d="M998.85 56.0781L998.167 54.7432C1001.58 52.1071 1005.58 50.1684 1010.02 48.7383L1010.7 50.0732C1005.9 51.0683 1001.81 52.9099 998.85 56.0781Z" fill="black"/>
<path opacity="0.2" d="M1002.04 62.3076L1001.35 60.9727C1004.76 58.3366 1008.77 56.3979 1013.2 54.9678L1013.89 56.3027C1009.08 57.2978 1005 59.1394 1002.04 62.3076Z" fill="black"/>
<path opacity="0.2" d="M1005.23 68.5374L1004.54 67.2025C1007.95 64.5663 1011.95 62.6276 1016.39 61.1975L1017.07 62.5324C1012.27 63.5275 1008.19 65.3691 1005.23 68.5374Z" fill="black"/>
<path opacity="0.2" d="M1008.41 74.7671L1007.73 73.4322C1011.14 70.7961 1015.14 68.8573 1019.58 67.4272L1020.26 68.7622C1015.46 69.7573 1011.37 71.5988 1008.41 74.7671Z" fill="black"/>
<path opacity="0.2" d="M1011.6 80.9966L1010.92 79.6617C1014.33 77.0256 1018.33 75.0868 1022.77 73.6567L1023.45 74.9917C1018.65 75.9868 1014.56 77.8283 1011.6 80.9966Z" fill="black"/>
<path d="M986.096 63.6799C985.699 62.9055 985.459 62.0609 985.39 61.1942C985.321 60.3275 985.425 59.4557 985.694 58.6288C985.964 57.8019 986.395 57.036 986.962 56.3749C987.53 55.7138 988.222 55.1704 989.001 54.7759C989.779 54.3814 990.628 54.1434 991.499 54.0756C992.37 54.0078 993.246 54.1114 994.076 54.3807C994.907 54.6499 995.676 55.0794 996.34 55.6447C997.004 56.2099 997.549 56.8998 997.945 57.6749L1012.74 86.5984C1013.54 88.1618 1013.68 89.9766 1013.14 91.6439C1012.59 93.3113 1011.4 94.6948 1009.83 95.4905C1008.26 96.2863 1006.44 96.4292 1004.76 95.8878C1003.09 95.3464 1001.7 94.1651 1000.9 92.6033L986.096 63.6799Z" fill="#FF6584"/>
<path opacity="0.2" d="M987.747 66.906L987.064 65.5711C990.473 62.935 994.476 60.9963 998.912 59.5662L999.595 60.9011C994.794 61.8962 990.709 63.7377 987.747 66.906Z" fill="black"/>
<path opacity="0.2" d="M990.935 73.1355L990.252 71.8006C993.661 69.1645 997.664 67.2258 1002.1 65.7957L1002.78 67.1306C997.981 68.1257 993.897 69.9672 990.935 73.1355Z" fill="black"/>
<path opacity="0.2" d="M994.122 79.3653L993.439 78.0303C996.848 75.3942 1000.85 73.4555 1005.29 72.0254L1005.97 73.3603C1001.17 74.3554 997.084 76.197 994.122 79.3653Z" fill="black"/>
<path opacity="0.2" d="M997.31 85.5947L996.627 84.2598C1000.04 81.6237 1004.04 79.685 1008.48 78.2549L1009.16 79.5898C1004.36 80.5849 1000.27 82.4265 997.31 85.5947Z" fill="black"/>
<path opacity="0.2" d="M1000.5 91.8245L999.814 90.4896C1003.22 87.8534 1007.23 85.9147 1011.66 84.4846L1012.35 85.8195C1007.54 86.8146 1003.46 88.6562 1000.5 91.8245Z" fill="black"/>
<path d="M1071.16 75.3569L1071.2 75.3569C1072.8 75.3702 1074.36 74.9051 1075.68 74.0222C1077.01 73.1392 1078.03 71.8795 1078.63 70.4074C1079.85 67.3325 1080.47 64.0522 1080.44 60.7456C1080.36 46.7498 1068.92 35.2679 1054.86 35.0743C1048.87 34.9909 1043.04 36.971 1038.35 40.679C1033.66 44.387 1030.4 49.5947 1029.13 55.4193C1027.86 61.244 1028.65 67.3272 1031.37 72.6377C1034.09 77.9482 1038.57 82.1594 1044.05 84.5572C1045.5 85.1957 1047.11 85.3835 1048.67 85.0959C1050.23 84.8084 1051.66 84.0589 1052.78 82.9458C1055.19 80.5367 1058.05 78.6259 1061.21 77.3234C1064.36 76.0209 1067.74 75.3525 1071.16 75.3569Z" fill="#E6E6E6"/>
<path d="M1057.82 67.5368C1062.56 67.5368 1066.39 63.7173 1066.39 59.0058C1066.39 54.2943 1062.56 50.4749 1057.82 50.4749C1053.09 50.4749 1049.25 54.2943 1049.25 59.0058C1049.25 63.7173 1053.09 67.5368 1057.82 67.5368Z" fill="#F9A825"/>
<path d="M1039.19 58.0466C1039.75 58.0466 1040.2 57.5966 1040.2 57.0416C1040.2 56.4866 1039.75 56.0366 1039.19 56.0366C1038.64 56.0366 1038.18 56.4866 1038.18 57.0416C1038.18 57.5966 1038.64 58.0466 1039.19 58.0466Z" fill="#3F3D56"/>
<path d="M1005.86 58.9943C1006.42 58.9943 1006.87 58.5444 1006.87 57.9894C1006.87 57.4343 1006.42 56.9844 1005.86 56.9844C1005.3 56.9844 1004.85 57.4343 1004.85 57.9894C1004.85 58.5444 1005.3 58.9943 1005.86 58.9943Z" fill="#3F3D56"/>
<path d="M1044.58 47.6313C1045.13 47.6313 1045.59 47.1814 1045.59 46.6263C1045.59 46.0713 1045.13 45.6213 1044.58 45.6213C1044.02 45.6213 1043.57 46.0713 1043.57 46.6263C1043.57 47.1814 1044.02 47.6313 1044.58 47.6313Z" fill="#3F3D56"/>
<path d="M1044.55 76.5988C1045.1 76.5988 1045.56 76.1489 1045.56 75.5939C1045.56 75.0388 1045.1 74.5889 1044.55 74.5889C1043.99 74.5889 1043.54 75.0388 1043.54 75.5939C1043.54 76.1489 1043.99 76.5988 1044.55 76.5988Z" fill="#3F3D56"/>
<path d="M1064.55 45.5556C1065.11 45.5556 1065.56 45.1057 1065.56 44.5506C1065.56 43.9956 1065.11 43.5457 1064.55 43.5457C1063.99 43.5457 1063.54 43.9956 1063.54 44.5506C1063.54 45.1057 1063.99 45.5556 1064.55 45.5556Z" fill="#3F3D56"/>
<path d="M999.307 73.0442C999.864 73.0442 1000.32 72.5942 1000.32 72.0392C1000.32 71.4841 999.864 71.0342 999.307 71.0342C998.749 71.0342 998.297 71.4841 998.297 72.0392C998.297 72.5942 998.749 73.0442 999.307 73.0442Z" fill="#3F3D56"/>
<path d="M1006.69 87.4995C1007.25 87.4995 1007.7 87.0495 1007.7 86.4945C1007.7 85.9395 1007.25 85.4895 1006.69 85.4895C1006.13 85.4895 1005.68 85.9395 1005.68 86.4945C1005.68 87.0495 1006.13 87.4995 1006.69 87.4995Z" fill="#3F3D56"/>
<path d="M1053.06 92.1817C1055.17 92.1817 1056.87 90.4842 1056.87 88.3902C1056.87 86.2962 1055.17 84.5986 1053.06 84.5986C1050.96 84.5986 1049.25 86.2962 1049.25 88.3902C1049.25 90.4842 1050.96 92.1817 1053.06 92.1817Z" fill="#FF6584"/>
<path opacity="0.2" d="M1055.92 88.6272C1055.92 89.3814 1055.62 90.1047 1055.08 90.638C1054.55 91.1713 1053.82 91.4709 1053.06 91.4709C1052.3 91.4709 1051.58 91.1713 1051.04 90.638C1050.5 90.1047 1050.2 89.3814 1050.2 88.6272" fill="black"/>
<path opacity="0.2" d="M1050.2 88.1532C1050.2 87.399 1050.5 86.6757 1051.04 86.1425C1051.58 85.6092 1052.3 85.3096 1053.06 85.3096C1053.82 85.3096 1054.55 85.6092 1055.08 86.1425C1055.62 86.6757 1055.92 87.399 1055.92 88.1532" fill="black"/>
<path d="M1051.63 87.4424C1051.76 87.4424 1051.87 87.2832 1051.87 87.0869C1051.87 86.8906 1051.76 86.7314 1051.63 86.7314C1051.5 86.7314 1051.39 86.8906 1051.39 87.0869C1051.39 87.2832 1051.5 87.4424 1051.63 87.4424Z" fill="#FF6584"/>
<path d="M1053.06 86.9685C1053.19 86.9685 1053.3 86.8093 1053.3 86.613C1053.3 86.4167 1053.19 86.2576 1053.06 86.2576C1052.93 86.2576 1052.82 86.4167 1052.82 86.613C1052.82 86.8093 1052.93 86.9685 1053.06 86.9685Z" fill="#FF6584"/>
<path d="M1053.06 90.0491C1053.19 90.0491 1053.3 89.8899 1053.3 89.6936C1053.3 89.4973 1053.19 89.3381 1053.06 89.3381C1052.93 89.3381 1052.82 89.4973 1052.82 89.6936C1052.82 89.8899 1052.93 90.0491 1053.06 90.0491Z" fill="#FF6584"/>
<path d="M1054.49 88.1533C1054.62 88.1533 1054.73 87.9942 1054.73 87.7978C1054.73 87.6015 1054.62 87.4424 1054.49 87.4424C1054.36 87.4424 1054.25 87.6015 1054.25 87.7978C1054.25 87.9942 1054.36 88.1533 1054.49 88.1533Z" fill="#FF6584"/>
<path d="M1054.25 90.76C1054.38 90.76 1054.49 90.6009 1054.49 90.4045C1054.49 90.2082 1054.38 90.0491 1054.25 90.0491C1054.12 90.0491 1054.01 90.2082 1054.01 90.4045C1054.01 90.6009 1054.12 90.76 1054.25 90.76Z" fill="#FF6584"/>
<path d="M1051.39 89.5752C1051.53 89.5752 1051.63 89.416 1051.63 89.2197C1051.63 89.0234 1051.53 88.8643 1051.39 88.8643C1051.26 88.8643 1051.16 89.0234 1051.16 89.2197C1051.16 89.416 1051.26 89.5752 1051.39 89.5752Z" fill="#FF6584"/>
<path d="M1060.68 81.992C1062.78 81.992 1064.49 80.2945 1064.49 78.2005C1064.49 76.1065 1062.78 74.4089 1060.68 74.4089C1058.58 74.4089 1056.87 76.1065 1056.87 78.2005C1056.87 80.2945 1058.58 81.992 1060.68 81.992Z" fill="#FF6584"/>
<path opacity="0.2" d="M1063.54 78.4375C1063.54 79.1917 1063.24 79.915 1062.7 80.4483C1062.17 80.9816 1061.44 81.2812 1060.68 81.2812C1059.92 81.2812 1059.2 80.9816 1058.66 80.4483C1058.12 79.915 1057.82 79.1917 1057.82 78.4375" fill="black"/>
<path opacity="0.2" d="M1057.82 77.9635C1057.82 77.2093 1058.12 76.486 1058.66 75.9528C1059.2 75.4195 1059.92 75.1199 1060.68 75.1199C1061.44 75.1199 1062.17 75.4195 1062.7 75.9528C1063.24 76.486 1063.54 77.2093 1063.54 77.9635" fill="black"/>
<path d="M1059.25 77.2527C1059.38 77.2527 1059.49 77.0935 1059.49 76.8972C1059.49 76.7009 1059.38 76.5417 1059.25 76.5417C1059.12 76.5417 1059.01 76.7009 1059.01 76.8972C1059.01 77.0935 1059.12 77.2527 1059.25 77.2527Z" fill="#FF6584"/>
<path d="M1060.68 76.7788C1060.81 76.7788 1060.92 76.6196 1060.92 76.4233C1060.92 76.227 1060.81 76.0679 1060.68 76.0679C1060.55 76.0679 1060.44 76.227 1060.44 76.4233C1060.44 76.6196 1060.55 76.7788 1060.68 76.7788Z" fill="#FF6584"/>
<path d="M1060.68 79.8594C1060.81 79.8594 1060.92 79.7002 1060.92 79.5039C1060.92 79.3076 1060.81 79.1484 1060.68 79.1484C1060.55 79.1484 1060.44 79.3076 1060.44 79.5039C1060.44 79.7002 1060.55 79.8594 1060.68 79.8594Z" fill="#FF6584"/>
<path d="M1062.11 77.9636C1062.24 77.9636 1062.35 77.8045 1062.35 77.6081C1062.35 77.4118 1062.24 77.2527 1062.11 77.2527C1061.98 77.2527 1061.87 77.4118 1061.87 77.6081C1061.87 77.8045 1061.98 77.9636 1062.11 77.9636Z" fill="#FF6584"/>
<path d="M1061.87 80.5703C1062 80.5703 1062.11 80.4111 1062.11 80.2148C1062.11 80.0185 1062 79.8594 1061.87 79.8594C1061.74 79.8594 1061.63 80.0185 1061.63 80.2148C1061.63 80.4111 1061.74 80.5703 1061.87 80.5703Z" fill="#FF6584"/>
<path d="M1059.01 79.3855C1059.15 79.3855 1059.25 79.2263 1059.25 79.03C1059.25 78.8337 1059.15 78.6746 1059.01 78.6746C1058.88 78.6746 1058.78 78.8337 1058.78 79.03C1058.78 79.2263 1058.88 79.3855 1059.01 79.3855Z" fill="#FF6584"/>
<path d="M1068.3 87.2054C1070.4 87.2054 1072.11 85.5079 1072.11 83.4139C1072.11 81.3198 1070.4 79.6223 1068.3 79.6223C1066.2 79.6223 1064.49 81.3198 1064.49 83.4139C1064.49 85.5079 1066.2 87.2054 1068.3 87.2054Z" fill="#FFC107"/>
<path opacity="0.2" d="M1071.16 83.6509C1071.16 84.4051 1070.86 85.1284 1070.32 85.6617C1069.78 86.1949 1069.06 86.4945 1068.3 86.4945C1067.54 86.4945 1066.82 86.1949 1066.28 85.6617C1065.74 85.1284 1065.44 84.4051 1065.44 83.6509" fill="black"/>
<path opacity="0.2" d="M1065.44 83.1769C1065.44 82.4227 1065.74 81.6994 1066.28 81.1661C1066.82 80.6329 1067.54 80.3333 1068.3 80.3333C1069.06 80.3333 1069.78 80.6329 1070.32 81.1661C1070.86 81.6994 1071.16 82.4227 1071.16 83.1769" fill="black"/>
<path d="M1066.87 82.466C1067 82.466 1067.11 82.3069 1067.11 82.1106C1067.11 81.9143 1067 81.7551 1066.87 81.7551C1066.74 81.7551 1066.63 81.9143 1066.63 82.1106C1066.63 82.3069 1066.74 82.466 1066.87 82.466Z" fill="#FFC107"/>
<path d="M1068.3 81.9922C1068.43 81.9922 1068.54 81.833 1068.54 81.6367C1068.54 81.4404 1068.43 81.2812 1068.3 81.2812C1068.17 81.2812 1068.06 81.4404 1068.06 81.6367C1068.06 81.833 1068.17 81.9922 1068.3 81.9922Z" fill="#FFC107"/>
<path d="M1068.3 85.0727C1068.43 85.0727 1068.54 84.9136 1068.54 84.7173C1068.54 84.521 1068.43 84.3618 1068.3 84.3618C1068.17 84.3618 1068.06 84.521 1068.06 84.7173C1068.06 84.9136 1068.17 85.0727 1068.3 85.0727Z" fill="#FFC107"/>
<path d="M1069.73 83.177C1069.86 83.177 1069.97 83.0178 1069.97 82.8215C1069.97 82.6252 1069.86 82.4661 1069.73 82.4661C1069.6 82.4661 1069.49 82.6252 1069.49 82.8215C1069.49 83.0178 1069.6 83.177 1069.73 83.177Z" fill="#FFC107"/>
<path d="M1069.49 85.7837C1069.62 85.7837 1069.73 85.6245 1069.73 85.4282C1069.73 85.2319 1069.62 85.0728 1069.49 85.0728C1069.36 85.0728 1069.25 85.2319 1069.25 85.4282C1069.25 85.6245 1069.36 85.7837 1069.49 85.7837Z" fill="#FFC107"/>
<path d="M1066.63 84.5986C1066.76 84.5986 1066.87 84.4395 1066.87 84.2432C1066.87 84.0468 1066.76 83.8877 1066.63 83.8877C1066.5 83.8877 1066.4 84.0468 1066.4 84.2432C1066.4 84.4395 1066.5 84.5986 1066.63 84.5986Z" fill="#FFC107"/>
<path d="M1049.25 87.6793C1051.36 87.6793 1053.06 85.9817 1053.06 83.8877C1053.06 81.7937 1051.36 80.0962 1049.25 80.0962C1047.15 80.0962 1045.44 81.7937 1045.44 83.8877C1045.44 85.9817 1047.15 87.6793 1049.25 87.6793Z" fill="#FFC107"/>
<path opacity="0.2" d="M1052.11 84.1248C1052.11 84.8789 1051.81 85.6022 1051.27 86.1355C1050.74 86.6688 1050.01 86.9684 1049.25 86.9684C1048.49 86.9684 1047.77 86.6688 1047.23 86.1355C1046.7 85.6022 1046.39 84.8789 1046.39 84.1248" fill="black"/>
<path opacity="0.2" d="M1046.39 83.6508C1046.39 82.8966 1046.7 82.1733 1047.23 81.64C1047.77 81.1067 1048.49 80.8071 1049.25 80.8071C1050.01 80.8071 1050.74 81.1067 1051.27 81.64C1051.81 82.1733 1052.11 82.8966 1052.11 83.6508" fill="black"/>
<path d="M1047.82 82.9399C1047.95 82.9399 1048.06 82.7808 1048.06 82.5845C1048.06 82.3881 1047.95 82.229 1047.82 82.229C1047.69 82.229 1047.58 82.3881 1047.58 82.5845C1047.58 82.7808 1047.69 82.9399 1047.82 82.9399Z" fill="#FFC107"/>
<path d="M1049.25 82.466C1049.38 82.466 1049.49 82.3069 1049.49 82.1106C1049.49 81.9143 1049.38 81.7551 1049.25 81.7551C1049.12 81.7551 1049.01 81.9143 1049.01 82.1106C1049.01 82.3069 1049.12 82.466 1049.25 82.466Z" fill="#FFC107"/>
<path d="M1049.25 85.5466C1049.38 85.5466 1049.49 85.3875 1049.49 85.1912C1049.49 84.9948 1049.38 84.8357 1049.25 84.8357C1049.12 84.8357 1049.01 84.9948 1049.01 85.1912C1049.01 85.3875 1049.12 85.5466 1049.25 85.5466Z" fill="#FFC107"/>
<path d="M1050.68 83.6509C1050.81 83.6509 1050.92 83.4917 1050.92 83.2954C1050.92 83.0991 1050.81 82.9399 1050.68 82.9399C1050.55 82.9399 1050.44 83.0991 1050.44 83.2954C1050.44 83.4917 1050.55 83.6509 1050.68 83.6509Z" fill="#FFC107"/>
<path d="M1050.44 86.2575C1050.57 86.2575 1050.68 86.0984 1050.68 85.9021C1050.68 85.7058 1050.57 85.5466 1050.44 85.5466C1050.31 85.5466 1050.2 85.7058 1050.2 85.9021C1050.2 86.0984 1050.31 86.2575 1050.44 86.2575Z" fill="#FFC107"/>
<path d="M1047.58 85.0727C1047.72 85.0727 1047.82 84.9136 1047.82 84.7173C1047.82 84.521 1047.72 84.3618 1047.58 84.3618C1047.45 84.3618 1047.35 84.521 1047.35 84.7173C1047.35 84.9136 1047.45 85.0727 1047.58 85.0727Z" fill="#FFC107"/>
<path d="M1057.82 89.3382C1059.93 89.3382 1061.63 87.6407 1061.63 85.5467C1061.63 83.4527 1059.93 81.7551 1057.82 81.7551C1055.72 81.7551 1054.01 83.4527 1054.01 85.5467C1054.01 87.6407 1055.72 89.3382 1057.82 89.3382Z" fill="#FFC107"/>
<path opacity="0.2" d="M1060.68 85.7837C1060.68 86.1571 1060.61 86.5269 1060.46 86.8719C1060.32 87.2169 1060.11 87.5304 1059.84 87.7945C1059.58 88.0585 1059.26 88.268 1058.92 88.4109C1058.57 88.5538 1058.2 88.6273 1057.82 88.6273C1057.45 88.6273 1057.08 88.5538 1056.73 88.4109C1056.38 88.268 1056.07 88.0585 1055.8 87.7945C1055.54 87.5304 1055.33 87.2169 1055.18 86.8719C1055.04 86.5269 1054.97 86.1571 1054.97 85.7837" fill="black"/>
<path opacity="0.2" d="M1054.97 85.3097C1054.97 84.9363 1055.04 84.5665 1055.18 84.2215C1055.33 83.8765 1055.54 83.563 1055.8 83.299C1056.07 83.0349 1056.38 82.8254 1056.73 82.6825C1057.08 82.5396 1057.45 82.4661 1057.82 82.4661C1058.2 82.4661 1058.57 82.5396 1058.92 82.6825C1059.26 82.8254 1059.58 83.0349 1059.84 83.299C1060.11 83.563 1060.32 83.8765 1060.46 84.2215C1060.61 84.5665 1060.68 84.9363 1060.68 85.3097" fill="black"/>
<path d="M1056.39 84.5986C1056.53 84.5986 1056.63 84.4395 1056.63 84.2432C1056.63 84.0468 1056.53 83.8877 1056.39 83.8877C1056.26 83.8877 1056.16 84.0468 1056.16 84.2432C1056.16 84.4395 1056.26 84.5986 1056.39 84.5986Z" fill="#FFC107"/>
<path d="M1057.82 84.1247C1057.95 84.1247 1058.06 83.9656 1058.06 83.7693C1058.06 83.573 1057.95 83.4138 1057.82 83.4138C1057.69 83.4138 1057.59 83.573 1057.59 83.7693C1057.59 83.9656 1057.69 84.1247 1057.82 84.1247Z" fill="#FFC107"/>
<path d="M1057.82 87.2053C1057.95 87.2053 1058.06 87.0462 1058.06 86.8498C1058.06 86.6535 1057.95 86.4944 1057.82 86.4944C1057.69 86.4944 1057.59 86.6535 1057.59 86.8498C1057.59 87.0462 1057.69 87.2053 1057.82 87.2053Z" fill="#FFC107"/>
<path d="M1059.25 85.3095C1059.38 85.3095 1059.49 85.1504 1059.49 84.9541C1059.49 84.7578 1059.38 84.5986 1059.25 84.5986C1059.12 84.5986 1059.01 84.7578 1059.01 84.9541C1059.01 85.1504 1059.12 85.3095 1059.25 85.3095Z" fill="#FFC107"/>
<path d="M1059.01 87.9162C1059.15 87.9162 1059.25 87.7571 1059.25 87.5608C1059.25 87.3645 1059.15 87.2053 1059.01 87.2053C1058.88 87.2053 1058.78 87.3645 1058.78 87.5608C1058.78 87.7571 1058.88 87.9162 1059.01 87.9162Z" fill="#FFC107"/>
<path d="M1056.16 86.7314C1056.29 86.7314 1056.39 86.5723 1056.39 86.376C1056.39 86.1797 1056.29 86.0205 1056.16 86.0205C1056.02 86.0205 1055.92 86.1797 1055.92 86.376C1055.92 86.5723 1056.02 86.7314 1056.16 86.7314Z" fill="#FFC107"/>
<path d="M1063.78 93.3668C1065.88 93.3668 1067.59 91.6692 1067.59 89.5752C1067.59 87.4812 1065.88 85.7837 1063.78 85.7837C1061.67 85.7837 1059.97 87.4812 1059.97 89.5752C1059.97 91.6692 1061.67 93.3668 1063.78 93.3668Z" fill="#FF6584"/>
<path opacity="0.2" d="M1066.63 89.812C1066.63 90.5662 1066.33 91.2895 1065.8 91.8228C1065.26 92.3561 1064.53 92.6557 1063.78 92.6557C1063.02 92.6557 1062.29 92.3561 1061.76 91.8228C1061.22 91.2895 1060.92 90.5662 1060.92 89.812" fill="black"/>
<path opacity="0.2" d="M1060.92 89.3383C1060.92 88.5841 1061.22 87.8608 1061.76 87.3275C1062.29 86.7942 1063.02 86.4946 1063.78 86.4946C1064.53 86.4946 1065.26 86.7942 1065.8 87.3275C1066.33 87.8608 1066.63 88.5841 1066.63 89.3383" fill="black"/>
<path d="M1062.35 88.6272C1062.48 88.6272 1062.59 88.468 1062.59 88.2717C1062.59 88.0754 1062.48 87.9163 1062.35 87.9163C1062.22 87.9163 1062.11 88.0754 1062.11 88.2717C1062.11 88.468 1062.22 88.6272 1062.35 88.6272Z" fill="#FF6584"/>
<path d="M1063.78 88.1533C1063.91 88.1533 1064.01 87.9942 1064.01 87.7978C1064.01 87.6015 1063.91 87.4424 1063.78 87.4424C1063.64 87.4424 1063.54 87.6015 1063.54 87.7978C1063.54 87.9942 1063.64 88.1533 1063.78 88.1533Z" fill="#FF6584"/>
<path d="M1063.78 91.2339C1063.91 91.2339 1064.01 91.0747 1064.01 90.8784C1064.01 90.6821 1063.91 90.5229 1063.78 90.5229C1063.64 90.5229 1063.54 90.6821 1063.54 90.8784C1063.54 91.0747 1063.64 91.2339 1063.78 91.2339Z" fill="#FF6584"/>
<path d="M1065.2 89.3381C1065.34 89.3381 1065.44 89.179 1065.44 88.9827C1065.44 88.7863 1065.34 88.6272 1065.2 88.6272C1065.07 88.6272 1064.97 88.7863 1064.97 88.9827C1064.97 89.179 1065.07 89.3381 1065.2 89.3381Z" fill="#FF6584"/>
<path d="M1064.97 91.9448C1065.1 91.9448 1065.2 91.7857 1065.2 91.5894C1065.2 91.393 1065.1 91.2339 1064.97 91.2339C1064.83 91.2339 1064.73 91.393 1064.73 91.5894C1064.73 91.7857 1064.83 91.9448 1064.97 91.9448Z" fill="#FF6584"/>
<path d="M1062.11 90.76C1062.24 90.76 1062.35 90.6009 1062.35 90.4045C1062.35 90.2082 1062.24 90.0491 1062.11 90.0491C1061.98 90.0491 1061.87 90.2082 1061.87 90.4045C1061.87 90.6009 1061.98 90.76 1062.11 90.76Z" fill="#FF6584"/>
<path d="M1014.78 76.125C1015.34 76.125 1015.79 75.675 1015.79 75.12C1015.79 74.5649 1015.34 74.115 1014.78 74.115C1014.23 74.115 1013.77 74.5649 1013.77 75.12C1013.77 75.675 1014.23 76.125 1014.78 76.125Z" fill="#3F3D56"/>
<path d="M1042.23 111.598L1017.98 104.905L1018.91 101.47L1043.16 108.164L1042.23 111.598Z" fill="#F9A825"/>
<path d="M1038.68 110.451C1030.37 112.033 1021.84 112.033 1013.54 110.451V106.891C1021.86 108.264 1030.35 108.264 1038.68 106.891V110.451Z" fill="#F9A825"/>
<path d="M1041.26 99.7705C1032.96 101.353 1024.43 101.353 1016.12 99.7705V96.2104C1024.44 97.5834 1032.94 97.5834 1041.26 96.2104V99.7705Z" fill="#F9A825"/>
<path d="M1049.95 104.043C1041.65 105.625 1033.12 105.625 1024.81 104.043V100.482C1033.14 101.855 1041.63 101.855 1049.95 100.482V104.043Z" fill="#F9A825"/>
<path d="M1052.07 108.077C1043.76 109.659 1035.23 109.659 1026.93 108.077V104.517C1035.25 105.89 1043.75 105.89 1052.07 104.517V108.077Z" fill="#F9A825"/>
<path d="M1059.44 113.35L1034.64 117.496L1034.06 113.984L1058.87 109.837L1059.44 113.35Z" fill="#F9A825"/>
<path d="M1055.74 113.806C1048.86 118.739 1041.11 122.337 1032.89 124.41L1031.42 121.175C1039.57 118.905 1047.28 115.323 1054.27 110.571L1055.74 113.806Z" fill="#F9A825"/>
<path d="M1053.67 103.011C1046.79 107.945 1039.04 111.542 1030.83 113.615L1029.35 110.38C1037.5 108.11 1045.22 104.528 1052.2 99.7764L1053.67 103.011Z" fill="#F9A825"/>
<path d="M1063.34 103.226C1056.46 108.16 1048.71 111.757 1040.49 113.83L1039.02 110.595C1047.17 108.325 1054.88 104.743 1061.86 99.9915L1063.34 103.226Z" fill="#F9A825"/>
<path d="M1066.93 106.001C1060.05 110.934 1052.3 114.532 1044.08 116.604L1042.61 113.37C1050.75 111.1 1058.47 107.518 1065.45 102.766L1066.93 106.001Z" fill="#F9A825"/>
<path d="M1036.87 99.054H1035.68V100.239H1036.87V99.054Z" fill="#00BF71"/>
<path d="M1040.44 119.67H1039.25V120.855H1040.44V119.67Z" fill="#00BF71"/>
<path d="M1021.39 99.054H1020.2V100.239H1021.39V99.054Z" fill="#00BF71"/>
<path d="M1049.01 113.746H1047.82V114.931H1049.01V113.746Z" fill="#00BF71"/>
<path d="M1049.73 106.874H1048.54V108.059H1049.73V106.874Z" fill="#00BF71"/>
<path d="M1030.09 103.63L1028.71 102.698L1028.17 103.483L1029.55 104.414L1030.09 103.63Z" fill="#00BF71"/>
<path d="M1044.14 106.236L1042.76 105.305L1042.22 106.09L1043.6 107.021L1044.14 106.236Z" fill="#00BF71"/>
<path d="M1026.99 110.739L1025.61 109.808L1025.08 110.592L1026.46 111.523L1026.99 110.739Z" fill="#00BF71"/>
<path d="M1035.72 110.67L1036.66 109.297L1035.87 108.765L1034.94 110.138L1035.72 110.67Z" fill="#00BF71"/>
<path d="M1042.15 112.329L1043.09 110.956L1042.3 110.424L1041.37 111.797L1042.15 112.329Z" fill="#00BF71"/>
<path d="M1059.3 106.641L1060.23 105.269L1059.45 104.736L1058.51 106.109L1059.3 106.641Z" fill="#00BF71"/>
<path d="M1172 147.317H900V148H1172V147.317Z" fill="#3F3D56"/>
</g>
<path d="M995.88 397.82V400H985.38V386H995.6V388.18H987.98V391.82H994.74V393.96H987.98V397.82H995.88ZM1003.6 389.2C1004.95 389.2 1006.03 389.593 1006.84 390.38C1007.65 391.167 1008.06 392.333 1008.06 393.88V400H1005.56V394.2C1005.56 393.267 1005.34 392.567 1004.9 392.1C1004.46 391.62 1003.83 391.38 1003.02 391.38C1002.1 391.38 1001.37 391.66 1000.84 392.22C1000.31 392.767 1000.04 393.56 1000.04 394.6V400H997.538V389.32H999.918V390.7C1000.33 390.207 1000.85 389.833 1001.48 389.58C1002.11 389.327 1002.81 389.2 1003.6 389.2ZM1009.13 404.02C1008.08 404.02 1007.28 403.813 1006.73 403.4L1007.45 401.54C1007.82 401.82 1008.31 401.96 1008.91 401.96C1009.38 401.96 1009.73 401.813 1009.97 401.52C1010.22 401.24 1010.35 400.82 1010.35 400.26V389.32H1012.85V400.2C1012.85 401.387 1012.52 402.32 1011.87 403C1011.22 403.68 1010.3 404.02 1009.13 404.02ZM1011.59 387.56C1011.14 387.56 1010.76 387.42 1010.45 387.14C1010.14 386.847 1009.99 386.487 1009.99 386.06C1009.99 385.633 1010.14 385.28 1010.45 385C1010.76 384.707 1011.14 384.56 1011.59 384.56C1012.04 384.56 1012.42 384.7 1012.73 384.98C1013.04 385.247 1013.19 385.587 1013.19 386C1013.19 386.44 1013.04 386.813 1012.73 387.12C1012.44 387.413 1012.06 387.56 1011.59 387.56ZM1019.93 400.14C1018.85 400.14 1017.87 399.907 1017.01 399.44C1016.14 398.973 1015.46 398.327 1014.97 397.5C1014.49 396.66 1014.25 395.713 1014.25 394.66C1014.25 393.607 1014.49 392.667 1014.97 391.84C1015.46 391.013 1016.14 390.367 1017.01 389.9C1017.87 389.433 1018.85 389.2 1019.93 389.2C1021.02 389.2 1022 389.433 1022.87 389.9C1023.73 390.367 1024.41 391.013 1024.89 391.84C1025.38 392.667 1025.63 393.607 1025.63 394.66C1025.63 395.713 1025.38 396.66 1024.89 397.5C1024.41 398.327 1023.73 398.973 1022.87 399.44C1022 399.907 1021.02 400.14 1019.93 400.14ZM1019.93 398C1020.85 398 1021.61 397.693 1022.21 397.08C1022.81 396.467 1023.11 395.66 1023.11 394.66C1023.11 393.66 1022.81 392.853 1022.21 392.24C1021.61 391.627 1020.85 391.32 1019.93 391.32C1019.01 391.32 1018.25 391.627 1017.65 392.24C1017.06 392.853 1016.77 393.66 1016.77 394.66C1016.77 395.66 1017.06 396.467 1017.65 397.08C1018.25 397.693 1019.01 398 1019.93 398ZM1036.73 389.32L1031.73 400.86C1031.26 402.02 1030.69 402.833 1030.03 403.3C1029.36 403.78 1028.55 404.02 1027.61 404.02C1027.07 404.02 1026.55 403.933 1026.03 403.76C1025.51 403.587 1025.08 403.347 1024.75 403.04L1025.75 401.2C1025.99 401.427 1026.27 401.607 1026.59 401.74C1026.92 401.873 1027.25 401.94 1027.59 401.94C1028.03 401.94 1028.39 401.827 1028.67 401.6C1028.96 401.373 1029.23 400.993 1029.47 400.46L1029.65 400.04L1024.99 389.32H1027.59L1030.95 397.22L1034.33 389.32H1036.73ZM1050.77 389.2C1052.12 389.2 1053.18 389.593 1053.97 390.38C1054.76 391.153 1055.15 392.32 1055.15 393.88V400H1052.65V394.2C1052.65 393.267 1052.44 392.567 1052.03 392.1C1051.62 391.62 1051.02 391.38 1050.25 391.38C1049.41 391.38 1048.74 391.66 1048.23 392.22C1047.72 392.767 1047.47 393.553 1047.47 394.58V400H1044.97V394.2C1044.97 393.267 1044.76 392.567 1044.35 392.1C1043.94 391.62 1043.34 391.38 1042.57 391.38C1041.72 391.38 1041.04 391.653 1040.53 392.2C1040.04 392.747 1039.79 393.54 1039.79 394.58V400H1037.29V389.32H1039.67V390.68C1040.07 390.2 1040.57 389.833 1041.17 389.58C1041.77 389.327 1042.44 389.2 1043.17 389.2C1043.97 389.2 1044.68 389.353 1045.29 389.66C1045.92 389.953 1046.41 390.393 1046.77 390.98C1047.21 390.42 1047.78 389.987 1048.47 389.68C1049.16 389.36 1049.93 389.2 1050.77 389.2ZM1067.48 394.72C1067.48 394.893 1067.47 395.14 1067.44 395.46H1059.06C1059.21 396.247 1059.59 396.873 1060.2 397.34C1060.83 397.793 1061.6 398.02 1062.52 398.02C1063.69 398.02 1064.66 397.633 1065.42 396.86L1066.76 398.4C1066.28 398.973 1065.67 399.407 1064.94 399.7C1064.21 399.993 1063.38 400.14 1062.46 400.14C1061.29 400.14 1060.25 399.907 1059.36 399.44C1058.47 398.973 1057.77 398.327 1057.28 397.5C1056.8 396.66 1056.56 395.713 1056.56 394.66C1056.56 393.62 1056.79 392.687 1057.26 391.86C1057.74 391.02 1058.4 390.367 1059.24 389.9C1060.08 389.433 1061.03 389.2 1062.08 389.2C1063.12 389.2 1064.05 389.433 1064.86 389.9C1065.69 390.353 1066.33 391 1066.78 391.84C1067.25 392.667 1067.48 393.627 1067.48 394.72ZM1062.08 391.2C1061.28 391.2 1060.6 391.44 1060.04 391.92C1059.49 392.387 1059.16 393.013 1059.04 393.8H1065.1C1064.99 393.027 1064.67 392.4 1064.12 391.92C1063.57 391.44 1062.89 391.2 1062.08 391.2ZM1074.94 389.2C1076.29 389.2 1077.37 389.593 1078.18 390.38C1079 391.167 1079.4 392.333 1079.4 393.88V400H1076.9V394.2C1076.9 393.267 1076.68 392.567 1076.24 392.1C1075.8 391.62 1075.18 391.38 1074.36 391.38C1073.44 391.38 1072.72 391.66 1072.18 392.22C1071.65 392.767 1071.38 393.56 1071.38 394.6V400H1068.88V389.32H1071.26V390.7C1071.68 390.207 1072.2 389.833 1072.82 389.58C1073.45 389.327 1074.16 389.2 1074.94 389.2ZM1087.99 399.42C1087.7 399.66 1087.34 399.84 1086.91 399.96C1086.5 400.08 1086.06 400.14 1085.59 400.14C1084.42 400.14 1083.51 399.833 1082.87 399.22C1082.23 398.607 1081.91 397.713 1081.91 396.54V391.4H1080.15V389.4H1081.91V386.96H1084.41V389.4H1087.27V391.4H1084.41V396.48C1084.41 397 1084.54 397.4 1084.79 397.68C1085.05 397.947 1085.41 398.08 1085.89 398.08C1086.45 398.08 1086.92 397.933 1087.29 397.64L1087.99 399.42Z" fill="#BFBFBF"/>
<defs>
<clipPath id="clip0_123_4911">
<rect width="272" height="113" fill="white" transform="translate(0 200)"/>
</clipPath>
<clipPath id="clip1_123_4911">
<rect width="272" height="312" fill="white" transform="translate(450 1)"/>
</clipPath>
<clipPath id="clip2_123_4911">
<rect width="272" height="148" fill="white" transform="translate(900)"/>
</clipPath>
</defs>
</svg>
