<svg width="138" height="158" viewBox="0 0 138 158" fill="none" xmlns="http://www.w3.org/2000/svg">
<path d="M29.5714 69.125C26.0968 69.125 22.81 69.8348 19.7143 70.9457V69.125C19.7143 58.2316 28.5549 49.375 39.4286 49.375C44.8716 49.375 49.2857 44.9529 49.2857 39.5C49.2857 34.0471 44.8808 29.625 39.4286 29.625C17.6874 29.625 0 47.3383 0 69.125V98.75C0 115.112 13.2394 128.375 29.5714 128.375C45.9035 128.375 59.1429 115.112 59.1429 98.75C59.1429 82.3884 45.8973 69.125 29.5714 69.125ZM108.429 69.125C104.954 69.125 101.667 69.8363 98.5714 70.9392V69.125C98.5714 58.2316 107.412 49.375 118.286 49.375C123.729 49.375 128.143 44.9529 128.143 39.5C128.143 34.0471 123.729 29.625 118.286 29.625C96.5445 29.625 78.8571 47.3445 78.8571 69.125V98.75C78.8571 115.112 92.0965 128.375 108.429 128.375C124.761 128.375 138 115.112 138 98.75C138 82.3884 124.754 69.125 108.429 69.125Z" fill="#FFE9E2"/>
</svg>
