<svg width="32" height="32" viewBox="0 0 32 32" fill="none" xmlns="http://www.w3.org/2000/svg">
<path d="M19.2 9.33337C17.4327 9.33337 16 10.8258 16 12.6667C16 12.9485 16.0336 13.2221 16.0968 13.4834C15.9325 13.4944 15.7669 13.5 15.6 13.5C12.9059 13.5 10.5392 11.6232 9.18955 9.42107C8.93603 10.3181 8.8 11.2675 8.8 12.25C8.8 15.0052 9.86967 17.9168 11.6 19.7255C11.6 20.7059 9.2 21.2028 8 21.3288C9.41203 22.1798 11.0514 22.6667 12.8 22.6667C17.9847 22.6667 22.2093 18.3855 22.3937 13.0317L24 9.75004L21.3167 10.1667C20.7525 9.64807 20.0116 9.33337 19.2 9.33337Z" stroke="#FF8A65" stroke-width="1.5" stroke-linejoin="round"/>
<path d="M3.33325 16C3.33325 10.0289 3.33325 7.04336 5.18824 5.18836C7.04324 3.33337 10.0288 3.33337 15.9999 3.33337C21.971 3.33337 24.9566 3.33337 26.8117 5.18836C28.6666 7.04336 28.6666 10.0289 28.6666 16C28.6666 21.9711 28.6666 24.9567 26.8117 26.8118C24.9566 28.6667 21.971 28.6667 15.9999 28.6667C10.0288 28.6667 7.04324 28.6667 5.18824 26.8118C3.33325 24.9567 3.33325 21.9711 3.33325 16Z" stroke="#FF8A65" stroke-width="1.5" stroke-linejoin="round"/>
</svg>
