<svg width="806" height="391" viewBox="0 0 806 391" fill="none" xmlns="http://www.w3.org/2000/svg">
<g clip-path="url(#clip0_192_3175)">
<path d="M208.48 321.937C205.424 345.869 194.185 367.765 182.196 388.857C181.799 389.575 181.392 390.282 180.974 391H56.3633C53.8431 390.346 51.3554 389.628 48.8782 388.857C34.8038 384.574 21.5165 378.041 9.53273 369.512C-36.3114 336.502 -53.9522 274.127 -45.9842 218.236C-41.0297 183.512 -25.7808 148.059 3.91326 129.357C19.5915 119.465 39.7305 116.25 57.7787 119.926C58.251 120.012 58.7228 120.119 59.2051 120.215C74.7331 123.709 88.5666 132.39 96.4382 146.377C110.593 171.509 102.165 202.643 95.2051 230.615C88.2666 258.587 84.5023 292.068 104.642 312.699C97.9928 293.14 104.556 269.808 120.438 256.583C132.438 246.605 149.145 242.865 164.384 245.962C165.842 246.273 167.279 246.627 168.695 247.055C172.116 248.057 175.414 249.437 178.528 251.171C202.281 264.428 211.901 294.962 208.48 321.937Z" fill="#FEC94F"/>
<path d="M107.593 388.856C111.046 389.66 114.51 390.368 117.995 391H99.1537C96.6869 390.335 94.2311 389.628 91.7973 388.856C86.4459 387.185 81.1769 385.266 75.9902 383.101C55.1862 374.377 36.0228 361.281 21.5242 343.854C14.4335 335.411 8.64326 325.958 4.34479 315.807C-0.316303 304.334 -3.27852 292.242 -4.44838 279.915C-7.07592 254.622 -4.39498 228.632 0.61294 203.789C5.78107 178.041 14.1235 153.032 25.4493 129.336C26.8113 126.496 28.2196 123.674 29.6744 120.869C29.7745 120.638 29.926 120.433 30.1174 120.27C30.3088 120.106 30.535 119.989 30.7788 119.926C31.2738 119.83 31.7867 119.934 32.2051 120.215C32.7073 120.503 33.0797 120.973 33.2453 121.528C33.411 122.082 33.3573 122.679 33.0953 123.195C21.4177 145.954 12.5658 170.054 6.73617 194.958C1.03131 219.254 -2.20729 244.676 -1.10297 269.658C-0.0520382 293.001 6.05022 315.957 19.8942 335.045C32.5376 352.471 49.9956 366.211 69.3094 375.567C81.5339 381.412 94.3754 385.87 107.593 388.856Z" fill="#FEC94F"/>
<path d="M148.944 391H143.389C142.767 390.293 142.167 389.574 141.577 388.856C128.924 373.492 120.352 355.187 116.655 335.634C112.164 311.233 115.657 286.036 126.617 263.774C129.675 257.532 133.278 251.571 137.384 245.962C138.842 246.273 140.279 246.626 141.695 247.055C130.894 261.356 123.63 278.007 120.494 295.648C117.696 312.178 118.626 329.124 123.216 345.249C127.806 361.375 135.94 376.273 147.025 388.856C147.646 389.574 148.29 390.293 148.944 391Z" fill="#FEC94F"/>
<path d="M649.357 372.773C650.164 379.089 653.13 384.868 656.294 390.434C656.399 390.624 656.506 390.81 656.617 391H689.504C690.169 390.827 690.825 390.638 691.479 390.434C695.194 389.304 698.7 387.58 701.863 385.329C713.962 376.617 718.618 360.155 716.515 345.404C715.207 336.24 711.183 326.883 703.346 321.948C699.091 319.357 694.013 318.468 689.13 319.459C689.005 319.481 688.881 319.509 688.754 319.535C686.721 319.928 684.795 320.746 683.101 321.936C681.407 323.126 679.985 324.661 678.927 326.439C675.191 333.072 677.416 341.289 679.253 348.671C681.084 356.054 682.077 364.89 676.762 370.335C677.541 368.058 677.699 365.615 677.22 363.256C676.742 360.898 675.643 358.709 674.037 356.916C672.432 355.122 670.378 353.788 668.085 353.051C665.793 352.314 663.346 352.201 660.995 352.722C660.61 352.804 660.231 352.897 659.857 353.01C658.954 353.275 658.084 353.639 657.262 354.096C650.993 357.595 648.455 365.654 649.357 372.773Z" fill="#FEC94F"/>
<path d="M668.857 390.434C667.946 390.646 667.032 390.833 666.112 391H671.085C671.736 390.825 672.384 390.638 673.026 390.434C674.439 389.993 675.829 389.487 677.198 388.915C682.75 386.663 687.68 383.11 691.573 378.557C693.444 376.329 694.972 373.834 696.107 371.155C697.337 368.127 698.119 364.936 698.427 361.683C698.992 354.957 698.541 348.184 697.091 341.592C695.727 334.796 693.526 328.196 690.537 321.942C690.177 321.193 689.806 320.448 689.422 319.708C689.395 319.647 689.355 319.593 689.305 319.549C689.254 319.506 689.195 319.475 689.13 319.459C689 319.433 688.864 319.461 688.754 319.535C688.621 319.611 688.523 319.735 688.479 319.881C688.435 320.028 688.45 320.185 688.519 320.321C691.601 326.328 693.937 332.688 695.475 339.261C697.06 345.708 697.756 352.341 697.544 358.976C697.431 365.147 695.504 371.148 692.003 376.232C688.598 380.811 684.119 384.484 678.961 386.927C675.735 388.47 672.346 389.646 668.857 390.434Z" fill="#FEC94F"/>
<path d="M657.944 391H659.41C659.574 390.813 659.733 390.624 659.888 390.434C663.228 386.379 665.49 381.548 666.466 376.388C667.651 369.948 666.729 363.298 663.837 357.423C663.03 355.775 662.079 354.202 660.995 352.722C660.61 352.804 660.231 352.897 659.857 353.01C662.708 356.785 664.625 361.179 665.453 365.835C666.191 370.197 665.946 374.67 664.734 378.926C663.523 383.181 661.376 387.113 658.451 390.434C658.287 390.624 658.117 390.813 657.944 391Z" fill="#FEC94F"/>
<path d="M352.931 227.753H250.004L248.913 196.125C248.865 194.754 249.116 193.389 249.647 192.124C250.178 190.859 250.977 189.724 251.99 188.797C253.002 187.871 254.203 187.174 255.51 186.756C256.817 186.337 258.2 186.207 259.562 186.374L319.459 193.704H319.467C328.346 193.727 336.855 197.268 343.127 203.55C349.4 209.832 352.926 218.342 352.931 227.217V227.753Z" fill="#FF5722"/>
<path d="M307.056 115.564H235.269C234.314 115.564 233.369 115.752 232.487 116.117C231.605 116.482 230.803 117.017 230.128 117.691C229.453 118.366 228.918 119.167 228.552 120.049C228.187 120.93 227.999 121.875 228 122.829V194.574C227.999 195.528 228.187 196.473 228.552 197.354C228.918 198.236 229.453 199.037 230.128 199.711C230.803 200.386 231.605 200.921 232.487 201.286C233.369 201.651 234.314 201.839 235.269 201.839H307.056C308.011 201.839 308.956 201.651 309.839 201.286C310.721 200.921 311.522 200.386 312.197 199.711C312.872 199.037 313.408 198.236 313.773 197.354C314.138 196.473 314.326 195.528 314.326 194.574V122.829C314.326 121.875 314.138 120.93 313.773 120.049C313.408 119.167 312.872 118.366 312.197 117.691C311.522 117.017 310.721 116.482 309.839 116.117C308.956 115.752 308.011 115.564 307.056 115.564Z" fill="#CCCCCC"/>
<path d="M290.889 169.212L256.995 175.808C254.984 176.197 252.902 175.773 251.204 174.629C249.506 173.485 248.331 171.715 247.937 169.707L245.332 156.336C244.942 154.326 245.367 152.245 246.511 150.548C247.656 148.851 249.427 147.677 251.437 147.283L285.331 140.687C287.341 140.298 289.424 140.722 291.122 141.866C292.82 143.009 293.995 144.78 294.389 146.788L296.994 160.159C297.383 162.169 296.959 164.25 295.814 165.947C294.67 167.644 292.898 168.818 290.889 169.212Z" fill="#3F3D56"/>
<path d="M284.108 153.415L258.241 158.449C257.768 158.541 257.278 158.442 256.878 158.172C256.478 157.903 256.202 157.486 256.11 157.013C256.018 156.541 256.117 156.051 256.387 155.651C256.656 155.252 257.073 154.975 257.547 154.883L283.413 149.849C283.886 149.757 284.376 149.857 284.776 150.126C285.176 150.395 285.452 150.812 285.544 151.285C285.636 151.758 285.537 152.248 285.267 152.647C284.998 153.047 284.581 153.323 284.108 153.415Z" fill="white"/>
<path d="M279.08 160.87L265.701 163.474C265.228 163.566 264.737 163.466 264.338 163.197C263.938 162.928 263.662 162.511 263.57 162.038C263.477 161.565 263.577 161.075 263.846 160.676C264.116 160.276 264.533 160 265.006 159.908L278.385 157.304C278.619 157.259 278.86 157.26 279.094 157.307C279.328 157.355 279.55 157.448 279.748 157.581C279.946 157.714 280.116 157.885 280.248 158.084C280.38 158.283 280.471 158.506 280.516 158.74C280.562 158.974 280.561 159.215 280.514 159.449C280.466 159.682 280.373 159.905 280.24 160.102C280.106 160.3 279.935 160.47 279.736 160.601C279.537 160.733 279.314 160.824 279.08 160.87Z" fill="white"/>
<path d="M314.326 122.829V132.365H228V122.829C227.999 121.875 228.187 120.93 228.552 120.049C228.918 119.167 229.453 118.366 230.128 117.691C230.803 117.017 231.605 116.482 232.487 116.117C233.369 115.752 234.314 115.564 235.269 115.564H307.056C308.011 115.564 308.956 115.752 309.839 116.117C310.721 116.482 311.522 117.017 312.197 117.691C312.872 118.366 313.408 119.167 313.773 120.049C314.138 120.93 314.326 121.875 314.326 122.829Z" fill="#B3B3B3"/>
<path d="M486.711 135.351C486.213 133.743 485.368 132.264 484.236 131.018C483.103 129.772 481.712 128.789 480.158 128.139C478.605 127.489 476.928 127.187 475.245 127.254C473.562 127.322 471.914 127.757 470.418 128.53L371.656 93.1167L367.306 117.774L465.754 144.831C467.219 147.257 469.525 149.061 472.232 149.902C474.94 150.743 477.862 150.562 480.446 149.394C483.029 148.225 485.094 146.15 486.248 143.562C487.403 140.974 487.568 138.053 486.711 135.351Z" fill="#FFB8B8"/>
<path opacity="0.2" d="M486.711 135.351C486.213 133.743 485.368 132.264 484.236 131.018C483.103 129.772 481.712 128.789 480.158 128.139C478.605 127.489 476.928 127.187 475.245 127.254C473.562 127.322 471.914 127.757 470.418 128.53L371.656 93.1167L367.306 117.774L465.754 144.831C467.219 147.257 469.525 149.061 472.232 149.902C474.94 150.743 477.862 150.562 480.446 149.394C483.029 148.225 485.094 146.15 486.248 143.562C487.403 140.974 487.568 138.053 486.711 135.351Z" fill="black"/>
<path d="M389.186 97.6097L379.86 121.96C379.594 122.653 379.183 123.28 378.653 123.8C378.123 124.319 377.487 124.718 376.789 124.97C376.091 125.222 375.346 125.32 374.607 125.259C373.867 125.197 373.149 124.977 372.502 124.613L349.836 111.864C346.297 110.486 343.449 107.763 341.917 104.291C340.384 100.818 340.291 96.8799 341.659 93.3393C343.027 89.7987 345.744 86.9447 349.214 85.403C352.684 83.8612 356.625 83.7575 360.171 85.1146L385.482 90.7248C386.206 90.8856 386.888 91.2007 387.48 91.6484C388.071 92.0962 388.56 92.6662 388.911 93.3196C389.263 93.973 389.469 94.6944 389.517 95.4347C389.564 96.1751 389.451 96.9169 389.186 97.6097Z" fill="#FF5722"/>
<path d="M494.485 157.898L459.097 173.974L463.743 191.455C472.715 225.212 475.096 260.38 470.756 295.038L496.63 300.438L518.077 245.78L510.571 183.619L494.485 157.898Z" fill="#FF5722"/>
<path d="M563.921 238.814C540.67 238.814 521.722 255.706 520.802 276.86H607.041C606.121 255.706 587.173 238.814 563.921 238.814Z" fill="#3F3D56"/>
<path d="M545.821 242.459C544.611 146.969 490.196 155.754 490.196 155.754C490.196 155.754 491.214 185.477 491.703 186.401C526.378 251.97 469.15 328.839 396.304 314.697C394.931 314.431 393.611 314.16 392.345 313.886C383.115 311.96 374.966 306.593 369.555 298.875C364.143 291.158 361.877 281.671 363.216 272.343C370.392 214.752 334.701 215.771 334.701 215.771H282.512L255.41 191.394C254.453 190.533 253.3 189.92 252.051 189.608C250.803 189.296 249.497 189.294 248.247 189.603C246.998 189.912 245.843 190.522 244.884 191.38C243.925 192.238 243.191 193.317 242.746 194.524L239.26 203.982C239.26 203.982 187.786 209.341 192.075 259.712H207.989C207.95 261.144 208.008 262.576 208.161 263.999L326.927 263.034C333.889 262.978 340.034 268.616 340.063 275.573C340.07 277.267 339.735 278.945 339.078 280.507C338.422 282.068 337.457 283.482 336.241 284.662C335.025 285.842 333.583 286.765 332.002 287.376C330.421 287.986 328.733 288.272 327.039 288.215L307.892 287.578C301.994 313.835 316.471 331.519 332.422 342.638C347.441 352.955 365.262 358.425 383.486 358.312H435.504C503.064 358.312 514.86 301.51 514.86 301.51C550.249 286.506 545.821 242.459 545.821 242.459Z" fill="#3F3D56"/>
<path d="M560.704 389.392C594.019 389.392 621.026 362.402 621.026 329.107C621.026 295.813 594.019 268.822 560.704 268.822C527.39 268.822 500.383 295.813 500.383 329.107C500.383 362.402 527.39 389.392 560.704 389.392Z" fill="#3F3D56"/>
<path d="M560.704 343.883C568.87 343.883 575.489 337.268 575.489 329.107C575.489 320.947 568.87 314.332 560.704 314.332C552.539 314.332 545.92 320.947 545.92 329.107C545.92 337.268 552.539 343.883 560.704 343.883Z" fill="white"/>
<path d="M256.15 389.392C294.498 389.392 325.586 358.323 325.586 319.998C325.586 281.672 294.498 250.603 256.15 250.603C217.801 250.603 186.713 281.672 186.713 319.998C186.713 358.323 217.801 389.392 256.15 389.392Z" fill="#3F3D56"/>
<path d="M256.15 337.006C265.549 337.006 273.168 329.391 273.168 319.998C273.168 310.604 265.549 302.989 256.15 302.989C246.75 302.989 239.131 310.604 239.131 319.998C239.131 329.391 246.75 337.006 256.15 337.006Z" fill="white"/>
<path d="M459.197 178.724L446.464 144.161C445.801 142.359 445.499 140.445 445.575 138.527C445.652 136.609 446.106 134.725 446.911 132.982C447.717 131.24 448.858 129.673 450.269 128.371C451.68 127.069 453.334 126.057 455.137 125.394L491.64 111.964C494.812 110.797 498.182 110.265 501.559 110.4C504.936 110.534 508.253 111.332 511.321 112.748C514.389 114.164 517.149 116.17 519.441 118.652C521.734 121.133 523.515 124.042 524.682 127.211C525.735 130.056 526.273 133.066 526.271 136.099C526.257 139.95 525.385 143.75 523.718 147.222C522.05 150.695 519.63 153.752 516.632 156.172C514.467 157.908 512.033 159.28 509.426 160.233L459.197 178.724Z" fill="#3F3D56"/>
<path d="M525.734 136.098C525.731 139.871 524.882 143.596 523.249 146.997C521.616 150.399 519.24 153.391 516.297 155.754C511.782 154.564 507.58 152.405 503.984 149.428C500.388 146.451 497.484 142.727 495.473 138.514C493.463 134.302 492.394 129.703 492.342 125.036C492.29 120.369 493.256 115.748 495.172 111.491C498.85 110.692 502.66 110.726 506.324 111.591C509.987 112.456 513.41 114.13 516.341 116.49C519.273 118.85 521.638 121.836 523.263 125.23C524.889 128.623 525.733 132.337 525.734 136.098Z" fill="#FF5722"/>
<path d="M201.19 266.679C209.482 266.679 216.203 258.522 216.203 248.459C216.203 238.397 209.482 230.24 201.19 230.24C192.899 230.24 186.177 238.397 186.177 248.459C186.177 258.522 192.899 266.679 201.19 266.679Z" fill="#FF5722"/>
<path d="M399.645 312.952H412.793L419.048 278.874L399.643 278.875L399.645 312.952Z" fill="#FFB8B8"/>
<path d="M396.292 308.662L422.183 308.661H422.184C424.351 308.661 426.496 309.088 428.498 309.916C430.5 310.745 432.319 311.96 433.851 313.491C435.384 315.022 436.599 316.84 437.428 318.841C438.257 320.841 438.684 322.986 438.684 325.151V325.687L396.293 325.689L396.292 308.662Z" fill="#2F2E41"/>
<path d="M414.906 298.965C414.753 298.965 414.599 298.958 414.445 298.943L396.25 297.619C395.514 297.551 394.804 297.315 394.174 296.929C393.544 296.543 393.011 296.018 392.616 295.393C392.222 294.769 391.976 294.062 391.897 293.328C391.819 292.594 391.911 291.851 392.165 291.158L416.515 236.483C416.689 235.996 416.76 235.478 416.724 234.962C416.688 234.445 416.545 233.942 416.304 233.484C416.065 233.02 415.73 232.612 415.321 232.287C414.912 231.962 414.439 231.727 413.933 231.598C402.483 228.607 373.106 220.642 347.675 211.323C336.78 207.33 329.918 201.56 327.28 194.173C323.802 184.434 328.947 175.553 329.168 175.18L329.34 174.888L353.27 177.062L379.212 179.267L436.062 209.734C440.826 212.309 444.444 216.582 446.197 221.703C447.949 226.824 447.707 232.417 445.519 237.368L419.309 296.107C418.93 296.958 418.312 297.68 417.531 298.188C416.749 298.695 415.838 298.965 414.906 298.965Z" fill="#2F2E41"/>
<path d="M357.431 68.8924C371.977 68.8924 383.769 57.1072 383.769 42.5695C383.769 28.0317 371.977 16.2466 357.431 16.2466C342.884 16.2466 331.092 28.0317 331.092 42.5695C331.092 57.1072 342.884 68.8924 357.431 68.8924Z" fill="#FFB8B8"/>
<path d="M392.139 316.167H405.286L411.541 282.089L392.137 282.09L392.139 316.167Z" fill="#FFB8B8"/>
<path d="M388.785 311.877L414.676 311.876H414.677C416.844 311.876 418.99 312.303 420.992 313.131C422.994 313.96 424.813 315.175 426.345 316.706C427.877 318.237 429.092 320.055 429.922 322.056C430.751 324.056 431.178 326.201 431.178 328.366V328.902L388.786 328.904L388.785 311.877Z" fill="#2F2E41"/>
<path d="M407.399 302.18C407.246 302.18 407.092 302.173 406.938 302.158L388.743 300.834C388.008 300.766 387.297 300.53 386.667 300.144C386.037 299.758 385.504 299.233 385.11 298.608C384.715 297.984 384.469 297.277 384.391 296.543C384.312 295.809 384.404 295.066 384.658 294.373L409.008 239.699C409.182 239.211 409.253 238.693 409.217 238.177C409.181 237.66 409.038 237.157 408.798 236.699C408.558 236.235 408.223 235.827 407.814 235.502C407.406 235.177 406.933 234.942 406.427 234.813C394.977 231.822 365.599 223.857 340.168 214.538C329.273 210.545 322.411 204.775 319.773 197.388C316.295 187.649 321.44 178.768 321.661 178.395L321.833 178.103L345.763 180.277L371.705 182.482L428.556 212.949C433.319 215.524 436.938 219.797 438.69 224.918C440.443 230.039 440.201 235.632 438.012 240.583L411.803 299.322C411.423 300.173 410.806 300.895 410.024 301.403C409.243 301.91 408.331 302.18 407.399 302.18Z" fill="#2F2E41"/>
<path d="M365.554 83.8186L337.672 74.173C337.672 74.173 320.169 87.6125 328.577 120.953C332.967 138.157 331.688 156.318 324.931 172.739C324.117 174.771 323.179 176.751 322.123 178.667C322.123 178.667 353.221 216.178 382.176 188.313L370.916 134.19C370.916 134.19 388.61 98.287 365.554 83.8186Z" fill="#FF5722"/>
<path d="M360.701 69.7877C356.952 64.18 353.994 56.4043 358.121 51.0688C362.195 45.8022 370.231 46.5781 376.47 44.2476C385.161 41.0017 390.201 30.7981 388.629 21.6601C387.057 12.5221 379.717 4.94703 370.973 1.84754C362.229 -1.25195 352.369 -0.243923 343.807 3.32533C333.266 7.71912 324.224 16.2186 320.432 26.9852C316.641 37.7518 318.667 50.6792 326.533 58.9547C334.966 67.8269 348.201 70.1913 360.445 70.0479" fill="#2F2E41"/>
<path d="M336.2 21.9533C331.477 25.7964 324.27 24.0895 319.199 20.7167C314.129 17.3439 310.014 12.5412 304.528 9.8968C294.856 5.23481 283.162 8.33396 273.749 13.4979C264.336 18.6619 255.991 25.7961 246.048 29.8485C236.105 33.9009 223.417 34.1012 215.888 26.4494C214.035 31.8143 213.884 37.6199 215.454 43.074C217.025 48.5281 220.241 53.3652 224.664 56.9251C229.086 60.4851 234.501 62.5946 240.167 62.9659C245.834 63.3371 251.477 61.952 256.327 58.9995C267.222 52.3672 273.24 38.4611 285.459 34.8005C292.221 32.7748 299.482 34.4063 306.316 36.1734C313.15 37.9405 320.276 39.8499 327.173 38.3456C334.07 36.8412 340.521 30.6472 339.643 23.647L336.2 21.9533Z" fill="#2F2E41"/>
<path d="M485.401 134.279C484.708 132.745 483.686 131.381 482.409 130.284C481.132 129.188 479.629 128.384 478.007 127.93C476.385 127.476 474.684 127.383 473.022 127.658C471.361 127.932 469.779 128.567 468.39 129.519L366.011 106.555L364.738 131.56L465.774 146.27C467.528 148.497 470.038 150.004 472.829 150.504C475.62 151.005 478.497 150.465 480.917 148.987C483.336 147.509 485.129 145.195 485.955 142.485C486.781 139.774 486.584 136.854 485.401 134.279Z" fill="#FFB8B8"/>
<path d="M383.961 108.852L377.712 134.166C377.534 134.886 377.203 135.56 376.742 136.14C376.28 136.721 375.698 137.196 375.037 137.532C374.375 137.868 373.648 138.057 372.907 138.087C372.165 138.117 371.426 137.987 370.739 137.706L346.672 127.849C342.988 126.921 339.822 124.57 337.87 121.312C335.918 118.054 335.339 114.156 336.26 110.472C337.181 106.788 339.527 103.62 342.782 101.662C346.038 99.7043 349.937 99.1173 353.626 100.03L379.435 102.476C380.174 102.546 380.889 102.775 381.532 103.146C382.174 103.518 382.729 104.023 383.159 104.628C383.588 105.233 383.882 105.924 384.021 106.653C384.159 107.381 384.139 108.131 383.961 108.852Z" fill="#FF5722"/>
<path d="M473.574 154.147C477.72 154.147 481.08 150.788 481.08 146.644C481.08 142.501 477.72 139.142 473.574 139.142C469.428 139.142 466.067 142.501 466.067 146.644C466.067 150.788 469.428 154.147 473.574 154.147Z" fill="#FF5722"/>
<path d="M806 389.928C805.999 390.212 805.886 390.484 805.685 390.685C805.484 390.886 805.212 390.999 804.928 391H-81.9276C-82.212 391 -82.4848 390.887 -82.6859 390.686C-82.887 390.485 -83 390.212 -83 389.928C-83 389.644 -82.887 389.371 -82.6859 389.17C-82.4848 388.969 -82.212 388.856 -81.9276 388.856H804.928C805.212 388.857 805.484 388.971 805.685 389.171C805.886 389.372 805.999 389.644 806 389.928Z" fill="#FEC94F"/>
</g>
<defs>
<clipPath id="clip0_192_3175">
<rect width="889" height="391" fill="white" transform="translate(-83)"/>
</clipPath>
</defs>
</svg>
