<svg width="140" height="56" viewBox="0 0 140 56" fill="none" xmlns="http://www.w3.org/2000/svg">
<circle cx="12.6" cy="13.6" r="11.1" stroke="#1E1E1E" stroke-width="3"/>
<circle cx="12.6" cy="13.6" r="7.2" fill="#FFC107"/>
<circle cx="41.4" cy="13.6" r="11.1" stroke="#1E1E1E" stroke-width="3"/>
<circle cx="41.4001" cy="13.6" r="7.2" fill="#1E1E1E"/>
<circle cx="12.6" cy="42.4" r="11.1" stroke="#1E1E1E" stroke-width="3"/>
<circle cx="12.6" cy="42.4001" r="7.2" fill="#1E1E1E"/>
<circle cx="41.4" cy="42.4" r="11.1" stroke="#1E1E1E" stroke-width="3"/>
<circle cx="41.4001" cy="42.4001" r="7.2" fill="#FF5722"/>
<path d="M67.456 6.2C69.008 6.2 70.36 6.456 71.512 6.968C72.664 7.48 73.552 8.216 74.176 9.176C74.8 10.136 75.112 11.256 75.112 12.536C75.112 13.816 74.8 14.936 74.176 15.896C73.552 16.856 72.664 17.592 71.512 18.104C70.36 18.616 69.008 18.872 67.456 18.872H65.032V23H59.368V6.2H67.456ZM67.096 14.504C67.864 14.504 68.44 14.336 68.824 14C69.208 13.648 69.4 13.16 69.4 12.536C69.4 11.912 69.208 11.432 68.824 11.096C68.44 10.744 67.864 10.568 67.096 10.568H65.032V14.504H67.096ZM77.0359 5.192H82.4599V23H77.0359V5.192ZM90.7441 9.632C93.0481 9.632 94.8081 10.152 96.0241 11.192C97.2401 12.216 97.8481 13.8 97.8481 15.944V23H92.8081V21.272C92.1841 22.584 90.9441 23.24 89.0881 23.24C88.0481 23.24 87.1601 23.064 86.4241 22.712C85.7041 22.344 85.1521 21.856 84.7681 21.248C84.4001 20.624 84.2161 19.928 84.2161 19.16C84.2161 17.864 84.7121 16.88 85.7041 16.208C86.6961 15.536 88.2001 15.2 90.2161 15.2H92.4001C92.2241 14.176 91.4001 13.664 89.9281 13.664C89.3361 13.664 88.7361 13.76 88.1281 13.952C87.5201 14.128 87.0001 14.376 86.5681 14.696L84.8401 11.12C85.5921 10.656 86.4961 10.296 87.5521 10.04C88.6241 9.768 89.6881 9.632 90.7441 9.632ZM90.7201 19.976C91.1041 19.976 91.4481 19.872 91.7521 19.664C92.0561 19.456 92.2801 19.144 92.4241 18.728V17.816H91.0801C89.9761 17.816 89.4241 18.184 89.4241 18.92C89.4241 19.224 89.5361 19.48 89.7601 19.688C90.0001 19.88 90.3201 19.976 90.7201 19.976ZM109.864 22.544C109.048 23.008 107.936 23.24 106.528 23.24C104.688 23.24 103.272 22.8 102.28 21.92C101.288 21.024 100.792 19.688 100.792 17.912V14.552H98.9922V10.592H100.792V6.92H106.216V10.592H108.904V14.552H106.216V17.864C106.216 18.264 106.32 18.576 106.528 18.8C106.736 19.024 107.008 19.136 107.344 19.136C107.808 19.136 108.216 19.016 108.568 18.776L109.864 22.544Z" fill="#1E1E1E"/>
<path d="M125.199 16.424C125.199 16.504 125.175 16.928 125.127 17.696H116.007C116.199 18.192 116.519 18.576 116.967 18.848C117.415 19.104 117.975 19.232 118.647 19.232C119.223 19.232 119.703 19.16 120.087 19.016C120.487 18.872 120.919 18.624 121.383 18.272L124.215 21.128C122.935 22.536 121.023 23.24 118.479 23.24C116.895 23.24 115.503 22.952 114.303 22.376C113.103 21.784 112.175 20.968 111.519 19.928C110.863 18.888 110.535 17.72 110.535 16.424C110.535 15.112 110.855 13.944 111.495 12.92C112.151 11.88 113.039 11.072 114.159 10.496C115.295 9.92 116.567 9.632 117.975 9.632C119.303 9.632 120.511 9.896 121.599 10.424C122.703 10.952 123.575 11.728 124.215 12.752C124.871 13.776 125.199 15 125.199 16.424ZM118.023 13.328C117.463 13.328 116.999 13.48 116.631 13.784C116.263 14.088 116.023 14.52 115.911 15.08H120.135C120.023 14.536 119.783 14.112 119.415 13.808C119.047 13.488 118.583 13.328 118.023 13.328Z" fill="#FFA500"/>
<path d="M59.368 33.2H67.648C69.52 33.2 71.168 33.544 72.592 34.232C74.032 34.904 75.144 35.872 75.928 37.136C76.728 38.4 77.128 39.888 77.128 41.6C77.128 43.312 76.728 44.8 75.928 46.064C75.144 47.328 74.032 48.304 72.592 48.992C71.168 49.664 69.52 50 67.648 50H59.368V33.2ZM67.408 45.584C68.624 45.584 69.592 45.24 70.312 44.552C71.048 43.848 71.416 42.864 71.416 41.6C71.416 40.336 71.048 39.36 70.312 38.672C69.592 37.968 68.624 37.616 67.408 37.616H65.032V45.584H67.408Z" fill="#FFA500"/>
<path d="M84.1881 38.288C85.1481 37.184 86.5641 36.632 88.4361 36.632V41.432C88.0041 41.368 87.6041 41.336 87.2361 41.336C85.3801 41.336 84.4521 42.28 84.4521 44.168V50H79.0281V36.872H84.1881V38.288ZM96.7923 50.24C95.3363 50.24 94.0243 49.952 92.8563 49.376C91.7043 48.784 90.8003 47.976 90.1443 46.952C89.4883 45.912 89.1603 44.736 89.1603 43.424C89.1603 42.112 89.4883 40.944 90.1443 39.92C90.8003 38.88 91.7043 38.072 92.8563 37.496C94.0243 36.92 95.3363 36.632 96.7923 36.632C98.2643 36.632 99.5763 36.92 100.728 37.496C101.896 38.072 102.8 38.88 103.44 39.92C104.096 40.944 104.424 42.112 104.424 43.424C104.424 44.736 104.096 45.912 103.44 46.952C102.8 47.976 101.896 48.784 100.728 49.376C99.5763 49.952 98.2643 50.24 96.7923 50.24ZM96.7923 46.016C97.4163 46.016 97.9283 45.792 98.3283 45.344C98.7283 44.88 98.9283 44.24 98.9283 43.424C98.9283 42.608 98.7283 41.976 98.3283 41.528C97.9283 41.08 97.4163 40.856 96.7923 40.856C96.1683 40.856 95.6563 41.08 95.2563 41.528C94.8563 41.976 94.6562 42.608 94.6562 43.424C94.6562 44.24 94.8563 44.88 95.2563 45.344C95.6563 45.792 96.1683 46.016 96.7923 46.016ZM114.882 36.632C116.034 36.632 117.09 36.912 118.05 37.472C119.026 38.016 119.794 38.808 120.354 39.848C120.93 40.888 121.218 42.088 121.218 43.448C121.218 44.808 120.93 46.008 120.354 47.048C119.794 48.072 119.026 48.864 118.05 49.424C117.09 49.968 116.034 50.24 114.882 50.24C113.426 50.24 112.314 49.864 111.546 49.112V54.656H106.122V36.872H111.282V37.952C112.066 37.072 113.266 36.632 114.882 36.632ZM113.586 46.016C114.21 46.016 114.722 45.792 115.122 45.344C115.522 44.896 115.722 44.264 115.722 43.448C115.722 42.632 115.522 42 115.122 41.552C114.722 41.088 114.21 40.856 113.586 40.856C112.962 40.856 112.45 41.088 112.05 41.552C111.65 42 111.45 42.632 111.45 43.448C111.45 44.264 111.65 44.896 112.05 45.344C112.45 45.792 112.962 46.016 113.586 46.016Z" fill="#1E1E1E"/>
</svg>
